<?xml version="1.0" encoding="UTF-8" standalone="no"?>
<!-- Created with Inkscape (http://www.inkscape.org/) -->

<svg
   width="210mm"
   height="297mm"
   viewBox="0 0 210 297"
   version="1.1"
   id="svg5"
   inkscape:version="1.2.1 (9c6d41e410, 2022-07-14)"
   sodipodi:docname="Logo_font_axion.svg"
   xmlns:inkscape="http://www.inkscape.org/namespaces/inkscape"
   xmlns:sodipodi="http://sodipodi.sourceforge.net/DTD/sodipodi-0.dtd"
   xmlns="http://www.w3.org/2000/svg"
   xmlns:svg="http://www.w3.org/2000/svg">
  <sodipodi:namedview
     id="namedview7"
     pagecolor="#ffffff"
     bordercolor="#000000"
     borderopacity="0.25"
     inkscape:showpageshadow="2"
     inkscape:pageopacity="0.0"
     inkscape:pagecheckerboard="0"
     inkscape:deskcolor="#d1d1d1"
     inkscape:document-units="mm"
     showgrid="false"
     inkscape:zoom="1.0444209"
     inkscape:cx="76.118736"
     inkscape:cy="309.74102"
     inkscape:window-width="1920"
     inkscape:window-height="1010"
     inkscape:window-x="-6"
     inkscape:window-y="-6"
     inkscape:window-maximized="1"
     inkscape:current-layer="layer1" />
  <defs
     id="defs2">
    <rect
       x="76.59747"
       y="252.77165"
       width="260.4314"
       height="126.38583"
       id="rect1122" />
    <rect
       x="68.937723"
       y="230.74988"
       width="562.99141"
       height="104.36405"
       id="rect1075" />
    <rect
       x="34.468861"
       y="247.98431"
       width="585.01318"
       height="210.64304"
       id="rect1069" />
    <rect
       x="168.51443"
       y="302.56001"
       width="1133.6426"
       height="540.01216"
       id="rect290" />
  </defs>
  <g
     inkscape:label="图层 1"
     inkscape:groupmode="layer"
     id="layer1">
    <text
       xml:space="preserve"
       transform="scale(0.26458333)"
       id="text288"
       style="font-style:normal;font-variant:normal;font-weight:normal;font-stretch:normal;font-size:192px;font-family:'CF StencilOrama';-inkscape-font-specification:'CF StencilOrama';white-space:pre;shape-inside:url(#rect290);display:inline;fill:#ff0000;stroke-linecap:square;stroke-miterlimit:10" />
    <g
       aria-label="Voltex Pico"
       transform="matrix(0.26458333,0,0,0.28970952,-15.19981,-63.99219)"
       id="text1073"
       style="font-size:64px;font-family:'Axion RND';-inkscape-font-specification:'Axion RND';letter-spacing:-4px;white-space:pre;shape-inside:url(#rect1075);fill:#ff0000;stroke-width:0.955652;stroke-linecap:square;stroke-miterlimit:10">
      <path
         d="m 108.1055,278.494 10.24,-31.68 q 1.216,-3.648 4.096,-3.648 2.048,0 3.2,1.664 1.216,1.6 0.576,3.584 l -10.432,32.32 q -1.344,4.224 -3.84,6.208 -2.432,1.92 -7.168,1.92 h -11.264 q -4.736,0 -7.232,-1.92 -2.432,-1.984 -3.776,-6.208 l -10.432,-32.32 q -0.64,-1.984 0.512,-3.584 1.216,-1.664 3.264,-1.664 2.88,0 4.096,3.648 l 10.24,31.68 q 0.512,1.664 1.472,2.368 0.96,0.704 2.56,0.704 h 9.856 q 1.6,0 2.56,-0.704 0.96,-0.704 1.472,-2.368 z"
         id="path1079"
         style="stroke-width:0.955652" />
      <path
         d="m 157.60949,288.862 h -11.84 q -8.128,0 -11.712,-3.584 -3.584,-3.584 -3.584,-11.712 v -5.248 q 0,-8.128 3.584,-11.712 3.584,-3.584 11.712,-3.584 h 11.84 q 8.128,0 11.712,3.584 3.584,3.584 3.584,11.712 v 5.248 q 0,8.128 -3.584,11.712 -3.584,3.584 -11.712,3.584 z m -11.52,-7.296 h 11.2 q 4.032,0 5.824,-1.792 1.792,-1.792 1.792,-5.76 v -6.144 q 0,-3.968 -1.792,-5.76 -1.792,-1.792 -5.824,-1.792 h -11.2 q -4.032,0 -5.824,1.792 -1.792,1.792 -1.792,5.76 v 6.144 q 0,3.968 1.792,5.76 1.792,1.792 5.824,1.792 z"
         id="path1081"
         style="stroke-width:0.955652" />
      <path
         d="m 191.62554,243.742 v 41.6 q 0,1.856 -1.024,3.136 -1.024,1.28 -3.008,1.28 -1.92,0 -2.944,-1.28 -1.024,-1.28 -1.024,-3.136 v -41.6 q 0,-1.856 1.024,-3.136 1.024,-1.28 2.944,-1.28 1.984,0 3.008,1.28 1.024,1.28 1.024,3.136 z"
         id="path1083"
         style="stroke-width:0.955652" />
      <path
         d="m 228.84156,288.862 h -4.736 q -8.128,0 -11.712,-3.584 -3.584,-3.584 -3.584,-11.712 V 263.39 q 0,-1.664 -0.768,-2.368 -0.704,-0.704 -2.304,-0.704 h -4.48 q -1.664,0 -2.88,-0.896 -1.152,-0.96 -1.152,-2.752 0,-1.792 1.152,-2.688 1.216,-0.96 2.88,-0.96 h 4.48 q 1.6,0 2.304,-0.704 0.768,-0.704 0.768,-2.368 v -6.592 q 0,-1.856 1.024,-3.136 1.024,-1.28 2.944,-1.28 1.984,0 3.008,1.28 1.024,1.28 1.024,3.136 v 6.592 q 0,1.664 0.704,2.368 0.704,0.704 2.368,0.704 h 9.024 q 1.664,0 2.816,0.96 1.216,0.896 1.216,2.688 0,1.792 -1.216,2.752 -1.152,0.896 -2.816,0.896 h -9.024 q -1.664,0 -2.368,0.704 -0.704,0.704 -0.704,2.368 v 10.624 q 0,3.968 1.792,5.76 1.792,1.792 5.824,1.792 h 4.416 q 1.664,0 2.816,0.96 1.216,0.896 1.216,2.688 0,1.792 -1.216,2.752 -1.152,0.896 -2.816,0.896 z"
         id="path1085"
         style="stroke-width:0.955652" />
      <path
         d="m 248.0736,276.51 q 0,5.056 6.656,5.056 h 20.928 q 1.664,0 2.816,0.96 1.216,0.896 1.216,2.688 0,1.792 -1.216,2.752 -1.152,0.896 -2.816,0.896 h -20.544 q -8.128,0 -11.712,-3.584 -3.584,-3.584 -3.584,-11.712 v -5.248 q 0,-8.128 3.584,-11.712 3.584,-3.584 11.712,-3.584 h 13.888 q 5.248,0 8.576,2.816 3.392,2.816 3.392,8.128 0,5.312 -3.392,8.192 -3.328,2.816 -8.576,2.816 h -19.392 q -1.536,0 -1.536,1.536 z m 1.472,-8.832 h 19.008 q 1.92,0 3.136,-0.896 1.28,-0.896 1.28,-2.816 0,-3.648 -4.416,-3.648 h -13.952 q -6.592,0 -6.592,5.824 0,1.536 1.536,1.536 z"
         id="path1087"
         style="stroke-width:0.955652" />
      <path
         d="m 311.14563,274.206 h -3.264 q -1.856,0 -2.944,0.512 -1.024,0.512 -2.432,2.56 l -5.824,8.448 q -1.6,2.304 -2.56,3.136 -0.96,0.896 -2.304,0.896 -1.408,0 -2.688,-1.024 -1.28,-1.088 -1.28,-2.688 0,-1.152 0.832,-2.368 l 7.36,-10.624 q 0.896,-1.216 0.896,-2.112 0,-0.896 -0.896,-2.24 l -6.784,-10.496 q -0.832,-1.216 -0.832,-2.368 0,-1.6 1.28,-2.624 1.28,-1.088 2.688,-1.088 1.408,0 2.368,0.896 1.024,0.896 2.496,3.136 l 5.056,7.68 q 1.408,2.048 2.432,2.56 1.088,0.512 2.944,0.512 h 3.648 q 1.856,0 2.88,-0.512 1.088,-0.512 2.496,-2.56 l 5.056,-7.68 q 1.472,-2.24 2.432,-3.136 1.024,-0.896 2.432,-0.896 1.408,0 2.688,1.088 1.28,1.024 1.28,2.624 0,1.152 -0.832,2.368 l -6.784,10.496 q -0.832,1.344 -0.832,2.24 0,0.896 0.832,2.112 l 7.36,10.624 q 0.832,1.216 0.832,2.368 0,1.6 -1.28,2.688 -1.28,1.024 -2.688,1.024 -1.344,0 -2.304,-0.896 -0.96,-0.832 -2.56,-3.136 l -5.824,-8.448 q -1.408,-2.048 -2.496,-2.56 -1.024,-0.512 -2.88,-0.512 z"
         id="path1089"
         style="stroke-width:0.955652" />
      <path
         d="m 395.56164,270.558 h -20.352 q -1.6,0 -2.368,0.704 -0.704,0.704 -0.704,2.368 v 11.712 q 0,1.856 -1.024,3.136 -1.024,1.28 -3.008,1.28 -1.92,0 -2.944,-1.28 -1.024,-1.28 -1.024,-3.136 v -32.064 q 0,-4.864 2.176,-7.04 2.176,-2.176 7.04,-2.176 h 22.208 q 6.336,0 10.432,3.392 4.096,3.392 4.096,9.856 0,6.464 -4.096,9.856 -4.096,3.392 -10.432,3.392 z m -20.352,-7.296 h 19.648 q 7.232,0 7.232,-5.952 0,-5.952 -7.232,-5.952 h -19.648 q -1.6,0 -2.368,0.704 -0.704,0.704 -0.704,2.368 v 5.76 q 0,1.664 0.704,2.368 0.768,0.704 2.368,0.704 z"
         id="path1091"
         style="stroke-width:0.955652" />
      <path
         d="m 428.80962,256.542 v 28.8 q 0,1.856 -1.024,3.136 -1.024,1.28 -3.008,1.28 -1.92,0 -2.944,-1.28 -1.024,-1.28 -1.024,-3.136 v -28.8 q 0,-1.856 1.024,-3.136 1.024,-1.28 2.944,-1.28 1.984,0 3.008,1.28 1.024,1.28 1.024,3.136 z m 0,-14.144 v 1.024 q 0,1.856 -1.024,3.136 -1.024,1.28 -3.008,1.28 -1.92,0 -2.944,-1.28 -1.024,-1.28 -1.024,-3.136 v -1.024 q 0,-1.856 1.024,-3.136 1.024,-1.28 2.944,-1.28 1.984,0 3.008,1.28 1.024,1.28 1.024,3.136 z"
         id="path1093"
         style="stroke-width:0.955652" />
      <path
         d="m 472.10564,288.862 h -17.28 q -8.128,0 -11.712,-3.584 -3.584,-3.584 -3.584,-11.712 v -5.248 q 0,-8.128 3.584,-11.712 3.584,-3.584 11.712,-3.584 h 17.28 q 1.664,0 2.816,0.96 1.216,0.896 1.216,2.688 0,1.792 -1.216,2.752 -1.152,0.896 -2.816,0.896 h -16.96 q -4.032,0 -5.824,1.792 -1.792,1.792 -1.792,5.76 v 6.144 q 0,3.968 1.792,5.76 1.792,1.792 5.824,1.792 h 16.96 q 1.664,0 2.816,0.96 1.216,0.896 1.216,2.688 0,1.792 -1.216,2.752 -1.152,0.896 -2.816,0.896 z"
         id="path1095"
         style="stroke-width:0.955652" />
      <path
         d="m 511.43358,288.862 h -11.84 q -8.128,0 -11.712,-3.584 -3.584,-3.584 -3.584,-11.712 v -5.248 q 0,-8.128 3.584,-11.712 3.584,-3.584 11.712,-3.584 h 11.84 q 8.128,0 11.712,3.584 3.584,3.584 3.584,11.712 v 5.248 q 0,8.128 -3.584,11.712 -3.584,3.584 -11.712,3.584 z m -11.52,-7.296 h 11.2 q 4.032,0 5.824,-1.792 1.792,-1.792 1.792,-5.76 v -6.144 q 0,-3.968 -1.792,-5.76 -1.792,-1.792 -5.824,-1.792 h -11.2 q -4.032,0 -5.824,1.792 -1.792,1.792 -1.792,5.76 v 6.144 q 0,3.968 1.792,5.76 1.792,1.792 5.824,1.792 z"
         id="path1097"
         style="stroke-width:0.955652" />
    </g>
    <text
       xml:space="preserve"
       transform="scale(0.26458333)"
       id="text1120"
       style="fill:#ff0000;-inkscape-font-specification:'Axion RND';font-family:'Axion RND';stroke-linecap:square;stroke-miterlimit:10;font-size:64px;font-weight:normal;font-style:normal;font-stretch:normal;font-variant:normal;white-space:pre;shape-inside:url(#rect1122)" />
  </g>
</svg>
