  0
SECTION
  2
HEADER
  9
$ACADVER
  1
AC1014
  9
$HANDSEED
  5
FFFF
  9
$MEASUREMENT
 70
     1
  0
ENDSEC
  0
SECTION
  2
TABLES
  0
TABLE
  2
VPORT
  5
8
330
0
100
AcDbSymbolTable
 70
     4
  0
VPORT
  5
2E
330
8
100
AcDbSymbolTableRecord
100
AcDbViewportTableRecord
  2
*ACTIVE
 70
     0
 10
0.0
 20
0.0
 11
1.0
 21
1.0
 12
210.0
 22
148.5
 13
0.0
 23
0.0
 14
10.0
 24
10.0
 15
10.0
 25
10.0
 16
0.0
 26
0.0
 36
1.0
 17
0.0
 27
0.0
 37
0.0
 40
341.0
 41
1.24
 42
50.0
 43
0.0
 44
0.0
 50
0.0
 51
0.0
 71
     0
 72
   100
 73
     1
 74
     3
 75
     0
 76
     0
 77
     0
 78
     0
  0
ENDTAB
  0
TABLE
  2
LTYPE
  5
5
330
0
100
AcDbSymbolTable
 70
     1
  0
LTYPE
  5
14
330
5
100
AcDbSymbolTableRecord
100
AcDbLinetypeTableRecord
  2
BYBLOCK
 70
     0
  3

 72
    65
 73
     0
 40
0.0
  0
LTYPE
  5
15
330
5
100
AcDbSymbolTableRecord
100
AcDbLinetypeTableRecord
  2
BYLAYER
 70
     0
  3

 72
    65
 73
     0
 40
0.0
  0
LTYPE
  5
16
330
5
100
AcDbSymbolTableRecord
100
AcDbLinetypeTableRecord
  2
CONTINUOUS
 70
     0
  3
Solid line
 72
    65
 73
     0
 40
0.0
  0
ENDTAB
  0
TABLE
  2
LAYER
  5
2
100
AcDbSymbolTable
 70
2
  0
LAYER
  5
50
100
AcDbSymbolTableRecord
100
AcDbLayerTableRecord
  2
0
 70
0
  6
CONTINUOUS
  0
LAYER
  5
51
100
AcDbSymbolTableRecord
100
AcDbLayerTableRecord
  2
图层_1
 70
0
  6
CONTINUOUS
  0
ENDTAB
  0
TABLE
  2
STYLE
  5
3
330
0
100
AcDbSymbolTable
 70
     1
  0
STYLE
  5
11
330
3
100
AcDbSymbolTableRecord
100
AcDbTextStyleTableRecord
  2
STANDARD
 70
     0
 40
0.0
 41
1.0
 50
0.0
 71
     0
 42
2.5
  3
txt
  4

  0
ENDTAB
  0
TABLE
  2
VIEW
  5
6
330
0
100
AcDbSymbolTable
 70
     0
  0
ENDTAB
  0
TABLE
  2
UCS
  5
7
330
0
100
AcDbSymbolTable
 70
     0
  0
ENDTAB
  0
TABLE
  2
APPID
  5
9
330
0
100
AcDbSymbolTable
 70
     2
  0
APPID
  5
12
330
9
100
AcDbSymbolTableRecord
100
AcDbRegAppTableRecord
  2
ACAD
 70
     0
  0
ENDTAB
  0
TABLE
  2
DIMSTYLE
  5
A
330
0
100
AcDbSymbolTable
 70
     1
  0
DIMSTYLE
105
27
330
A
100
AcDbSymbolTableRecord
100
AcDbDimStyleTableRecord
  2
ISO-25
 70
     0
  3

  4

  5

  6

  7

 40
1.0
 41
2.5
 42
0.625
 43
3.75
 44
1.25
 45
0.0
 46
0.0
 47
0.0
 48
0.0
140
2.5
141
2.5
142
0.0
143
0.03937007874016
144
1.0
145
0.0
146
1.0
147
0.625
 71
     0
 72
     0
 73
     0
 74
     0
 75
     0
 76
     0
 77
     1
 78
     8
170
     0
171
     3
172
     1
173
     0
174
     0
175
     0
176
     0
177
     0
178
     0
270
     2
271
     2
272
     2
273
     2
274
     3
340
11
275
     0
280
     0
281
     0
282
     0
283
     0
284
     8
285
     0
286
     0
287
     3
288
     0
  0
ENDTAB
  0
TABLE
  2
BLOCK_RECORD
  5
1
330
0
100
AcDbSymbolTable
 70
     1
  0
BLOCK_RECORD
  5
1F
330
1
100
AcDbSymbolTableRecord
100
AcDbBlockTableRecord
  2
*MODEL_SPACE
  0
BLOCK_RECORD
  5
1B
330
1
100
AcDbSymbolTableRecord
100
AcDbBlockTableRecord
  2
*PAPER_SPACE
  0
ENDTAB
  0
ENDSEC
  0
SECTION
  2
BLOCKS
  0
BLOCK
  5
20
330
1F
100
AcDbEntity
  8
0
100
AcDbBlockBegin
  2
*MODEL_SPACE
 70
     0
 10
0.0
 20
0.0
 30
0.0
  3
*MODEL_SPACE
  1

  0
ENDBLK
  5
21
330
1F
100
AcDbEntity
  8
0
100
AcDbBlockEnd
  0
BLOCK
  5
1C
330
1B
100
AcDbEntity
 67
     1
  8
0
100
AcDbBlockBegin
  2
*PAPER_SPACE
  1

  0
ENDBLK
  5
1D
330
1B
100
AcDbEntity
 67
     1
  8
0
100
AcDbBlockEnd
  0
ENDSEC
  0
SECTION
  2
ENTITIES
  0
SPLINE
  5
100
100
AcDbEntity
  8
图层_1
 62
7
100
AcDbSpline
 70
8
 71
3
 72
8
 73
4
 74
0
 40
0
 40
0
 40
0
 40
0
 40
1
 40
1
 40
1
 40
1
 10
13.838198
 20
289.670596
 30
0.0
 10
14.052687
 20
290.314062
 30
0.0
 10
14.413931
 20
290.635795
 30
0.0
 10
14.921930
 20
290.635795
 30
0.0
  0
SPLINE
  5
101
100
AcDbEntity
  8
图层_1
 62
7
100
AcDbSpline
 70
8
 71
3
 72
8
 73
4
 74
0
 40
0
 40
0
 40
0
 40
0
 40
1
 40
1
 40
1
 40
1
 10
14.921930
 20
290.635795
 30
0.0
 10
15.283174
 20
290.635795
 30
0.0
 10
15.565396
 20
290.489040
 30
0.0
 10
15.768596
 20
290.195529
 30
0.0
  0
SPLINE
  5
102
100
AcDbEntity
  8
图层_1
 62
7
100
AcDbSpline
 70
8
 71
3
 72
8
 73
4
 74
0
 40
0
 40
0
 40
0
 40
0
 40
1
 40
1
 40
1
 40
1
 10
15.768596
 20
290.195529
 30
0.0
 10
15.983084
 20
289.913307
 30
0.0
 10
16.033884
 20
289.597219
 30
0.0
 10
15.920995
 20
289.247264
 30
0.0
  0
LWPOLYLINE
  5
103
100
AcDbEntity
  8
图层_1
 62
7
100
AcDbPolyline
 90
2
 70
0
 10
11.890867
 20
283.659270
 30
0.0
 10
13.838198
 20
289.670596
 30
0.0
  0
SPLINE
  5
104
100
AcDbEntity
  8
图层_1
 62
7
100
AcDbSpline
 70
8
 71
3
 72
8
 73
4
 74
0
 40
0
 40
0
 40
0
 40
0
 40
1
 40
1
 40
1
 40
1
 10
13.922865
 20
283.066604
 30
0.0
 10
13.685798
 20
282.321539
 30
0.0
 10
13.347132
 20
281.774028
 30
0.0
 10
12.906866
 20
281.424073
 30
0.0
  0
SPLINE
  5
105
100
AcDbEntity
  8
图层_1
 62
7
100
AcDbSpline
 70
8
 71
3
 72
8
 73
4
 74
0
 40
0
 40
0
 40
0
 40
0
 40
1
 40
1
 40
1
 40
1
 10
12.906866
 20
281.424073
 30
0.0
 10
12.477889
 20
281.085407
 30
0.0
 10
11.845712
 20
280.916074
 30
0.0
 10
11.010335
 20
280.916074
 30
0.0
  0
LWPOLYLINE
  5
106
100
AcDbEntity
  8
图层_1
 62
7
100
AcDbPolyline
 90
2
 70
0
 10
15.920995
 20
289.247264
 30
0.0
 10
13.922865
 20
283.066604
 30
0.0
  0
SPLINE
  5
107
100
AcDbEntity
  8
图层_1
 62
7
100
AcDbSpline
 70
8
 71
3
 72
8
 73
4
 74
0
 40
0
 40
0
 40
0
 40
0
 40
1
 40
1
 40
1
 40
1
 10
8.876738
 20
280.916074
 30
0.0
 10
8.041360
 20
280.916074
 30
0.0
 10
7.403538
 20
281.085407
 30
0.0
 10
6.963272
 20
281.424073
 30
0.0
  0
SPLINE
  5
108
100
AcDbEntity
  8
图层_1
 62
7
100
AcDbSpline
 70
8
 71
3
 72
8
 73
4
 74
0
 40
0
 40
0
 40
0
 40
0
 40
1
 40
1
 40
1
 40
1
 10
6.963272
 20
281.424073
 30
0.0
 10
6.534295
 20
281.774028
 30
0.0
 10
6.201273
 20
282.321539
 30
0.0
 10
5.964207
 20
283.066604
 30
0.0
  0
LWPOLYLINE
  5
109
100
AcDbEntity
  8
图层_1
 62
7
100
AcDbPolyline
 90
2
 70
0
 10
11.010335
 20
280.916074
 30
0.0
 10
8.876738
 20
280.916074
 30
0.0
  0
SPLINE
  5
10a
100
AcDbEntity
  8
图层_1
 62
7
100
AcDbSpline
 70
8
 71
3
 72
8
 73
4
 74
0
 40
0
 40
0
 40
0
 40
0
 40
1
 40
1
 40
1
 40
1
 10
3.966076
 20
289.247264
 30
0.0
 10
3.853187
 20
289.597219
 30
0.0
 10
3.898343
 20
289.913307
 30
0.0
 10
4.101542
 20
290.195529
 30
0.0
  0
SPLINE
  5
10b
100
AcDbEntity
  8
图层_1
 62
7
100
AcDbSpline
 70
8
 71
3
 72
8
 73
4
 74
0
 40
0
 40
0
 40
0
 40
0
 40
1
 40
1
 40
1
 40
1
 10
4.101542
 20
290.195529
 30
0.0
 10
4.316031
 20
290.489040
 30
0.0
 10
4.603897
 20
290.635795
 30
0.0
 10
4.965141
 20
290.635795
 30
0.0
  0
SPLINE
  5
10c
100
AcDbEntity
  8
图层_1
 62
7
100
AcDbSpline
 70
8
 71
3
 72
8
 73
4
 74
0
 40
0
 40
0
 40
0
 40
0
 40
1
 40
1
 40
1
 40
1
 10
4.965141
 20
290.635795
 30
0.0
 10
5.473141
 20
290.635795
 30
0.0
 10
5.834385
 20
290.314062
 30
0.0
 10
6.048873
 20
289.670596
 30
0.0
  0
LWPOLYLINE
  5
10d
100
AcDbEntity
  8
图层_1
 62
7
100
AcDbPolyline
 90
2
 70
0
 10
5.964207
 20
283.066604
 30
0.0
 10
3.966076
 20
289.247264
 30
0.0
  0
SPLINE
  5
10e
100
AcDbEntity
  8
图层_1
 62
7
100
AcDbSpline
 70
8
 71
3
 72
8
 73
4
 74
0
 40
0
 40
0
 40
0
 40
0
 40
1
 40
1
 40
1
 40
1
 10
7.996204
 20
283.659270
 30
0.0
 10
8.086515
 20
283.365760
 30
0.0
 10
8.216338
 20
283.156915
 30
0.0
 10
8.385671
 20
283.032738
 30
0.0
  0
SPLINE
  5
10f
100
AcDbEntity
  8
图层_1
 62
7
100
AcDbSpline
 70
8
 71
3
 72
8
 73
4
 74
0
 40
0
 40
0
 40
0
 40
0
 40
1
 40
1
 40
1
 40
1
 10
8.385671
 20
283.032738
 30
0.0
 10
8.555005
 20
282.908560
 30
0.0
 10
8.780782
 20
282.846471
 30
0.0
 10
9.063004
 20
282.846471
 30
0.0
  0
LWPOLYLINE
  5
110
100
AcDbEntity
  8
图层_1
 62
7
100
AcDbPolyline
 90
2
 70
0
 10
6.048873
 20
289.670596
 30
0.0
 10
7.996204
 20
283.659270
 30
0.0
  0
SPLINE
  5
111
100
AcDbEntity
  8
图层_1
 62
7
100
AcDbSpline
 70
8
 71
3
 72
8
 73
4
 74
0
 40
0
 40
0
 40
0
 40
0
 40
1
 40
1
 40
1
 40
1
 10
10.824068
 20
282.846471
 30
0.0
 10
11.106290
 20
282.846471
 30
0.0
 10
11.332068
 20
282.908560
 30
0.0
 10
11.501401
 20
283.032738
 30
0.0
  0
SPLINE
  5
112
100
AcDbEntity
  8
图层_1
 62
7
100
AcDbSpline
 70
8
 71
3
 72
8
 73
4
 74
0
 40
0
 40
0
 40
0
 40
0
 40
1
 40
1
 40
1
 40
1
 10
11.501401
 20
283.032738
 30
0.0
 10
11.670734
 20
283.156915
 30
0.0
 10
11.800556
 20
283.365760
 30
0.0
 10
11.890867
 20
283.659270
 30
0.0
  0
LWPOLYLINE
  5
113
100
AcDbEntity
  8
图层_1
 62
7
100
AcDbPolyline
 90
2
 70
0
 10
9.063004
 20
282.846471
 30
0.0
 10
10.824068
 20
282.846471
 30
0.0
  0
LWPOLYLINE
  5
114
100
AcDbEntity
  8
图层_1
 62
7
100
AcDbPolyline
 90
1
 70
1
 10
11.890867
 20
283.659270
 30
0.0
  0
SPLINE
  5
115
100
AcDbEntity
  8
图层_1
 62
7
100
AcDbSpline
 70
8
 71
3
 72
8
 73
4
 74
0
 40
0
 40
0
 40
0
 40
0
 40
1
 40
1
 40
1
 40
1
 10
21.337536
 20
280.916074
 30
0.0
 10
19.903849
 20
280.916074
 30
0.0
 10
18.870917
 20
281.232162
 30
0.0
 10
18.238740
 20
281.864339
 30
0.0
  0
SPLINE
  5
116
100
AcDbEntity
  8
图层_1
 62
7
100
AcDbSpline
 70
8
 71
3
 72
8
 73
4
 74
0
 40
0
 40
0
 40
0
 40
0
 40
1
 40
1
 40
1
 40
1
 10
18.238740
 20
281.864339
 30
0.0
 10
17.606563
 20
282.496516
 30
0.0
 10
17.290474
 20
283.529448
 30
0.0
 10
17.290474
 20
284.963135
 30
0.0
  0
LWPOLYLINE
  5
117
100
AcDbEntity
  8
图层_1
 62
7
100
AcDbPolyline
 90
2
 70
0
 10
24.470199
 20
280.916074
 30
0.0
 10
21.337536
 20
280.916074
 30
0.0
  0
SPLINE
  5
118
100
AcDbEntity
  8
图层_1
 62
7
100
AcDbSpline
 70
8
 71
3
 72
8
 73
4
 74
0
 40
0
 40
0
 40
0
 40
0
 40
1
 40
1
 40
1
 40
1
 10
17.290474
 20
286.351667
 30
0.0
 10
17.290474
 20
287.785354
 30
0.0
 10
17.606563
 20
288.818286
 30
0.0
 10
18.238740
 20
289.450463
 30
0.0
  0
SPLINE
  5
119
100
AcDbEntity
  8
图层_1
 62
7
100
AcDbSpline
 70
8
 71
3
 72
8
 73
4
 74
0
 40
0
 40
0
 40
0
 40
0
 40
1
 40
1
 40
1
 40
1
 10
18.238740
 20
289.450463
 30
0.0
 10
18.870917
 20
290.082640
 30
0.0
 10
19.903849
 20
290.398729
 30
0.0
 10
21.337536
 20
290.398729
 30
0.0
  0
LWPOLYLINE
  5
11a
100
AcDbEntity
  8
图层_1
 62
7
100
AcDbPolyline
 90
2
 70
0
 10
17.290474
 20
284.963135
 30
0.0
 10
17.290474
 20
286.351667
 30
0.0
  0
SPLINE
  5
11b
100
AcDbEntity
  8
图层_1
 62
7
100
AcDbSpline
 70
8
 71
3
 72
8
 73
4
 74
0
 40
0
 40
0
 40
0
 40
0
 40
1
 40
1
 40
1
 40
1
 10
24.470199
 20
290.398729
 30
0.0
 10
25.903886
 20
290.398729
 30
0.0
 10
26.936818
 20
290.082640
 30
0.0
 10
27.568995
 20
289.450463
 30
0.0
  0
SPLINE
  5
11c
100
AcDbEntity
  8
图层_1
 62
7
100
AcDbSpline
 70
8
 71
3
 72
8
 73
4
 74
0
 40
0
 40
0
 40
0
 40
0
 40
1
 40
1
 40
1
 40
1
 10
27.568995
 20
289.450463
 30
0.0
 10
28.201172
 20
288.818286
 30
0.0
 10
28.517260
 20
287.785354
 30
0.0
 10
28.517260
 20
286.351667
 30
0.0
  0
LWPOLYLINE
  5
11d
100
AcDbEntity
  8
图层_1
 62
7
100
AcDbPolyline
 90
2
 70
0
 10
21.337536
 20
290.398729
 30
0.0
 10
24.470199
 20
290.398729
 30
0.0
  0
SPLINE
  5
11e
100
AcDbEntity
  8
图层_1
 62
7
100
AcDbSpline
 70
8
 71
3
 72
8
 73
4
 74
0
 40
0
 40
0
 40
0
 40
0
 40
1
 40
1
 40
1
 40
1
 10
28.517260
 20
284.963135
 30
0.0
 10
28.517260
 20
283.529448
 30
0.0
 10
28.201172
 20
282.496516
 30
0.0
 10
27.568995
 20
281.864339
 30
0.0
  0
SPLINE
  5
11f
100
AcDbEntity
  8
图层_1
 62
7
100
AcDbSpline
 70
8
 71
3
 72
8
 73
4
 74
0
 40
0
 40
0
 40
0
 40
0
 40
1
 40
1
 40
1
 40
1
 10
27.568995
 20
281.864339
 30
0.0
 10
26.936818
 20
281.232162
 30
0.0
 10
25.903886
 20
280.916074
 30
0.0
 10
24.470199
 20
280.916074
 30
0.0
  0
LWPOLYLINE
  5
120
100
AcDbEntity
  8
图层_1
 62
7
100
AcDbPolyline
 90
2
 70
0
 10
28.517260
 20
286.351667
 30
0.0
 10
28.517260
 20
284.963135
 30
0.0
  0
LWPOLYLINE
  5
121
100
AcDbEntity
  8
图层_1
 62
7
100
AcDbPolyline
 90
1
 70
1
 10
24.470199
 20
280.916074
 30
0.0
  0
SPLINE
  5
122
100
AcDbEntity
  8
图层_1
 62
7
100
AcDbSpline
 70
8
 71
3
 72
8
 73
4
 74
0
 40
0
 40
0
 40
0
 40
0
 40
1
 40
1
 40
1
 40
1
 10
24.385532
 20
282.846471
 30
0.0
 10
25.096731
 20
282.846471
 30
0.0
 10
25.610375
 20
283.004516
 30
0.0
 10
25.926463
 20
283.320604
 30
0.0
  0
SPLINE
  5
123
100
AcDbEntity
  8
图层_1
 62
7
100
AcDbSpline
 70
8
 71
3
 72
8
 73
4
 74
0
 40
0
 40
0
 40
0
 40
0
 40
1
 40
1
 40
1
 40
1
 10
25.926463
 20
283.320604
 30
0.0
 10
26.242552
 20
283.636693
 30
0.0
 10
26.400596
 20
284.144692
 30
0.0
 10
26.400596
 20
284.844602
 30
0.0
  0
LWPOLYLINE
  5
124
100
AcDbEntity
  8
图层_1
 62
7
100
AcDbPolyline
 90
2
 70
0
 10
21.422202
 20
282.846471
 30
0.0
 10
24.385532
 20
282.846471
 30
0.0
  0
SPLINE
  5
125
100
AcDbEntity
  8
图层_1
 62
7
100
AcDbSpline
 70
8
 71
3
 72
8
 73
4
 74
0
 40
0
 40
0
 40
0
 40
0
 40
1
 40
1
 40
1
 40
1
 10
26.400596
 20
286.470200
 30
0.0
 10
26.400596
 20
287.170111
 30
0.0
 10
26.242552
 20
287.678110
 30
0.0
 10
25.926463
 20
287.994199
 30
0.0
  0
SPLINE
  5
126
100
AcDbEntity
  8
图层_1
 62
7
100
AcDbSpline
 70
8
 71
3
 72
8
 73
4
 74
0
 40
0
 40
0
 40
0
 40
0
 40
1
 40
1
 40
1
 40
1
 10
25.926463
 20
287.994199
 30
0.0
 10
25.610375
 20
288.310287
 30
0.0
 10
25.096731
 20
288.468331
 30
0.0
 10
24.385532
 20
288.468331
 30
0.0
  0
LWPOLYLINE
  5
127
100
AcDbEntity
  8
图层_1
 62
7
100
AcDbPolyline
 90
2
 70
0
 10
26.400596
 20
284.844602
 30
0.0
 10
26.400596
 20
286.470200
 30
0.0
  0
SPLINE
  5
128
100
AcDbEntity
  8
图层_1
 62
7
100
AcDbSpline
 70
8
 71
3
 72
8
 73
4
 74
0
 40
0
 40
0
 40
0
 40
0
 40
1
 40
1
 40
1
 40
1
 10
21.422202
 20
288.468331
 30
0.0
 10
20.711003
 20
288.468331
 30
0.0
 10
20.197360
 20
288.310287
 30
0.0
 10
19.881271
 20
287.994199
 30
0.0
  0
SPLINE
  5
129
100
AcDbEntity
  8
图层_1
 62
7
100
AcDbSpline
 70
8
 71
3
 72
8
 73
4
 74
0
 40
0
 40
0
 40
0
 40
0
 40
1
 40
1
 40
1
 40
1
 10
19.881271
 20
287.994199
 30
0.0
 10
19.565183
 20
287.678110
 30
0.0
 10
19.407138
 20
287.170111
 30
0.0
 10
19.407138
 20
286.470200
 30
0.0
  0
LWPOLYLINE
  5
12a
100
AcDbEntity
  8
图层_1
 62
7
100
AcDbPolyline
 90
2
 70
0
 10
24.385532
 20
288.468331
 30
0.0
 10
21.422202
 20
288.468331
 30
0.0
  0
SPLINE
  5
12b
100
AcDbEntity
  8
图层_1
 62
7
100
AcDbSpline
 70
8
 71
3
 72
8
 73
4
 74
0
 40
0
 40
0
 40
0
 40
0
 40
1
 40
1
 40
1
 40
1
 10
19.407138
 20
284.844602
 30
0.0
 10
19.407138
 20
284.144692
 30
0.0
 10
19.565183
 20
283.636693
 30
0.0
 10
19.881271
 20
283.320604
 30
0.0
  0
SPLINE
  5
12c
100
AcDbEntity
  8
图层_1
 62
7
100
AcDbSpline
 70
8
 71
3
 72
8
 73
4
 74
0
 40
0
 40
0
 40
0
 40
0
 40
1
 40
1
 40
1
 40
1
 10
19.881271
 20
283.320604
 30
0.0
 10
20.197360
 20
283.004516
 30
0.0
 10
20.711003
 20
282.846471
 30
0.0
 10
21.422202
 20
282.846471
 30
0.0
  0
LWPOLYLINE
  5
12d
100
AcDbEntity
  8
图层_1
 62
7
100
AcDbPolyline
 90
2
 70
0
 10
19.407138
 20
286.470200
 30
0.0
 10
19.407138
 20
284.844602
 30
0.0
  0
LWPOLYLINE
  5
12e
100
AcDbEntity
  8
图层_1
 62
7
100
AcDbPolyline
 90
1
 70
1
 10
21.422202
 20
282.846471
 30
0.0
  0
SPLINE
  5
12f
100
AcDbEntity
  8
图层_1
 62
7
100
AcDbSpline
 70
8
 71
3
 72
8
 73
4
 74
0
 40
0
 40
0
 40
0
 40
0
 40
1
 40
1
 40
1
 40
1
 10
33.205684
 20
281.847406
 30
0.0
 10
33.205684
 20
281.520029
 30
0.0
 10
33.115373
 20
281.243451
 30
0.0
 10
32.934751
 20
281.017674
 30
0.0
  0
SPLINE
  5
130
100
AcDbEntity
  8
图层_1
 62
7
100
AcDbSpline
 70
8
 71
3
 72
8
 73
4
 74
0
 40
0
 40
0
 40
0
 40
0
 40
1
 40
1
 40
1
 40
1
 10
32.934751
 20
281.017674
 30
0.0
 10
32.754129
 20
280.791896
 30
0.0
 10
32.488841
 20
280.679007
 30
0.0
 10
32.138885
 20
280.679007
 30
0.0
  0
SPLINE
  5
131
100
AcDbEntity
  8
图层_1
 62
7
100
AcDbSpline
 70
8
 71
3
 72
8
 73
4
 74
0
 40
0
 40
0
 40
0
 40
0
 40
1
 40
1
 40
1
 40
1
 10
32.138885
 20
280.679007
 30
0.0
 10
31.800219
 20
280.679007
 30
0.0
 10
31.540575
 20
280.791896
 30
0.0
 10
31.359953
 20
281.017674
 30
0.0
  0
SPLINE
  5
132
100
AcDbEntity
  8
图层_1
 62
7
100
AcDbSpline
 70
8
 71
3
 72
8
 73
4
 74
0
 40
0
 40
0
 40
0
 40
0
 40
1
 40
1
 40
1
 40
1
 10
31.359953
 20
281.017674
 30
0.0
 10
31.179331
 20
281.243451
 30
0.0
 10
31.089020
 20
281.520029
 30
0.0
 10
31.089020
 20
281.847406
 30
0.0
  0
LWPOLYLINE
  5
133
100
AcDbEntity
  8
图层_1
 62
7
100
AcDbPolyline
 90
2
 70
0
 10
33.205684
 20
292.854059
 30
0.0
 10
33.205684
 20
281.847406
 30
0.0
  0
SPLINE
  5
134
100
AcDbEntity
  8
图层_1
 62
7
100
AcDbSpline
 70
8
 71
3
 72
8
 73
4
 74
0
 40
0
 40
0
 40
0
 40
0
 40
1
 40
1
 40
1
 40
1
 10
31.089020
 20
292.854059
 30
0.0
 10
31.089020
 20
293.181436
 30
0.0
 10
31.179331
 20
293.458014
 30
0.0
 10
31.359953
 20
293.683791
 30
0.0
  0
SPLINE
  5
135
100
AcDbEntity
  8
图层_1
 62
7
100
AcDbSpline
 70
8
 71
3
 72
8
 73
4
 74
0
 40
0
 40
0
 40
0
 40
0
 40
1
 40
1
 40
1
 40
1
 10
31.359953
 20
293.683791
 30
0.0
 10
31.540575
 20
293.909569
 30
0.0
 10
31.800219
 20
294.022458
 30
0.0
 10
32.138885
 20
294.022458
 30
0.0
  0
SPLINE
  5
136
100
AcDbEntity
  8
图层_1
 62
7
100
AcDbSpline
 70
8
 71
3
 72
8
 73
4
 74
0
 40
0
 40
0
 40
0
 40
0
 40
1
 40
1
 40
1
 40
1
 10
32.138885
 20
294.022458
 30
0.0
 10
32.488841
 20
294.022458
 30
0.0
 10
32.754129
 20
293.909569
 30
0.0
 10
32.934751
 20
293.683791
 30
0.0
  0
SPLINE
  5
137
100
AcDbEntity
  8
图层_1
 62
7
100
AcDbSpline
 70
8
 71
3
 72
8
 73
4
 74
0
 40
0
 40
0
 40
0
 40
0
 40
1
 40
1
 40
1
 40
1
 10
32.934751
 20
293.683791
 30
0.0
 10
33.115373
 20
293.458014
 30
0.0
 10
33.205684
 20
293.181436
 30
0.0
 10
33.205684
 20
292.854059
 30
0.0
  0
LWPOLYLINE
  5
138
100
AcDbEntity
  8
图层_1
 62
7
100
AcDbPolyline
 90
2
 70
0
 10
31.089020
 20
281.847406
 30
0.0
 10
31.089020
 20
292.854059
 30
0.0
  0
LWPOLYLINE
  5
139
100
AcDbEntity
  8
图层_1
 62
7
100
AcDbPolyline
 90
1
 70
1
 10
33.205684
 20
292.854059
 30
0.0
  0
SPLINE
  5
13a
100
AcDbEntity
  8
图层_1
 62
7
100
AcDbSpline
 70
8
 71
3
 72
8
 73
4
 74
0
 40
0
 40
0
 40
0
 40
0
 40
1
 40
1
 40
1
 40
1
 10
41.534762
 20
280.916074
 30
0.0
 10
40.101075
 20
280.916074
 30
0.0
 10
39.068143
 20
281.232162
 30
0.0
 10
38.435966
 20
281.864339
 30
0.0
  0
SPLINE
  5
13b
100
AcDbEntity
  8
图层_1
 62
7
100
AcDbSpline
 70
8
 71
3
 72
8
 73
4
 74
0
 40
0
 40
0
 40
0
 40
0
 40
1
 40
1
 40
1
 40
1
 10
38.435966
 20
281.864339
 30
0.0
 10
37.803789
 20
282.496516
 30
0.0
 10
37.487701
 20
283.529448
 30
0.0
 10
37.487701
 20
284.963135
 30
0.0
  0
LWPOLYLINE
  5
13c
100
AcDbEntity
  8
图层_1
 62
7
100
AcDbPolyline
 90
2
 70
0
 10
42.787827
 20
280.916074
 30
0.0
 10
41.534762
 20
280.916074
 30
0.0
  0
SPLINE
  5
13d
100
AcDbEntity
  8
图层_1
 62
7
100
AcDbSpline
 70
8
 71
3
 72
8
 73
4
 74
0
 40
0
 40
0
 40
0
 40
0
 40
1
 40
1
 40
1
 40
1
 10
37.487701
 20
287.655532
 30
0.0
 10
37.487701
 20
287.949043
 30
0.0
 10
37.419967
 20
288.157887
 30
0.0
 10
37.284501
 20
288.282065
 30
0.0
  0
SPLINE
  5
13e
100
AcDbEntity
  8
图层_1
 62
7
100
AcDbSpline
 70
8
 71
3
 72
8
 73
4
 74
0
 40
0
 40
0
 40
0
 40
0
 40
1
 40
1
 40
1
 40
1
 10
37.284501
 20
288.282065
 30
0.0
 10
37.160323
 20
288.406242
 30
0.0
 10
36.957124
 20
288.468331
 30
0.0
 10
36.674902
 20
288.468331
 30
0.0
  0
LWPOLYLINE
  5
13f
100
AcDbEntity
  8
图层_1
 62
7
100
AcDbPolyline
 90
2
 70
0
 10
37.487701
 20
284.963135
 30
0.0
 10
37.487701
 20
287.655532
 30
0.0
  0
SPLINE
  5
140
100
AcDbEntity
  8
图层_1
 62
7
100
AcDbSpline
 70
8
 71
3
 72
8
 73
4
 74
0
 40
0
 40
0
 40
0
 40
0
 40
1
 40
1
 40
1
 40
1
 10
35.489570
 20
288.468331
 30
0.0
 10
35.196059
 20
288.468331
 30
0.0
 10
34.942059
 20
288.547353
 30
0.0
 10
34.727571
 20
288.705398
 30
0.0
  0
SPLINE
  5
141
100
AcDbEntity
  8
图层_1
 62
7
100
AcDbSpline
 70
8
 71
3
 72
8
 73
4
 74
0
 40
0
 40
0
 40
0
 40
0
 40
1
 40
1
 40
1
 40
1
 10
34.727571
 20
288.705398
 30
0.0
 10
34.524371
 20
288.874731
 30
0.0
 10
34.422771
 20
289.117442
 30
0.0
 10
34.422771
 20
289.433530
 30
0.0
  0
SPLINE
  5
142
100
AcDbEntity
  8
图层_1
 62
7
100
AcDbSpline
 70
8
 71
3
 72
8
 73
4
 74
0
 40
0
 40
0
 40
0
 40
0
 40
1
 40
1
 40
1
 40
1
 10
34.422771
 20
289.433530
 30
0.0
 10
34.422771
 20
289.749619
 30
0.0
 10
34.524371
 20
289.986685
 30
0.0
 10
34.727571
 20
290.144729
 30
0.0
  0
SPLINE
  5
143
100
AcDbEntity
  8
图层_1
 62
7
100
AcDbSpline
 70
8
 71
3
 72
8
 73
4
 74
0
 40
0
 40
0
 40
0
 40
0
 40
1
 40
1
 40
1
 40
1
 10
34.727571
 20
290.144729
 30
0.0
 10
34.942059
 20
290.314062
 30
0.0
 10
35.196059
 20
290.398729
 30
0.0
 10
35.489570
 20
290.398729
 30
0.0
  0
LWPOLYLINE
  5
144
100
AcDbEntity
  8
图层_1
 62
7
100
AcDbPolyline
 90
2
 70
0
 10
36.674902
 20
288.468331
 30
0.0
 10
35.489570
 20
288.468331
 30
0.0
  0
SPLINE
  5
145
100
AcDbEntity
  8
图层_1
 62
7
100
AcDbSpline
 70
8
 71
3
 72
8
 73
4
 74
0
 40
0
 40
0
 40
0
 40
0
 40
1
 40
1
 40
1
 40
1
 10
36.674902
 20
290.398729
 30
0.0
 10
36.957124
 20
290.398729
 30
0.0
 10
37.160323
 20
290.460818
 30
0.0
 10
37.284501
 20
290.584995
 30
0.0
  0
SPLINE
  5
146
100
AcDbEntity
  8
图层_1
 62
7
100
AcDbSpline
 70
8
 71
3
 72
8
 73
4
 74
0
 40
0
 40
0
 40
0
 40
0
 40
1
 40
1
 40
1
 40
1
 10
37.284501
 20
290.584995
 30
0.0
 10
37.419967
 20
290.709173
 30
0.0
 10
37.487701
 20
290.918017
 30
0.0
 10
37.487701
 20
291.211528
 30
0.0
  0
LWPOLYLINE
  5
147
100
AcDbEntity
  8
图层_1
 62
7
100
AcDbPolyline
 90
2
 70
0
 10
35.489570
 20
290.398729
 30
0.0
 10
36.674902
 20
290.398729
 30
0.0
  0
SPLINE
  5
148
100
AcDbEntity
  8
图层_1
 62
7
100
AcDbSpline
 70
8
 71
3
 72
8
 73
4
 74
0
 40
0
 40
0
 40
0
 40
0
 40
1
 40
1
 40
1
 40
1
 10
37.487701
 20
292.955659
 30
0.0
 10
37.487701
 20
293.283036
 30
0.0
 10
37.578012
 20
293.559614
 30
0.0
 10
37.758634
 20
293.785391
 30
0.0
  0
SPLINE
  5
149
100
AcDbEntity
  8
图层_1
 62
7
100
AcDbSpline
 70
8
 71
3
 72
8
 73
4
 74
0
 40
0
 40
0
 40
0
 40
0
 40
1
 40
1
 40
1
 40
1
 10
37.758634
 20
293.785391
 30
0.0
 10
37.939256
 20
294.011169
 30
0.0
 10
38.198900
 20
294.124057
 30
0.0
 10
38.537566
 20
294.124057
 30
0.0
  0
SPLINE
  5
14a
100
AcDbEntity
  8
图层_1
 62
7
100
AcDbSpline
 70
8
 71
3
 72
8
 73
4
 74
0
 40
0
 40
0
 40
0
 40
0
 40
1
 40
1
 40
1
 40
1
 10
38.537566
 20
294.124057
 30
0.0
 10
38.887521
 20
294.124057
 30
0.0
 10
39.152810
 20
294.011169
 30
0.0
 10
39.333432
 20
293.785391
 30
0.0
  0
SPLINE
  5
14b
100
AcDbEntity
  8
图层_1
 62
7
100
AcDbSpline
 70
8
 71
3
 72
8
 73
4
 74
0
 40
0
 40
0
 40
0
 40
0
 40
1
 40
1
 40
1
 40
1
 10
39.333432
 20
293.785391
 30
0.0
 10
39.514054
 20
293.559614
 30
0.0
 10
39.604365
 20
293.283036
 30
0.0
 10
39.604365
 20
292.955659
 30
0.0
  0
LWPOLYLINE
  5
14c
100
AcDbEntity
  8
图层_1
 62
7
100
AcDbPolyline
 90
2
 70
0
 10
37.487701
 20
291.211528
 30
0.0
 10
37.487701
 20
292.955659
 30
0.0
  0
SPLINE
  5
14d
100
AcDbEntity
  8
图层_1
 62
7
100
AcDbSpline
 70
8
 71
3
 72
8
 73
4
 74
0
 40
0
 40
0
 40
0
 40
0
 40
1
 40
1
 40
1
 40
1
 10
39.604365
 20
291.211528
 30
0.0
 10
39.604365
 20
290.918017
 30
0.0
 10
39.666453
 20
290.709173
 30
0.0
 10
39.790631
 20
290.584995
 30
0.0
  0
SPLINE
  5
14e
100
AcDbEntity
  8
图层_1
 62
7
100
AcDbSpline
 70
8
 71
3
 72
8
 73
4
 74
0
 40
0
 40
0
 40
0
 40
0
 40
1
 40
1
 40
1
 40
1
 10
39.790631
 20
290.584995
 30
0.0
 10
39.914809
 20
290.460818
 30
0.0
 10
40.123653
 20
290.398729
 30
0.0
 10
40.417164
 20
290.398729
 30
0.0
  0
LWPOLYLINE
  5
14f
100
AcDbEntity
  8
图层_1
 62
7
100
AcDbPolyline
 90
2
 70
0
 10
39.604365
 20
292.955659
 30
0.0
 10
39.604365
 20
291.211528
 30
0.0
  0
SPLINE
  5
150
100
AcDbEntity
  8
图层_1
 62
7
100
AcDbSpline
 70
8
 71
3
 72
8
 73
4
 74
0
 40
0
 40
0
 40
0
 40
0
 40
1
 40
1
 40
1
 40
1
 10
42.804761
 20
290.398729
 30
0.0
 10
43.098271
 20
290.398729
 30
0.0
 10
43.346627
 20
290.314062
 30
0.0
 10
43.549826
 20
290.144729
 30
0.0
  0
SPLINE
  5
151
100
AcDbEntity
  8
图层_1
 62
7
100
AcDbSpline
 70
8
 71
3
 72
8
 73
4
 74
0
 40
0
 40
0
 40
0
 40
0
 40
1
 40
1
 40
1
 40
1
 10
43.549826
 20
290.144729
 30
0.0
 10
43.764315
 20
289.986685
 30
0.0
 10
43.871559
 20
289.749619
 30
0.0
 10
43.871559
 20
289.433530
 30
0.0
  0
SPLINE
  5
152
100
AcDbEntity
  8
图层_1
 62
7
100
AcDbSpline
 70
8
 71
3
 72
8
 73
4
 74
0
 40
0
 40
0
 40
0
 40
0
 40
1
 40
1
 40
1
 40
1
 10
43.871559
 20
289.433530
 30
0.0
 10
43.871559
 20
289.117442
 30
0.0
 10
43.764315
 20
288.874731
 30
0.0
 10
43.549826
 20
288.705398
 30
0.0
  0
SPLINE
  5
153
100
AcDbEntity
  8
图层_1
 62
7
100
AcDbSpline
 70
8
 71
3
 72
8
 73
4
 74
0
 40
0
 40
0
 40
0
 40
0
 40
1
 40
1
 40
1
 40
1
 10
43.549826
 20
288.705398
 30
0.0
 10
43.346627
 20
288.547353
 30
0.0
 10
43.098271
 20
288.468331
 30
0.0
 10
42.804761
 20
288.468331
 30
0.0
  0
LWPOLYLINE
  5
154
100
AcDbEntity
  8
图层_1
 62
7
100
AcDbPolyline
 90
2
 70
0
 10
40.417164
 20
290.398729
 30
0.0
 10
42.804761
 20
290.398729
 30
0.0
  0
SPLINE
  5
155
100
AcDbEntity
  8
图层_1
 62
7
100
AcDbSpline
 70
8
 71
3
 72
8
 73
4
 74
0
 40
0
 40
0
 40
0
 40
0
 40
1
 40
1
 40
1
 40
1
 10
40.417164
 20
288.468331
 30
0.0
 10
40.123653
 20
288.468331
 30
0.0
 10
39.914809
 20
288.406242
 30
0.0
 10
39.790631
 20
288.282065
 30
0.0
  0
SPLINE
  5
156
100
AcDbEntity
  8
图层_1
 62
7
100
AcDbSpline
 70
8
 71
3
 72
8
 73
4
 74
0
 40
0
 40
0
 40
0
 40
0
 40
1
 40
1
 40
1
 40
1
 10
39.790631
 20
288.282065
 30
0.0
 10
39.666453
 20
288.157887
 30
0.0
 10
39.604365
 20
287.949043
 30
0.0
 10
39.604365
 20
287.655532
 30
0.0
  0
LWPOLYLINE
  5
157
100
AcDbEntity
  8
图层_1
 62
7
100
AcDbPolyline
 90
2
 70
0
 10
42.804761
 20
288.468331
 30
0.0
 10
40.417164
 20
288.468331
 30
0.0
  0
SPLINE
  5
158
100
AcDbEntity
  8
图层_1
 62
7
100
AcDbSpline
 70
8
 71
3
 72
8
 73
4
 74
0
 40
0
 40
0
 40
0
 40
0
 40
1
 40
1
 40
1
 40
1
 10
39.604365
 20
284.844602
 30
0.0
 10
39.604365
 20
284.144692
 30
0.0
 10
39.762409
 20
283.636693
 30
0.0
 10
40.078497
 20
283.320604
 30
0.0
  0
SPLINE
  5
159
100
AcDbEntity
  8
图层_1
 62
7
100
AcDbSpline
 70
8
 71
3
 72
8
 73
4
 74
0
 40
0
 40
0
 40
0
 40
0
 40
1
 40
1
 40
1
 40
1
 10
40.078497
 20
283.320604
 30
0.0
 10
40.394586
 20
283.004516
 30
0.0
 10
40.908230
 20
282.846471
 30
0.0
 10
41.619429
 20
282.846471
 30
0.0
  0
LWPOLYLINE
  5
15a
100
AcDbEntity
  8
图层_1
 62
7
100
AcDbPolyline
 90
2
 70
0
 10
39.604365
 20
287.655532
 30
0.0
 10
39.604365
 20
284.844602
 30
0.0
  0
SPLINE
  5
15b
100
AcDbEntity
  8
图层_1
 62
7
100
AcDbSpline
 70
8
 71
3
 72
8
 73
4
 74
0
 40
0
 40
0
 40
0
 40
0
 40
1
 40
1
 40
1
 40
1
 10
42.787827
 20
282.846471
 30
0.0
 10
43.081338
 20
282.846471
 30
0.0
 10
43.329693
 20
282.761805
 30
0.0
 10
43.532893
 20
282.592472
 30
0.0
  0
SPLINE
  5
15c
100
AcDbEntity
  8
图层_1
 62
7
100
AcDbSpline
 70
8
 71
3
 72
8
 73
4
 74
0
 40
0
 40
0
 40
0
 40
0
 40
1
 40
1
 40
1
 40
1
 10
43.532893
 20
282.592472
 30
0.0
 10
43.747382
 20
282.434427
 30
0.0
 10
43.854626
 20
282.197361
 30
0.0
 10
43.854626
 20
281.881273
 30
0.0
  0
SPLINE
  5
15d
100
AcDbEntity
  8
图层_1
 62
7
100
AcDbSpline
 70
8
 71
3
 72
8
 73
4
 74
0
 40
0
 40
0
 40
0
 40
0
 40
1
 40
1
 40
1
 40
1
 10
43.854626
 20
281.881273
 30
0.0
 10
43.854626
 20
281.565184
 30
0.0
 10
43.747382
 20
281.322473
 30
0.0
 10
43.532893
 20
281.153140
 30
0.0
  0
SPLINE
  5
15e
100
AcDbEntity
  8
图层_1
 62
7
100
AcDbSpline
 70
8
 71
3
 72
8
 73
4
 74
0
 40
0
 40
0
 40
0
 40
0
 40
1
 40
1
 40
1
 40
1
 10
43.532893
 20
281.153140
 30
0.0
 10
43.329693
 20
280.995096
 30
0.0
 10
43.081338
 20
280.916074
 30
0.0
 10
42.787827
 20
280.916074
 30
0.0
  0
LWPOLYLINE
  5
15f
100
AcDbEntity
  8
图层_1
 62
7
100
AcDbPolyline
 90
2
 70
0
 10
41.619429
 20
282.846471
 30
0.0
 10
42.787827
 20
282.846471
 30
0.0
  0
SPLINE
  5
160
100
AcDbEntity
  8
图层_1
 62
7
100
AcDbSpline
 70
8
 71
3
 72
8
 73
4
 74
0
 40
0
 40
0
 40
0
 40
0
 40
1
 40
1
 40
1
 40
1
 10
47.611715
 20
284.184203
 30
0.0
 10
47.611715
 20
283.292382
 30
0.0
 10
48.198737
 20
282.846471
 30
0.0
 10
49.372780
 20
282.846471
 30
0.0
  0
LWPOLYLINE
  5
161
100
AcDbEntity
  8
图层_1
 62
7
100
AcDbPolyline
 90
1
 70
1
 10
42.787827
 20
280.916074
 30
0.0
  0
SPLINE
  5
162
100
AcDbEntity
  8
图层_1
 62
7
100
AcDbSpline
 70
8
 71
3
 72
8
 73
4
 74
0
 40
0
 40
0
 40
0
 40
0
 40
1
 40
1
 40
1
 40
1
 10
54.909973
 20
282.846471
 30
0.0
 10
55.203483
 20
282.846471
 30
0.0
 10
55.451839
 20
282.761805
 30
0.0
 10
55.655038
 20
282.592472
 30
0.0
  0
SPLINE
  5
163
100
AcDbEntity
  8
图层_1
 62
7
100
AcDbSpline
 70
8
 71
3
 72
8
 73
4
 74
0
 40
0
 40
0
 40
0
 40
0
 40
1
 40
1
 40
1
 40
1
 10
55.655038
 20
282.592472
 30
0.0
 10
55.869527
 20
282.434427
 30
0.0
 10
55.976771
 20
282.197361
 30
0.0
 10
55.976771
 20
281.881273
 30
0.0
  0
SPLINE
  5
164
100
AcDbEntity
  8
图层_1
 62
7
100
AcDbSpline
 70
8
 71
3
 72
8
 73
4
 74
0
 40
0
 40
0
 40
0
 40
0
 40
1
 40
1
 40
1
 40
1
 10
55.976771
 20
281.881273
 30
0.0
 10
55.976771
 20
281.565184
 30
0.0
 10
55.869527
 20
281.322473
 30
0.0
 10
55.655038
 20
281.153140
 30
0.0
  0
SPLINE
  5
165
100
AcDbEntity
  8
图层_1
 62
7
100
AcDbSpline
 70
8
 71
3
 72
8
 73
4
 74
0
 40
0
 40
0
 40
0
 40
0
 40
1
 40
1
 40
1
 40
1
 10
55.655038
 20
281.153140
 30
0.0
 10
55.451839
 20
280.995096
 30
0.0
 10
55.203483
 20
280.916074
 30
0.0
 10
54.909973
 20
280.916074
 30
0.0
  0
LWPOLYLINE
  5
166
100
AcDbEntity
  8
图层_1
 62
7
100
AcDbPolyline
 90
2
 70
0
 10
49.372780
 20
282.846471
 30
0.0
 10
54.909973
 20
282.846471
 30
0.0
  0
SPLINE
  5
167
100
AcDbEntity
  8
图层_1
 62
7
100
AcDbSpline
 70
8
 71
3
 72
8
 73
4
 74
0
 40
0
 40
0
 40
0
 40
0
 40
1
 40
1
 40
1
 40
1
 10
49.474380
 20
280.916074
 30
0.0
 10
48.040692
 20
280.916074
 30
0.0
 10
47.007760
 20
281.232162
 30
0.0
 10
46.375583
 20
281.864339
 30
0.0
  0
SPLINE
  5
168
100
AcDbEntity
  8
图层_1
 62
7
100
AcDbSpline
 70
8
 71
3
 72
8
 73
4
 74
0
 40
0
 40
0
 40
0
 40
0
 40
1
 40
1
 40
1
 40
1
 10
46.375583
 20
281.864339
 30
0.0
 10
45.743406
 20
282.496516
 30
0.0
 10
45.427318
 20
283.529448
 30
0.0
 10
45.427318
 20
284.963135
 30
0.0
  0
LWPOLYLINE
  5
169
100
AcDbEntity
  8
图层_1
 62
7
100
AcDbPolyline
 90
2
 70
0
 10
54.909973
 20
280.916074
 30
0.0
 10
49.474380
 20
280.916074
 30
0.0
  0
SPLINE
  5
16a
100
AcDbEntity
  8
图层_1
 62
7
100
AcDbSpline
 70
8
 71
3
 72
8
 73
4
 74
0
 40
0
 40
0
 40
0
 40
0
 40
1
 40
1
 40
1
 40
1
 10
45.427318
 20
286.351667
 30
0.0
 10
45.427318
 20
287.785354
 30
0.0
 10
45.743406
 20
288.818286
 30
0.0
 10
46.375583
 20
289.450463
 30
0.0
  0
SPLINE
  5
16b
100
AcDbEntity
  8
图层_1
 62
7
100
AcDbSpline
 70
8
 71
3
 72
8
 73
4
 74
0
 40
0
 40
0
 40
0
 40
0
 40
1
 40
1
 40
1
 40
1
 10
46.375583
 20
289.450463
 30
0.0
 10
47.007760
 20
290.082640
 30
0.0
 10
48.040692
 20
290.398729
 30
0.0
 10
49.474380
 20
290.398729
 30
0.0
  0
LWPOLYLINE
  5
16c
100
AcDbEntity
  8
图层_1
 62
7
100
AcDbPolyline
 90
2
 70
0
 10
45.427318
 20
284.963135
 30
0.0
 10
45.427318
 20
286.351667
 30
0.0
  0
SPLINE
  5
16d
100
AcDbEntity
  8
图层_1
 62
7
100
AcDbSpline
 70
8
 71
3
 72
8
 73
4
 74
0
 40
0
 40
0
 40
0
 40
0
 40
1
 40
1
 40
1
 40
1
 10
53.148908
 20
290.398729
 30
0.0
 10
54.074596
 20
290.398729
 30
0.0
 10
54.830951
 20
290.150374
 30
0.0
 10
55.417972
 20
289.653663
 30
0.0
  0
SPLINE
  5
16e
100
AcDbEntity
  8
图层_1
 62
7
100
AcDbSpline
 70
8
 71
3
 72
8
 73
4
 74
0
 40
0
 40
0
 40
0
 40
0
 40
1
 40
1
 40
1
 40
1
 10
55.417972
 20
289.653663
 30
0.0
 10
56.016282
 20
289.156953
 30
0.0
 10
56.315438
 20
288.440109
 30
0.0
 10
56.315438
 20
287.503132
 30
0.0
  0
SPLINE
  5
16f
100
AcDbEntity
  8
图层_1
 62
7
100
AcDbSpline
 70
8
 71
3
 72
8
 73
4
 74
0
 40
0
 40
0
 40
0
 40
0
 40
1
 40
1
 40
1
 40
1
 10
56.315438
 20
287.503132
 30
0.0
 10
56.315438
 20
286.566156
 30
0.0
 10
56.016282
 20
285.843668
 30
0.0
 10
55.417972
 20
285.335668
 30
0.0
  0
SPLINE
  5
170
100
AcDbEntity
  8
图层_1
 62
7
100
AcDbSpline
 70
8
 71
3
 72
8
 73
4
 74
0
 40
0
 40
0
 40
0
 40
0
 40
1
 40
1
 40
1
 40
1
 10
55.417972
 20
285.335668
 30
0.0
 10
54.830951
 20
284.838958
 30
0.0
 10
54.074596
 20
284.590603
 30
0.0
 10
53.148908
 20
284.590603
 30
0.0
  0
LWPOLYLINE
  5
171
100
AcDbEntity
  8
图层_1
 62
7
100
AcDbPolyline
 90
2
 70
0
 10
49.474380
 20
290.398729
 30
0.0
 10
53.148908
 20
290.398729
 30
0.0
  0
SPLINE
  5
172
100
AcDbEntity
  8
图层_1
 62
7
100
AcDbSpline
 70
8
 71
3
 72
8
 73
4
 74
0
 40
0
 40
0
 40
0
 40
0
 40
1
 40
1
 40
1
 40
1
 10
48.018115
 20
284.590603
 30
0.0
 10
47.747182
 20
284.590603
 30
0.0
 10
47.611715
 20
284.455136
 30
0.0
 10
47.611715
 20
284.184203
 30
0.0
  0
LWPOLYLINE
  5
173
100
AcDbEntity
  8
图层_1
 62
7
100
AcDbPolyline
 90
2
 70
0
 10
53.148908
 20
284.590603
 30
0.0
 10
48.018115
 20
284.590603
 30
0.0
  0
LWPOLYLINE
  5
174
100
AcDbEntity
  8
图层_1
 62
7
100
AcDbPolyline
 90
1
 70
1
 10
47.611715
 20
284.184203
 30
0.0
  0
SPLINE
  5
175
100
AcDbEntity
  8
图层_1
 62
7
100
AcDbSpline
 70
8
 71
3
 72
8
 73
4
 74
0
 40
0
 40
0
 40
0
 40
0
 40
1
 40
1
 40
1
 40
1
 10
53.030375
 20
286.521000
 30
0.0
 10
53.369041
 20
286.521000
 30
0.0
 10
53.645619
 20
286.600022
 30
0.0
 10
53.860107
 20
286.758066
 30
0.0
  0
SPLINE
  5
176
100
AcDbEntity
  8
图层_1
 62
7
100
AcDbSpline
 70
8
 71
3
 72
8
 73
4
 74
0
 40
0
 40
0
 40
0
 40
0
 40
1
 40
1
 40
1
 40
1
 10
53.860107
 20
286.758066
 30
0.0
 10
54.085885
 20
286.916111
 30
0.0
 10
54.198774
 20
287.164466
 30
0.0
 10
54.198774
 20
287.503132
 30
0.0
  0
SPLINE
  5
177
100
AcDbEntity
  8
图层_1
 62
7
100
AcDbSpline
 70
8
 71
3
 72
8
 73
4
 74
0
 40
0
 40
0
 40
0
 40
0
 40
1
 40
1
 40
1
 40
1
 10
54.198774
 20
287.503132
 30
0.0
 10
54.198774
 20
288.146598
 30
0.0
 10
53.809307
 20
288.468331
 30
0.0
 10
53.030375
 20
288.468331
 30
0.0
  0
LWPOLYLINE
  5
178
100
AcDbEntity
  8
图层_1
 62
7
100
AcDbPolyline
 90
2
 70
0
 10
48.001181
 20
286.521000
 30
0.0
 10
53.030375
 20
286.521000
 30
0.0
  0
SPLINE
  5
179
100
AcDbEntity
  8
图层_1
 62
7
100
AcDbSpline
 70
8
 71
3
 72
8
 73
4
 74
0
 40
0
 40
0
 40
0
 40
0
 40
1
 40
1
 40
1
 40
1
 10
49.338913
 20
288.468331
 30
0.0
 10
48.176159
 20
288.468331
 30
0.0
 10
47.594782
 20
287.954687
 30
0.0
 10
47.594782
 20
286.927400
 30
0.0
  0
SPLINE
  5
17a
100
AcDbEntity
  8
图层_1
 62
7
100
AcDbSpline
 70
8
 71
3
 72
8
 73
4
 74
0
 40
0
 40
0
 40
0
 40
0
 40
1
 40
1
 40
1
 40
1
 10
47.594782
 20
286.927400
 30
0.0
 10
47.594782
 20
286.656467
 30
0.0
 10
47.730248
 20
286.521000
 30
0.0
 10
48.001181
 20
286.521000
 30
0.0
  0
LWPOLYLINE
  5
17b
100
AcDbEntity
  8
图层_1
 62
7
100
AcDbPolyline
 90
2
 70
0
 10
53.030375
 20
288.468331
 30
0.0
 10
49.338913
 20
288.468331
 30
0.0
  0
LWPOLYLINE
  5
17c
100
AcDbEntity
  8
图层_1
 62
7
100
AcDbPolyline
 90
1
 70
1
 10
48.001181
 20
286.521000
 30
0.0
  0
SPLINE
  5
17d
100
AcDbEntity
  8
图层_1
 62
7
100
AcDbSpline
 70
8
 71
3
 72
8
 73
4
 74
0
 40
0
 40
0
 40
0
 40
0
 40
1
 40
1
 40
1
 40
1
 10
63.171320
 20
284.793802
 30
0.0
 10
62.843943
 20
284.793802
 30
0.0
 10
62.584299
 20
284.748647
 30
0.0
 10
62.392388
 20
284.658336
 30
0.0
  0
SPLINE
  5
17e
100
AcDbEntity
  8
图层_1
 62
7
100
AcDbSpline
 70
8
 71
3
 72
8
 73
4
 74
0
 40
0
 40
0
 40
0
 40
0
 40
1
 40
1
 40
1
 40
1
 10
62.392388
 20
284.658336
 30
0.0
 10
62.211766
 20
284.568025
 30
0.0
 10
61.997277
 20
284.342247
 30
0.0
 10
61.748922
 20
283.981003
 30
0.0
  0
LWPOLYLINE
  5
17f
100
AcDbEntity
  8
图层_1
 62
7
100
AcDbPolyline
 90
2
 70
0
 10
64.034919
 20
284.793802
 30
0.0
 10
63.171320
 20
284.793802
 30
0.0
  0
SPLINE
  5
180
100
AcDbEntity
  8
图层_1
 62
7
100
AcDbSpline
 70
8
 71
3
 72
8
 73
4
 74
0
 40
0
 40
0
 40
0
 40
0
 40
1
 40
1
 40
1
 40
1
 10
60.207991
 20
281.745806
 30
0.0
 10
59.925769
 20
281.339407
 30
0.0
 10
59.699991
 20
281.062829
 30
0.0
 10
59.530658
 20
280.916074
 30
0.0
  0
SPLINE
  5
181
100
AcDbEntity
  8
图层_1
 62
7
100
AcDbSpline
 70
8
 71
3
 72
8
 73
4
 74
0
 40
0
 40
0
 40
0
 40
0
 40
1
 40
1
 40
1
 40
1
 10
59.530658
 20
280.916074
 30
0.0
 10
59.361325
 20
280.758030
 30
0.0
 10
59.158125
 20
280.679007
 30
0.0
 10
58.921059
 20
280.679007
 30
0.0
  0
SPLINE
  5
182
100
AcDbEntity
  8
图层_1
 62
7
100
AcDbSpline
 70
8
 71
3
 72
8
 73
4
 74
0
 40
0
 40
0
 40
0
 40
0
 40
1
 40
1
 40
1
 40
1
 10
58.921059
 20
280.679007
 30
0.0
 10
58.672704
 20
280.679007
 30
0.0
 10
58.435637
 20
280.769318
 30
0.0
 10
58.209860
 20
280.949940
 30
0.0
  0
SPLINE
  5
183
100
AcDbEntity
  8
图层_1
 62
7
100
AcDbSpline
 70
8
 71
3
 72
8
 73
4
 74
0
 40
0
 40
0
 40
0
 40
0
 40
1
 40
1
 40
1
 40
1
 10
58.209860
 20
280.949940
 30
0.0
 10
57.984082
 20
281.141851
 30
0.0
 10
57.871194
 20
281.378918
 30
0.0
 10
57.871194
 20
281.661140
 30
0.0
  0
SPLINE
  5
184
100
AcDbEntity
  8
图层_1
 62
7
100
AcDbSpline
 70
8
 71
3
 72
8
 73
4
 74
0
 40
0
 40
0
 40
0
 40
0
 40
1
 40
1
 40
1
 40
1
 10
57.871194
 20
281.661140
 30
0.0
 10
57.871194
 20
281.864339
 30
0.0
 10
57.944571
 20
282.073183
 30
0.0
 10
58.091327
 20
282.287672
 30
0.0
  0
LWPOLYLINE
  5
185
100
AcDbEntity
  8
图层_1
 62
7
100
AcDbPolyline
 90
2
 70
0
 10
61.748922
 20
283.981003
 30
0.0
 10
60.207991
 20
281.745806
 30
0.0
  0
SPLINE
  5
186
100
AcDbEntity
  8
图层_1
 62
7
100
AcDbSpline
 70
8
 71
3
 72
8
 73
4
 74
0
 40
0
 40
0
 40
0
 40
0
 40
1
 40
1
 40
1
 40
1
 10
60.038657
 20
285.098602
 30
0.0
 10
60.196702
 20
285.313091
 30
0.0
 10
60.275724
 20
285.499357
 30
0.0
 10
60.275724
 20
285.657401
 30
0.0
  0
SPLINE
  5
187
100
AcDbEntity
  8
图层_1
 62
7
100
AcDbSpline
 70
8
 71
3
 72
8
 73
4
 74
0
 40
0
 40
0
 40
0
 40
0
 40
1
 40
1
 40
1
 40
1
 10
60.275724
 20
285.657401
 30
0.0
 10
60.275724
 20
285.815445
 30
0.0
 10
60.196702
 20
286.013001
 30
0.0
 10
60.038657
 20
286.250067
 30
0.0
  0
LWPOLYLINE
  5
188
100
AcDbEntity
  8
图层_1
 62
7
100
AcDbPolyline
 90
2
 70
0
 10
58.091327
 20
282.287672
 30
0.0
 10
60.038657
 20
285.098602
 30
0.0
  0
SPLINE
  5
189
100
AcDbEntity
  8
图层_1
 62
7
100
AcDbSpline
 70
8
 71
3
 72
8
 73
4
 74
0
 40
0
 40
0
 40
0
 40
0
 40
1
 40
1
 40
1
 40
1
 10
58.243726
 20
289.027131
 30
0.0
 10
58.096971
 20
289.241619
 30
0.0
 10
58.023593
 20
289.450463
 30
0.0
 10
58.023593
 20
289.653663
 30
0.0
  0
SPLINE
  5
18a
100
AcDbEntity
  8
图层_1
 62
7
100
AcDbSpline
 70
8
 71
3
 72
8
 73
4
 74
0
 40
0
 40
0
 40
0
 40
0
 40
1
 40
1
 40
1
 40
1
 10
58.023593
 20
289.653663
 30
0.0
 10
58.023593
 20
289.935885
 30
0.0
 10
58.136482
 20
290.167307
 30
0.0
 10
58.362260
 20
290.347929
 30
0.0
  0
SPLINE
  5
18b
100
AcDbEntity
  8
图层_1
 62
7
100
AcDbSpline
 70
8
 71
3
 72
8
 73
4
 74
0
 40
0
 40
0
 40
0
 40
0
 40
1
 40
1
 40
1
 40
1
 10
58.362260
 20
290.347929
 30
0.0
 10
58.588037
 20
290.539840
 30
0.0
 10
58.825103
 20
290.635795
 30
0.0
 10
59.073459
 20
290.635795
 30
0.0
  0
SPLINE
  5
18c
100
AcDbEntity
  8
图层_1
 62
7
100
AcDbSpline
 70
8
 71
3
 72
8
 73
4
 74
0
 40
0
 40
0
 40
0
 40
0
 40
1
 40
1
 40
1
 40
1
 10
59.073459
 20
290.635795
 30
0.0
 10
59.321814
 20
290.635795
 30
0.0
 10
59.530658
 20
290.556773
 30
0.0
 10
59.699991
 20
290.398729
 30
0.0
  0
SPLINE
  5
18d
100
AcDbEntity
  8
图层_1
 62
7
100
AcDbSpline
 70
8
 71
3
 72
8
 73
4
 74
0
 40
0
 40
0
 40
0
 40
0
 40
1
 40
1
 40
1
 40
1
 10
59.699991
 20
290.398729
 30
0.0
 10
59.880613
 20
290.240685
 30
0.0
 10
60.100746
 20
289.964107
 30
0.0
 10
60.360390
 20
289.568997
 30
0.0
  0
LWPOLYLINE
  5
18e
100
AcDbEntity
  8
图层_1
 62
7
100
AcDbPolyline
 90
2
 70
0
 10
60.038657
 20
286.250067
 30
0.0
 10
58.243726
 20
289.027131
 30
0.0
  0
SPLINE
  5
18f
100
AcDbEntity
  8
图层_1
 62
7
100
AcDbSpline
 70
8
 71
3
 72
8
 73
4
 74
0
 40
0
 40
0
 40
0
 40
0
 40
1
 40
1
 40
1
 40
1
 10
61.698122
 20
287.536999
 30
0.0
 10
61.946477
 20
287.175755
 30
0.0
 10
62.160966
 20
286.949977
 30
0.0
 10
62.341588
 20
286.859666
 30
0.0
  0
SPLINE
  5
190
100
AcDbEntity
  8
图层_1
 62
7
100
AcDbSpline
 70
8
 71
3
 72
8
 73
4
 74
0
 40
0
 40
0
 40
0
 40
0
 40
1
 40
1
 40
1
 40
1
 10
62.341588
 20
286.859666
 30
0.0
 10
62.533499
 20
286.769355
 30
0.0
 10
62.793143
 20
286.724200
 30
0.0
 10
63.120520
 20
286.724200
 30
0.0
  0
LWPOLYLINE
  5
191
100
AcDbEntity
  8
图层_1
 62
7
100
AcDbPolyline
 90
2
 70
0
 10
60.360390
 20
289.568997
 30
0.0
 10
61.698122
 20
287.536999
 30
0.0
  0
SPLINE
  5
192
100
AcDbEntity
  8
图层_1
 62
7
100
AcDbSpline
 70
8
 71
3
 72
8
 73
4
 74
0
 40
0
 40
0
 40
0
 40
0
 40
1
 40
1
 40
1
 40
1
 10
64.085719
 20
286.724200
 30
0.0
 10
64.413096
 20
286.724200
 30
0.0
 10
64.667096
 20
286.769355
 30
0.0
 10
64.847718
 20
286.859666
 30
0.0
  0
SPLINE
  5
193
100
AcDbEntity
  8
图层_1
 62
7
100
AcDbSpline
 70
8
 71
3
 72
8
 73
4
 74
0
 40
0
 40
0
 40
0
 40
0
 40
1
 40
1
 40
1
 40
1
 10
64.847718
 20
286.859666
 30
0.0
 10
65.039629
 20
286.949977
 30
0.0
 10
65.259762
 20
287.175755
 30
0.0
 10
65.508117
 20
287.536999
 30
0.0
  0
LWPOLYLINE
  5
194
100
AcDbEntity
  8
图层_1
 62
7
100
AcDbPolyline
 90
2
 70
0
 10
63.120520
 20
286.724200
 30
0.0
 10
64.085719
 20
286.724200
 30
0.0
  0
SPLINE
  5
195
100
AcDbEntity
  8
图层_1
 62
7
100
AcDbSpline
 70
8
 71
3
 72
8
 73
4
 74
0
 40
0
 40
0
 40
0
 40
0
 40
1
 40
1
 40
1
 40
1
 10
66.845849
 20
289.568997
 30
0.0
 10
67.105493
 20
289.964107
 30
0.0
 10
67.319982
 20
290.240685
 30
0.0
 10
67.489315
 20
290.398729
 30
0.0
  0
SPLINE
  5
196
100
AcDbEntity
  8
图层_1
 62
7
100
AcDbSpline
 70
8
 71
3
 72
8
 73
4
 74
0
 40
0
 40
0
 40
0
 40
0
 40
1
 40
1
 40
1
 40
1
 10
67.489315
 20
290.398729
 30
0.0
 10
67.669937
 20
290.556773
 30
0.0
 10
67.884425
 20
290.635795
 30
0.0
 10
68.132781
 20
290.635795
 30
0.0
  0
SPLINE
  5
197
100
AcDbEntity
  8
图层_1
 62
7
100
AcDbSpline
 70
8
 71
3
 72
8
 73
4
 74
0
 40
0
 40
0
 40
0
 40
0
 40
1
 40
1
 40
1
 40
1
 10
68.132781
 20
290.635795
 30
0.0
 10
68.381136
 20
290.635795
 30
0.0
 10
68.618202
 20
290.539840
 30
0.0
 10
68.843980
 20
290.347929
 30
0.0
  0
SPLINE
  5
198
100
AcDbEntity
  8
图层_1
 62
7
100
AcDbSpline
 70
8
 71
3
 72
8
 73
4
 74
0
 40
0
 40
0
 40
0
 40
0
 40
1
 40
1
 40
1
 40
1
 10
68.843980
 20
290.347929
 30
0.0
 10
69.069757
 20
290.167307
 30
0.0
 10
69.182646
 20
289.935885
 30
0.0
 10
69.182646
 20
289.653663
 30
0.0
  0
SPLINE
  5
199
100
AcDbEntity
  8
图层_1
 62
7
100
AcDbSpline
 70
8
 71
3
 72
8
 73
4
 74
0
 40
0
 40
0
 40
0
 40
0
 40
1
 40
1
 40
1
 40
1
 10
69.182646
 20
289.653663
 30
0.0
 10
69.182646
 20
289.450463
 30
0.0
 10
69.109268
 20
289.241619
 30
0.0
 10
68.962513
 20
289.027131
 30
0.0
  0
LWPOLYLINE
  5
19a
100
AcDbEntity
  8
图层_1
 62
7
100
AcDbPolyline
 90
2
 70
0
 10
65.508117
 20
287.536999
 30
0.0
 10
66.845849
 20
289.568997
 30
0.0
  0
SPLINE
  5
19b
100
AcDbEntity
  8
图层_1
 62
7
100
AcDbSpline
 70
8
 71
3
 72
8
 73
4
 74
0
 40
0
 40
0
 40
0
 40
0
 40
1
 40
1
 40
1
 40
1
 10
67.167582
 20
286.250067
 30
0.0
 10
67.020826
 20
286.013001
 30
0.0
 10
66.947449
 20
285.815445
 30
0.0
 10
66.947449
 20
285.657401
 30
0.0
  0
SPLINE
  5
19c
100
AcDbEntity
  8
图层_1
 62
7
100
AcDbSpline
 70
8
 71
3
 72
8
 73
4
 74
0
 40
0
 40
0
 40
0
 40
0
 40
1
 40
1
 40
1
 40
1
 10
66.947449
 20
285.657401
 30
0.0
 10
66.947449
 20
285.499357
 30
0.0
 10
67.020826
 20
285.313091
 30
0.0
 10
67.167582
 20
285.098602
 30
0.0
  0
LWPOLYLINE
  5
19d
100
AcDbEntity
  8
图层_1
 62
7
100
AcDbPolyline
 90
2
 70
0
 10
68.962513
 20
289.027131
 30
0.0
 10
67.167582
 20
286.250067
 30
0.0
  0
SPLINE
  5
19e
100
AcDbEntity
  8
图层_1
 62
7
100
AcDbSpline
 70
8
 71
3
 72
8
 73
4
 74
0
 40
0
 40
0
 40
0
 40
0
 40
1
 40
1
 40
1
 40
1
 10
69.114913
 20
282.287672
 30
0.0
 10
69.261668
 20
282.073183
 30
0.0
 10
69.335046
 20
281.864339
 30
0.0
 10
69.335046
 20
281.661140
 30
0.0
  0
SPLINE
  5
19f
100
AcDbEntity
  8
图层_1
 62
7
100
AcDbSpline
 70
8
 71
3
 72
8
 73
4
 74
0
 40
0
 40
0
 40
0
 40
0
 40
1
 40
1
 40
1
 40
1
 10
69.335046
 20
281.661140
 30
0.0
 10
69.335046
 20
281.378918
 30
0.0
 10
69.222157
 20
281.141851
 30
0.0
 10
68.996380
 20
280.949940
 30
0.0
  0
SPLINE
  5
1a0
100
AcDbEntity
  8
图层_1
 62
7
100
AcDbSpline
 70
8
 71
3
 72
8
 73
4
 74
0
 40
0
 40
0
 40
0
 40
0
 40
1
 40
1
 40
1
 40
1
 10
68.996380
 20
280.949940
 30
0.0
 10
68.770602
 20
280.769318
 30
0.0
 10
68.533536
 20
280.679007
 30
0.0
 10
68.285180
 20
280.679007
 30
0.0
  0
SPLINE
  5
1a1
100
AcDbEntity
  8
图层_1
 62
7
100
AcDbSpline
 70
8
 71
3
 72
8
 73
4
 74
0
 40
0
 40
0
 40
0
 40
0
 40
1
 40
1
 40
1
 40
1
 10
68.285180
 20
280.679007
 30
0.0
 10
68.048114
 20
280.679007
 30
0.0
 10
67.844914
 20
280.758030
 30
0.0
 10
67.675581
 20
280.916074
 30
0.0
  0
SPLINE
  5
1a2
100
AcDbEntity
  8
图层_1
 62
7
100
AcDbSpline
 70
8
 71
3
 72
8
 73
4
 74
0
 40
0
 40
0
 40
0
 40
0
 40
1
 40
1
 40
1
 40
1
 10
67.675581
 20
280.916074
 30
0.0
 10
67.506248
 20
281.062829
 30
0.0
 10
67.280471
 20
281.339407
 30
0.0
 10
66.998249
 20
281.745806
 30
0.0
  0
LWPOLYLINE
  5
1a3
100
AcDbEntity
  8
图层_1
 62
7
100
AcDbPolyline
 90
2
 70
0
 10
67.167582
 20
285.098602
 30
0.0
 10
69.114913
 20
282.287672
 30
0.0
  0
SPLINE
  5
1a4
100
AcDbEntity
  8
图层_1
 62
7
100
AcDbSpline
 70
8
 71
3
 72
8
 73
4
 74
0
 40
0
 40
0
 40
0
 40
0
 40
1
 40
1
 40
1
 40
1
 10
65.457317
 20
283.981003
 30
0.0
 10
65.208962
 20
284.342247
 30
0.0
 10
64.988829
 20
284.568025
 30
0.0
 10
64.796918
 20
284.658336
 30
0.0
  0
SPLINE
  5
1a5
100
AcDbEntity
  8
图层_1
 62
7
100
AcDbSpline
 70
8
 71
3
 72
8
 73
4
 74
0
 40
0
 40
0
 40
0
 40
0
 40
1
 40
1
 40
1
 40
1
 10
64.796918
 20
284.658336
 30
0.0
 10
64.616296
 20
284.748647
 30
0.0
 10
64.362296
 20
284.793802
 30
0.0
 10
64.034919
 20
284.793802
 30
0.0
  0
LWPOLYLINE
  5
1a6
100
AcDbEntity
  8
图层_1
 62
7
100
AcDbPolyline
 90
2
 70
0
 10
66.998249
 20
281.745806
 30
0.0
 10
65.457317
 20
283.981003
 30
0.0
  0
LWPOLYLINE
  5
1a7
100
AcDbEntity
  8
图层_1
 62
7
100
AcDbPolyline
 90
1
 70
1
 10
64.034919
 20
284.793802
 30
0.0
  0
ENDSEC
  0
SECTION
  2
OBJECTS
  0
DICTIONARY
  5
C
330
0
100
AcDbDictionary
  3
ACAD_GROUP
350
D
  3
ACAD_MLINESTYLE
350
17
  0
DICTIONARY
  5
D
330
C
100
AcDbDictionary
  0
DICTIONARY
  5
1A
330
C
100
AcDbDictionary
  0
DICTIONARY
  5
17
330
C
100
AcDbDictionary
  3
STANDARD
350
18
  0
DICTIONARY
  5
19
330
C
100
AcDbDictionary
  0
ENDSEC
  0
EOF
