  0
SECTION
  2
HEADER
  9
$ACADVER
  1
AC1014
  9
$HANDSEED
  5
FFFF
  9
$MEASUREMENT
 70
     1
  0
ENDSEC
  0
SECTION
  2
TABLES
  0
TABLE
  2
VPORT
  5
8
330
0
100
AcDbSymbolTable
 70
     4
  0
VPORT
  5
2E
330
8
100
AcDbSymbolTableRecord
100
AcDbViewportTableRecord
  2
*ACTIVE
 70
     0
 10
0.0
 20
0.0
 11
1.0
 21
1.0
 12
210.0
 22
148.5
 13
0.0
 23
0.0
 14
10.0
 24
10.0
 15
10.0
 25
10.0
 16
0.0
 26
0.0
 36
1.0
 17
0.0
 27
0.0
 37
0.0
 40
341.0
 41
1.24
 42
50.0
 43
0.0
 44
0.0
 50
0.0
 51
0.0
 71
     0
 72
   100
 73
     1
 74
     3
 75
     0
 76
     0
 77
     0
 78
     0
  0
ENDTAB
  0
TABLE
  2
LTYPE
  5
5
330
0
100
AcDbSymbolTable
 70
     1
  0
LTYPE
  5
14
330
5
100
AcDbSymbolTableRecord
100
AcDbLinetypeTableRecord
  2
BYBLOCK
 70
     0
  3

 72
    65
 73
     0
 40
0.0
  0
LTYPE
  5
15
330
5
100
AcDbSymbolTableRecord
100
AcDbLinetypeTableRecord
  2
BYLAYER
 70
     0
  3

 72
    65
 73
     0
 40
0.0
  0
LTYPE
  5
16
330
5
100
AcDbSymbolTableRecord
100
AcDbLinetypeTableRecord
  2
CONTINUOUS
 70
     0
  3
Solid line
 72
    65
 73
     0
 40
0.0
  0
ENDTAB
  0
TABLE
  2
LAYER
  5
2
100
AcDbSymbolTable
 70
2
  0
LAYER
  5
50
100
AcDbSymbolTableRecord
100
AcDbLayerTableRecord
  2
0
 70
0
  6
CONTINUOUS
  0
LAYER
  5
51
100
AcDbSymbolTableRecord
100
AcDbLayerTableRecord
  2
图层_1
 70
0
  6
CONTINUOUS
  0
ENDTAB
  0
TABLE
  2
STYLE
  5
3
330
0
100
AcDbSymbolTable
 70
     1
  0
STYLE
  5
11
330
3
100
AcDbSymbolTableRecord
100
AcDbTextStyleTableRecord
  2
STANDARD
 70
     0
 40
0.0
 41
1.0
 50
0.0
 71
     0
 42
2.5
  3
txt
  4

  0
ENDTAB
  0
TABLE
  2
VIEW
  5
6
330
0
100
AcDbSymbolTable
 70
     0
  0
ENDTAB
  0
TABLE
  2
UCS
  5
7
330
0
100
AcDbSymbolTable
 70
     0
  0
ENDTAB
  0
TABLE
  2
APPID
  5
9
330
0
100
AcDbSymbolTable
 70
     2
  0
APPID
  5
12
330
9
100
AcDbSymbolTableRecord
100
AcDbRegAppTableRecord
  2
ACAD
 70
     0
  0
ENDTAB
  0
TABLE
  2
DIMSTYLE
  5
A
330
0
100
AcDbSymbolTable
 70
     1
  0
DIMSTYLE
105
27
330
A
100
AcDbSymbolTableRecord
100
AcDbDimStyleTableRecord
  2
ISO-25
 70
     0
  3

  4

  5

  6

  7

 40
1.0
 41
2.5
 42
0.625
 43
3.75
 44
1.25
 45
0.0
 46
0.0
 47
0.0
 48
0.0
140
2.5
141
2.5
142
0.0
143
0.03937007874016
144
1.0
145
0.0
146
1.0
147
0.625
 71
     0
 72
     0
 73
     0
 74
     0
 75
     0
 76
     0
 77
     1
 78
     8
170
     0
171
     3
172
     1
173
     0
174
     0
175
     0
176
     0
177
     0
178
     0
270
     2
271
     2
272
     2
273
     2
274
     3
340
11
275
     0
280
     0
281
     0
282
     0
283
     0
284
     8
285
     0
286
     0
287
     3
288
     0
  0
ENDTAB
  0
TABLE
  2
BLOCK_RECORD
  5
1
330
0
100
AcDbSymbolTable
 70
     1
  0
BLOCK_RECORD
  5
1F
330
1
100
AcDbSymbolTableRecord
100
AcDbBlockTableRecord
  2
*MODEL_SPACE
  0
BLOCK_RECORD
  5
1B
330
1
100
AcDbSymbolTableRecord
100
AcDbBlockTableRecord
  2
*PAPER_SPACE
  0
ENDTAB
  0
ENDSEC
  0
SECTION
  2
BLOCKS
  0
BLOCK
  5
20
330
1F
100
AcDbEntity
  8
0
100
AcDbBlockBegin
  2
*MODEL_SPACE
 70
     0
 10
0.0
 20
0.0
 30
0.0
  3
*MODEL_SPACE
  1

  0
ENDBLK
  5
21
330
1F
100
AcDbEntity
  8
0
100
AcDbBlockEnd
  0
BLOCK
  5
1C
330
1B
100
AcDbEntity
 67
     1
  8
0
100
AcDbBlockBegin
  2
*PAPER_SPACE
  1

  0
ENDBLK
  5
1D
330
1B
100
AcDbEntity
 67
     1
  8
0
100
AcDbBlockEnd
  0
ENDSEC
  0
SECTION
  2
ENTITIES
  0
SPLINE
  5
100
100
AcDbEntity
  8
图层_1
 62
7
100
AcDbSpline
 70
8
 71
3
 72
8
 73
4
 74
0
 40
0
 40
0
 40
0
 40
0
 40
1
 40
1
 40
1
 40
1
 10
21.022106
 20
287.691358
 30
0.0
 10
21.236594
 20
288.334824
 30
0.0
 10
21.597838
 20
288.656556
 30
0.0
 10
22.105837
 20
288.656556
 30
0.0
  0
SPLINE
  5
101
100
AcDbEntity
  8
图层_1
 62
7
100
AcDbSpline
 70
8
 71
3
 72
8
 73
4
 74
0
 40
0
 40
0
 40
0
 40
0
 40
1
 40
1
 40
1
 40
1
 10
22.105837
 20
288.656556
 30
0.0
 10
22.467080
 20
288.656556
 30
0.0
 10
22.749302
 20
288.509801
 30
0.0
 10
22.952502
 20
288.216290
 30
0.0
  0
SPLINE
  5
102
100
AcDbEntity
  8
图层_1
 62
7
100
AcDbSpline
 70
8
 71
3
 72
8
 73
4
 74
0
 40
0
 40
0
 40
0
 40
0
 40
1
 40
1
 40
1
 40
1
 10
22.952502
 20
288.216290
 30
0.0
 10
23.166991
 20
287.934069
 30
0.0
 10
23.217791
 20
287.617980
 30
0.0
 10
23.104902
 20
287.268026
 30
0.0
  0
LWPOLYLINE
  5
103
100
AcDbEntity
  8
图层_1
 62
7
100
AcDbPolyline
 90
2
 70
0
 10
19.074776
 20
281.680037
 30
0.0
 10
21.022106
 20
287.691358
 30
0.0
  0
SPLINE
  5
104
100
AcDbEntity
  8
图层_1
 62
7
100
AcDbSpline
 70
8
 71
3
 72
8
 73
4
 74
0
 40
0
 40
0
 40
0
 40
0
 40
1
 40
1
 40
1
 40
1
 10
21.106772
 20
281.087371
 30
0.0
 10
20.869706
 20
280.342306
 30
0.0
 10
20.531040
 20
279.794796
 30
0.0
 10
20.090774
 20
279.444841
 30
0.0
  0
SPLINE
  5
105
100
AcDbEntity
  8
图层_1
 62
7
100
AcDbSpline
 70
8
 71
3
 72
8
 73
4
 74
0
 40
0
 40
0
 40
0
 40
0
 40
1
 40
1
 40
1
 40
1
 10
20.090774
 20
279.444841
 30
0.0
 10
19.661797
 20
279.106175
 30
0.0
 10
19.029621
 20
278.936842
 30
0.0
 10
18.194245
 20
278.936842
 30
0.0
  0
LWPOLYLINE
  5
106
100
AcDbEntity
  8
图层_1
 62
7
100
AcDbPolyline
 90
2
 70
0
 10
23.104902
 20
287.268026
 30
0.0
 10
21.106772
 20
281.087371
 30
0.0
  0
SPLINE
  5
107
100
AcDbEntity
  8
图层_1
 62
7
100
AcDbSpline
 70
8
 71
3
 72
8
 73
4
 74
0
 40
0
 40
0
 40
0
 40
0
 40
1
 40
1
 40
1
 40
1
 10
16.060649
 20
278.936842
 30
0.0
 10
15.225273
 20
278.936842
 30
0.0
 10
14.587452
 20
279.106175
 30
0.0
 10
14.147186
 20
279.444841
 30
0.0
  0
SPLINE
  5
108
100
AcDbEntity
  8
图层_1
 62
7
100
AcDbSpline
 70
8
 71
3
 72
8
 73
4
 74
0
 40
0
 40
0
 40
0
 40
0
 40
1
 40
1
 40
1
 40
1
 10
14.147186
 20
279.444841
 30
0.0
 10
13.718209
 20
279.794796
 30
0.0
 10
13.385187
 20
280.342306
 30
0.0
 10
13.148121
 20
281.087371
 30
0.0
  0
LWPOLYLINE
  5
109
100
AcDbEntity
  8
图层_1
 62
7
100
AcDbPolyline
 90
2
 70
0
 10
18.194245
 20
278.936842
 30
0.0
 10
16.060649
 20
278.936842
 30
0.0
  0
SPLINE
  5
10a
100
AcDbEntity
  8
图层_1
 62
7
100
AcDbSpline
 70
8
 71
3
 72
8
 73
4
 74
0
 40
0
 40
0
 40
0
 40
0
 40
1
 40
1
 40
1
 40
1
 10
11.149992
 20
287.268026
 30
0.0
 10
11.037103
 20
287.617980
 30
0.0
 10
11.082259
 20
287.934069
 30
0.0
 10
11.285458
 20
288.216290
 30
0.0
  0
SPLINE
  5
10b
100
AcDbEntity
  8
图层_1
 62
7
100
AcDbSpline
 70
8
 71
3
 72
8
 73
4
 74
0
 40
0
 40
0
 40
0
 40
0
 40
1
 40
1
 40
1
 40
1
 10
11.285458
 20
288.216290
 30
0.0
 10
11.499947
 20
288.509801
 30
0.0
 10
11.787813
 20
288.656556
 30
0.0
 10
12.149056
 20
288.656556
 30
0.0
  0
SPLINE
  5
10c
100
AcDbEntity
  8
图层_1
 62
7
100
AcDbSpline
 70
8
 71
3
 72
8
 73
4
 74
0
 40
0
 40
0
 40
0
 40
0
 40
1
 40
1
 40
1
 40
1
 10
12.149056
 20
288.656556
 30
0.0
 10
12.657055
 20
288.656556
 30
0.0
 10
13.018299
 20
288.334824
 30
0.0
 10
13.232788
 20
287.691358
 30
0.0
  0
LWPOLYLINE
  5
10d
100
AcDbEntity
  8
图层_1
 62
7
100
AcDbPolyline
 90
2
 70
0
 10
13.148121
 20
281.087371
 30
0.0
 10
11.149992
 20
287.268026
 30
0.0
  0
SPLINE
  5
10e
100
AcDbEntity
  8
图层_1
 62
7
100
AcDbSpline
 70
8
 71
3
 72
8
 73
4
 74
0
 40
0
 40
0
 40
0
 40
0
 40
1
 40
1
 40
1
 40
1
 10
15.180117
 20
281.680037
 30
0.0
 10
15.270428
 20
281.386526
 30
0.0
 10
15.400250
 20
281.177682
 30
0.0
 10
15.569583
 20
281.053504
 30
0.0
  0
SPLINE
  5
10f
100
AcDbEntity
  8
图层_1
 62
7
100
AcDbSpline
 70
8
 71
3
 72
8
 73
4
 74
0
 40
0
 40
0
 40
0
 40
0
 40
1
 40
1
 40
1
 40
1
 10
15.569583
 20
281.053504
 30
0.0
 10
15.738916
 20
280.929327
 30
0.0
 10
15.964694
 20
280.867238
 30
0.0
 10
16.246915
 20
280.867238
 30
0.0
  0
LWPOLYLINE
  5
110
100
AcDbEntity
  8
图层_1
 62
7
100
AcDbPolyline
 90
2
 70
0
 10
13.232788
 20
287.691358
 30
0.0
 10
15.180117
 20
281.680037
 30
0.0
  0
SPLINE
  5
111
100
AcDbEntity
  8
图层_1
 62
7
100
AcDbSpline
 70
8
 71
3
 72
8
 73
4
 74
0
 40
0
 40
0
 40
0
 40
0
 40
1
 40
1
 40
1
 40
1
 10
18.007978
 20
280.867238
 30
0.0
 10
18.290200
 20
280.867238
 30
0.0
 10
18.515977
 20
280.929327
 30
0.0
 10
18.685310
 20
281.053504
 30
0.0
  0
SPLINE
  5
112
100
AcDbEntity
  8
图层_1
 62
7
100
AcDbSpline
 70
8
 71
3
 72
8
 73
4
 74
0
 40
0
 40
0
 40
0
 40
0
 40
1
 40
1
 40
1
 40
1
 10
18.685310
 20
281.053504
 30
0.0
 10
18.854643
 20
281.177682
 30
0.0
 10
18.984465
 20
281.386526
 30
0.0
 10
19.074776
 20
281.680037
 30
0.0
  0
LWPOLYLINE
  5
113
100
AcDbEntity
  8
图层_1
 62
7
100
AcDbPolyline
 90
2
 70
0
 10
16.246915
 20
280.867238
 30
0.0
 10
18.007978
 20
280.867238
 30
0.0
  0
LWPOLYLINE
  5
114
100
AcDbEntity
  8
图层_1
 62
7
100
AcDbPolyline
 90
1
 70
1
 10
19.074776
 20
281.680037
 30
0.0
  0
SPLINE
  5
115
100
AcDbEntity
  8
图层_1
 62
7
100
AcDbSpline
 70
8
 71
3
 72
8
 73
4
 74
0
 40
0
 40
0
 40
0
 40
0
 40
1
 40
1
 40
1
 40
1
 10
29.844353
 20
278.936842
 30
0.0
 10
28.410667
 20
278.936842
 30
0.0
 10
27.377736
 20
279.252930
 30
0.0
 10
26.745559
 20
279.885107
 30
0.0
  0
SPLINE
  5
116
100
AcDbEntity
  8
图层_1
 62
7
100
AcDbSpline
 70
8
 71
3
 72
8
 73
4
 74
0
 40
0
 40
0
 40
0
 40
0
 40
1
 40
1
 40
1
 40
1
 10
26.745559
 20
279.885107
 30
0.0
 10
26.113382
 20
280.517284
 30
0.0
 10
25.797294
 20
281.550215
 30
0.0
 10
25.797294
 20
282.983901
 30
0.0
  0
LWPOLYLINE
  5
117
100
AcDbEntity
  8
图层_1
 62
7
100
AcDbPolyline
 90
2
 70
0
 10
32.977013
 20
278.936842
 30
0.0
 10
29.844353
 20
278.936842
 30
0.0
  0
SPLINE
  5
118
100
AcDbEntity
  8
图层_1
 62
7
100
AcDbSpline
 70
8
 71
3
 72
8
 73
4
 74
0
 40
0
 40
0
 40
0
 40
0
 40
1
 40
1
 40
1
 40
1
 10
25.797294
 20
284.372431
 30
0.0
 10
25.797294
 20
285.806117
 30
0.0
 10
26.113382
 20
286.839048
 30
0.0
 10
26.745559
 20
287.471225
 30
0.0
  0
SPLINE
  5
119
100
AcDbEntity
  8
图层_1
 62
7
100
AcDbSpline
 70
8
 71
3
 72
8
 73
4
 74
0
 40
0
 40
0
 40
0
 40
0
 40
1
 40
1
 40
1
 40
1
 10
26.745559
 20
287.471225
 30
0.0
 10
27.377736
 20
288.103402
 30
0.0
 10
28.410667
 20
288.419490
 30
0.0
 10
29.844353
 20
288.419490
 30
0.0
  0
LWPOLYLINE
  5
11a
100
AcDbEntity
  8
图层_1
 62
7
100
AcDbPolyline
 90
2
 70
0
 10
25.797294
 20
282.983901
 30
0.0
 10
25.797294
 20
284.372431
 30
0.0
  0
SPLINE
  5
11b
100
AcDbEntity
  8
图层_1
 62
7
100
AcDbSpline
 70
8
 71
3
 72
8
 73
4
 74
0
 40
0
 40
0
 40
0
 40
0
 40
1
 40
1
 40
1
 40
1
 10
32.977013
 20
288.419490
 30
0.0
 10
34.410700
 20
288.419490
 30
0.0
 10
35.443631
 20
288.103402
 30
0.0
 10
36.075807
 20
287.471225
 30
0.0
  0
SPLINE
  5
11c
100
AcDbEntity
  8
图层_1
 62
7
100
AcDbSpline
 70
8
 71
3
 72
8
 73
4
 74
0
 40
0
 40
0
 40
0
 40
0
 40
1
 40
1
 40
1
 40
1
 10
36.075807
 20
287.471225
 30
0.0
 10
36.707984
 20
286.839048
 30
0.0
 10
37.024072
 20
285.806117
 30
0.0
 10
37.024072
 20
284.372431
 30
0.0
  0
LWPOLYLINE
  5
11d
100
AcDbEntity
  8
图层_1
 62
7
100
AcDbPolyline
 90
2
 70
0
 10
29.844353
 20
288.419490
 30
0.0
 10
32.977013
 20
288.419490
 30
0.0
  0
SPLINE
  5
11e
100
AcDbEntity
  8
图层_1
 62
7
100
AcDbSpline
 70
8
 71
3
 72
8
 73
4
 74
0
 40
0
 40
0
 40
0
 40
0
 40
1
 40
1
 40
1
 40
1
 10
37.024072
 20
282.983901
 30
0.0
 10
37.024072
 20
281.550215
 30
0.0
 10
36.707984
 20
280.517284
 30
0.0
 10
36.075807
 20
279.885107
 30
0.0
  0
SPLINE
  5
11f
100
AcDbEntity
  8
图层_1
 62
7
100
AcDbSpline
 70
8
 71
3
 72
8
 73
4
 74
0
 40
0
 40
0
 40
0
 40
0
 40
1
 40
1
 40
1
 40
1
 10
36.075807
 20
279.885107
 30
0.0
 10
35.443631
 20
279.252930
 30
0.0
 10
34.410700
 20
278.936842
 30
0.0
 10
32.977013
 20
278.936842
 30
0.0
  0
LWPOLYLINE
  5
120
100
AcDbEntity
  8
图层_1
 62
7
100
AcDbPolyline
 90
2
 70
0
 10
37.024072
 20
284.372431
 30
0.0
 10
37.024072
 20
282.983901
 30
0.0
  0
LWPOLYLINE
  5
121
100
AcDbEntity
  8
图层_1
 62
7
100
AcDbPolyline
 90
1
 70
1
 10
32.977013
 20
278.936842
 30
0.0
  0
SPLINE
  5
122
100
AcDbEntity
  8
图层_1
 62
7
100
AcDbSpline
 70
8
 71
3
 72
8
 73
4
 74
0
 40
0
 40
0
 40
0
 40
0
 40
1
 40
1
 40
1
 40
1
 10
32.892347
 20
280.867238
 30
0.0
 10
33.603546
 20
280.867238
 30
0.0
 10
34.117189
 20
281.025282
 30
0.0
 10
34.433277
 20
281.341371
 30
0.0
  0
SPLINE
  5
123
100
AcDbEntity
  8
图层_1
 62
7
100
AcDbSpline
 70
8
 71
3
 72
8
 73
4
 74
0
 40
0
 40
0
 40
0
 40
0
 40
1
 40
1
 40
1
 40
1
 10
34.433277
 20
281.341371
 30
0.0
 10
34.749366
 20
281.657459
 30
0.0
 10
34.907410
 20
282.165458
 30
0.0
 10
34.907410
 20
282.865368
 30
0.0
  0
LWPOLYLINE
  5
124
100
AcDbEntity
  8
图层_1
 62
7
100
AcDbPolyline
 90
2
 70
0
 10
29.929019
 20
280.867238
 30
0.0
 10
32.892347
 20
280.867238
 30
0.0
  0
SPLINE
  5
125
100
AcDbEntity
  8
图层_1
 62
7
100
AcDbSpline
 70
8
 71
3
 72
8
 73
4
 74
0
 40
0
 40
0
 40
0
 40
0
 40
1
 40
1
 40
1
 40
1
 10
34.907410
 20
284.490964
 30
0.0
 10
34.907410
 20
285.190874
 30
0.0
 10
34.749366
 20
285.698873
 30
0.0
 10
34.433277
 20
286.014961
 30
0.0
  0
SPLINE
  5
126
100
AcDbEntity
  8
图层_1
 62
7
100
AcDbSpline
 70
8
 71
3
 72
8
 73
4
 74
0
 40
0
 40
0
 40
0
 40
0
 40
1
 40
1
 40
1
 40
1
 10
34.433277
 20
286.014961
 30
0.0
 10
34.117189
 20
286.331050
 30
0.0
 10
33.603546
 20
286.489094
 30
0.0
 10
32.892347
 20
286.489094
 30
0.0
  0
LWPOLYLINE
  5
127
100
AcDbEntity
  8
图层_1
 62
7
100
AcDbPolyline
 90
2
 70
0
 10
34.907410
 20
282.865368
 30
0.0
 10
34.907410
 20
284.490964
 30
0.0
  0
SPLINE
  5
128
100
AcDbEntity
  8
图层_1
 62
7
100
AcDbSpline
 70
8
 71
3
 72
8
 73
4
 74
0
 40
0
 40
0
 40
0
 40
0
 40
1
 40
1
 40
1
 40
1
 10
29.929019
 20
286.489094
 30
0.0
 10
29.217821
 20
286.489094
 30
0.0
 10
28.704178
 20
286.331050
 30
0.0
 10
28.388089
 20
286.014961
 30
0.0
  0
SPLINE
  5
129
100
AcDbEntity
  8
图层_1
 62
7
100
AcDbSpline
 70
8
 71
3
 72
8
 73
4
 74
0
 40
0
 40
0
 40
0
 40
0
 40
1
 40
1
 40
1
 40
1
 10
28.388089
 20
286.014961
 30
0.0
 10
28.072001
 20
285.698873
 30
0.0
 10
27.913957
 20
285.190874
 30
0.0
 10
27.913957
 20
284.490964
 30
0.0
  0
LWPOLYLINE
  5
12a
100
AcDbEntity
  8
图层_1
 62
7
100
AcDbPolyline
 90
2
 70
0
 10
32.892347
 20
286.489094
 30
0.0
 10
29.929019
 20
286.489094
 30
0.0
  0
SPLINE
  5
12b
100
AcDbEntity
  8
图层_1
 62
7
100
AcDbSpline
 70
8
 71
3
 72
8
 73
4
 74
0
 40
0
 40
0
 40
0
 40
0
 40
1
 40
1
 40
1
 40
1
 10
27.913957
 20
282.865368
 30
0.0
 10
27.913957
 20
282.165458
 30
0.0
 10
28.072001
 20
281.657459
 30
0.0
 10
28.388089
 20
281.341371
 30
0.0
  0
SPLINE
  5
12c
100
AcDbEntity
  8
图层_1
 62
7
100
AcDbSpline
 70
8
 71
3
 72
8
 73
4
 74
0
 40
0
 40
0
 40
0
 40
0
 40
1
 40
1
 40
1
 40
1
 10
28.388089
 20
281.341371
 30
0.0
 10
28.704178
 20
281.025282
 30
0.0
 10
29.217821
 20
280.867238
 30
0.0
 10
29.929019
 20
280.867238
 30
0.0
  0
LWPOLYLINE
  5
12d
100
AcDbEntity
  8
图层_1
 62
7
100
AcDbPolyline
 90
2
 70
0
 10
27.913957
 20
284.490964
 30
0.0
 10
27.913957
 20
282.865368
 30
0.0
  0
LWPOLYLINE
  5
12e
100
AcDbEntity
  8
图层_1
 62
7
100
AcDbPolyline
 90
1
 70
1
 10
29.929019
 20
280.867238
 30
0.0
  0
SPLINE
  5
12f
100
AcDbEntity
  8
图层_1
 62
7
100
AcDbSpline
 70
8
 71
3
 72
8
 73
4
 74
0
 40
0
 40
0
 40
0
 40
0
 40
1
 40
1
 40
1
 40
1
 10
43.035408
 20
279.868173
 30
0.0
 10
43.035408
 20
279.540796
 30
0.0
 10
42.945097
 20
279.264219
 30
0.0
 10
42.764475
 20
279.038442
 30
0.0
  0
SPLINE
  5
130
100
AcDbEntity
  8
图层_1
 62
7
100
AcDbSpline
 70
8
 71
3
 72
8
 73
4
 74
0
 40
0
 40
0
 40
0
 40
0
 40
1
 40
1
 40
1
 40
1
 10
42.764475
 20
279.038442
 30
0.0
 10
42.583853
 20
278.812665
 30
0.0
 10
42.318565
 20
278.699776
 30
0.0
 10
41.968610
 20
278.699776
 30
0.0
  0
SPLINE
  5
131
100
AcDbEntity
  8
图层_1
 62
7
100
AcDbSpline
 70
8
 71
3
 72
8
 73
4
 74
0
 40
0
 40
0
 40
0
 40
0
 40
1
 40
1
 40
1
 40
1
 10
41.968610
 20
278.699776
 30
0.0
 10
41.629944
 20
278.699776
 30
0.0
 10
41.370300
 20
278.812665
 30
0.0
 10
41.189678
 20
279.038442
 30
0.0
  0
SPLINE
  5
132
100
AcDbEntity
  8
图层_1
 62
7
100
AcDbSpline
 70
8
 71
3
 72
8
 73
4
 74
0
 40
0
 40
0
 40
0
 40
0
 40
1
 40
1
 40
1
 40
1
 10
41.189678
 20
279.038442
 30
0.0
 10
41.009056
 20
279.264219
 30
0.0
 10
40.918745
 20
279.540796
 30
0.0
 10
40.918745
 20
279.868173
 30
0.0
  0
LWPOLYLINE
  5
133
100
AcDbEntity
  8
图层_1
 62
7
100
AcDbPolyline
 90
2
 70
0
 10
43.035408
 20
290.874819
 30
0.0
 10
43.035408
 20
279.868173
 30
0.0
  0
SPLINE
  5
134
100
AcDbEntity
  8
图层_1
 62
7
100
AcDbSpline
 70
8
 71
3
 72
8
 73
4
 74
0
 40
0
 40
0
 40
0
 40
0
 40
1
 40
1
 40
1
 40
1
 10
40.918745
 20
290.874819
 30
0.0
 10
40.918745
 20
291.202196
 30
0.0
 10
41.009056
 20
291.478773
 30
0.0
 10
41.189678
 20
291.704550
 30
0.0
  0
SPLINE
  5
135
100
AcDbEntity
  8
图层_1
 62
7
100
AcDbSpline
 70
8
 71
3
 72
8
 73
4
 74
0
 40
0
 40
0
 40
0
 40
0
 40
1
 40
1
 40
1
 40
1
 10
41.189678
 20
291.704550
 30
0.0
 10
41.370300
 20
291.930328
 30
0.0
 10
41.629944
 20
292.043216
 30
0.0
 10
41.968610
 20
292.043216
 30
0.0
  0
SPLINE
  5
136
100
AcDbEntity
  8
图层_1
 62
7
100
AcDbSpline
 70
8
 71
3
 72
8
 73
4
 74
0
 40
0
 40
0
 40
0
 40
0
 40
1
 40
1
 40
1
 40
1
 10
41.968610
 20
292.043216
 30
0.0
 10
42.318565
 20
292.043216
 30
0.0
 10
42.583853
 20
291.930328
 30
0.0
 10
42.764475
 20
291.704550
 30
0.0
  0
SPLINE
  5
137
100
AcDbEntity
  8
图层_1
 62
7
100
AcDbSpline
 70
8
 71
3
 72
8
 73
4
 74
0
 40
0
 40
0
 40
0
 40
0
 40
1
 40
1
 40
1
 40
1
 10
42.764475
 20
291.704550
 30
0.0
 10
42.945097
 20
291.478773
 30
0.0
 10
43.035408
 20
291.202196
 30
0.0
 10
43.035408
 20
290.874819
 30
0.0
  0
LWPOLYLINE
  5
138
100
AcDbEntity
  8
图层_1
 62
7
100
AcDbPolyline
 90
2
 70
0
 10
40.918745
 20
279.868173
 30
0.0
 10
40.918745
 20
290.874819
 30
0.0
  0
LWPOLYLINE
  5
139
100
AcDbEntity
  8
图层_1
 62
7
100
AcDbPolyline
 90
1
 70
1
 10
43.035408
 20
290.874819
 30
0.0
  0
SPLINE
  5
13a
100
AcDbEntity
  8
图层_1
 62
7
100
AcDbSpline
 70
8
 71
3
 72
8
 73
4
 74
0
 40
0
 40
0
 40
0
 40
0
 40
1
 40
1
 40
1
 40
1
 10
52.687393
 20
278.936842
 30
0.0
 10
51.253707
 20
278.936842
 30
0.0
 10
50.220776
 20
279.252930
 30
0.0
 10
49.588600
 20
279.885107
 30
0.0
  0
SPLINE
  5
13b
100
AcDbEntity
  8
图层_1
 62
7
100
AcDbSpline
 70
8
 71
3
 72
8
 73
4
 74
0
 40
0
 40
0
 40
0
 40
0
 40
1
 40
1
 40
1
 40
1
 10
49.588600
 20
279.885107
 30
0.0
 10
48.956423
 20
280.517284
 30
0.0
 10
48.640335
 20
281.550215
 30
0.0
 10
48.640335
 20
282.983901
 30
0.0
  0
LWPOLYLINE
  5
13c
100
AcDbEntity
  8
图层_1
 62
7
100
AcDbPolyline
 90
2
 70
0
 10
53.940458
 20
278.936842
 30
0.0
 10
52.687393
 20
278.936842
 30
0.0
  0
SPLINE
  5
13d
100
AcDbEntity
  8
图层_1
 62
7
100
AcDbSpline
 70
8
 71
3
 72
8
 73
4
 74
0
 40
0
 40
0
 40
0
 40
0
 40
1
 40
1
 40
1
 40
1
 10
48.640335
 20
285.676295
 30
0.0
 10
48.640335
 20
285.969806
 30
0.0
 10
48.572602
 20
286.178650
 30
0.0
 10
48.437135
 20
286.302827
 30
0.0
  0
SPLINE
  5
13e
100
AcDbEntity
  8
图层_1
 62
7
100
AcDbSpline
 70
8
 71
3
 72
8
 73
4
 74
0
 40
0
 40
0
 40
0
 40
0
 40
1
 40
1
 40
1
 40
1
 10
48.437135
 20
286.302827
 30
0.0
 10
48.312958
 20
286.427005
 30
0.0
 10
48.109758
 20
286.489094
 30
0.0
 10
47.827536
 20
286.489094
 30
0.0
  0
LWPOLYLINE
  5
13f
100
AcDbEntity
  8
图层_1
 62
7
100
AcDbPolyline
 90
2
 70
0
 10
48.640335
 20
282.983901
 30
0.0
 10
48.640335
 20
285.676295
 30
0.0
  0
SPLINE
  5
140
100
AcDbEntity
  8
图层_1
 62
7
100
AcDbSpline
 70
8
 71
3
 72
8
 73
4
 74
0
 40
0
 40
0
 40
0
 40
0
 40
1
 40
1
 40
1
 40
1
 10
46.642205
 20
286.489094
 30
0.0
 10
46.348695
 20
286.489094
 30
0.0
 10
46.094696
 20
286.568116
 30
0.0
 10
45.880207
 20
286.726160
 30
0.0
  0
SPLINE
  5
141
100
AcDbEntity
  8
图层_1
 62
7
100
AcDbSpline
 70
8
 71
3
 72
8
 73
4
 74
0
 40
0
 40
0
 40
0
 40
0
 40
1
 40
1
 40
1
 40
1
 10
45.880207
 20
286.726160
 30
0.0
 10
45.677007
 20
286.895493
 30
0.0
 10
45.575407
 20
287.138203
 30
0.0
 10
45.575407
 20
287.454292
 30
0.0
  0
SPLINE
  5
142
100
AcDbEntity
  8
图层_1
 62
7
100
AcDbSpline
 70
8
 71
3
 72
8
 73
4
 74
0
 40
0
 40
0
 40
0
 40
0
 40
1
 40
1
 40
1
 40
1
 10
45.575407
 20
287.454292
 30
0.0
 10
45.575407
 20
287.770380
 30
0.0
 10
45.677007
 20
288.007446
 30
0.0
 10
45.880207
 20
288.165490
 30
0.0
  0
SPLINE
  5
143
100
AcDbEntity
  8
图层_1
 62
7
100
AcDbSpline
 70
8
 71
3
 72
8
 73
4
 74
0
 40
0
 40
0
 40
0
 40
0
 40
1
 40
1
 40
1
 40
1
 10
45.880207
 20
288.165490
 30
0.0
 10
46.094696
 20
288.334823
 30
0.0
 10
46.348695
 20
288.419490
 30
0.0
 10
46.642205
 20
288.419490
 30
0.0
  0
LWPOLYLINE
  5
144
100
AcDbEntity
  8
图层_1
 62
7
100
AcDbPolyline
 90
2
 70
0
 10
47.827536
 20
286.489094
 30
0.0
 10
46.642205
 20
286.489094
 30
0.0
  0
SPLINE
  5
145
100
AcDbEntity
  8
图层_1
 62
7
100
AcDbSpline
 70
8
 71
3
 72
8
 73
4
 74
0
 40
0
 40
0
 40
0
 40
0
 40
1
 40
1
 40
1
 40
1
 10
47.827536
 20
288.419490
 30
0.0
 10
48.109758
 20
288.419490
 30
0.0
 10
48.312958
 20
288.481579
 30
0.0
 10
48.437135
 20
288.605756
 30
0.0
  0
SPLINE
  5
146
100
AcDbEntity
  8
图层_1
 62
7
100
AcDbSpline
 70
8
 71
3
 72
8
 73
4
 74
0
 40
0
 40
0
 40
0
 40
0
 40
1
 40
1
 40
1
 40
1
 10
48.437135
 20
288.605756
 30
0.0
 10
48.572602
 20
288.729934
 30
0.0
 10
48.640335
 20
288.938778
 30
0.0
 10
48.640335
 20
289.232288
 30
0.0
  0
LWPOLYLINE
  5
147
100
AcDbEntity
  8
图层_1
 62
7
100
AcDbPolyline
 90
2
 70
0
 10
46.642205
 20
288.419490
 30
0.0
 10
47.827536
 20
288.419490
 30
0.0
  0
SPLINE
  5
148
100
AcDbEntity
  8
图层_1
 62
7
100
AcDbSpline
 70
8
 71
3
 72
8
 73
4
 74
0
 40
0
 40
0
 40
0
 40
0
 40
1
 40
1
 40
1
 40
1
 10
48.640335
 20
290.976418
 30
0.0
 10
48.640335
 20
291.303795
 30
0.0
 10
48.730646
 20
291.580373
 30
0.0
 10
48.911268
 20
291.806150
 30
0.0
  0
SPLINE
  5
149
100
AcDbEntity
  8
图层_1
 62
7
100
AcDbSpline
 70
8
 71
3
 72
8
 73
4
 74
0
 40
0
 40
0
 40
0
 40
0
 40
1
 40
1
 40
1
 40
1
 10
48.911268
 20
291.806150
 30
0.0
 10
49.091889
 20
292.031927
 30
0.0
 10
49.351533
 20
292.144816
 30
0.0
 10
49.690199
 20
292.144816
 30
0.0
  0
SPLINE
  5
14a
100
AcDbEntity
  8
图层_1
 62
7
100
AcDbSpline
 70
8
 71
3
 72
8
 73
4
 74
0
 40
0
 40
0
 40
0
 40
0
 40
1
 40
1
 40
1
 40
1
 10
49.690199
 20
292.144816
 30
0.0
 10
50.040154
 20
292.144816
 30
0.0
 10
50.305443
 20
292.031927
 30
0.0
 10
50.486064
 20
291.806150
 30
0.0
  0
SPLINE
  5
14b
100
AcDbEntity
  8
图层_1
 62
7
100
AcDbSpline
 70
8
 71
3
 72
8
 73
4
 74
0
 40
0
 40
0
 40
0
 40
0
 40
1
 40
1
 40
1
 40
1
 10
50.486064
 20
291.806150
 30
0.0
 10
50.666686
 20
291.580373
 30
0.0
 10
50.756997
 20
291.303795
 30
0.0
 10
50.756997
 20
290.976418
 30
0.0
  0
LWPOLYLINE
  5
14c
100
AcDbEntity
  8
图层_1
 62
7
100
AcDbPolyline
 90
2
 70
0
 10
48.640335
 20
289.232288
 30
0.0
 10
48.640335
 20
290.976418
 30
0.0
  0
SPLINE
  5
14d
100
AcDbEntity
  8
图层_1
 62
7
100
AcDbSpline
 70
8
 71
3
 72
8
 73
4
 74
0
 40
0
 40
0
 40
0
 40
0
 40
1
 40
1
 40
1
 40
1
 10
50.756997
 20
289.232288
 30
0.0
 10
50.756997
 20
288.938778
 30
0.0
 10
50.819086
 20
288.729934
 30
0.0
 10
50.943264
 20
288.605756
 30
0.0
  0
SPLINE
  5
14e
100
AcDbEntity
  8
图层_1
 62
7
100
AcDbSpline
 70
8
 71
3
 72
8
 73
4
 74
0
 40
0
 40
0
 40
0
 40
0
 40
1
 40
1
 40
1
 40
1
 10
50.943264
 20
288.605756
 30
0.0
 10
51.067441
 20
288.481579
 30
0.0
 10
51.276285
 20
288.419490
 30
0.0
 10
51.569796
 20
288.419490
 30
0.0
  0
LWPOLYLINE
  5
14f
100
AcDbEntity
  8
图层_1
 62
7
100
AcDbPolyline
 90
2
 70
0
 10
50.756997
 20
290.976418
 30
0.0
 10
50.756997
 20
289.232288
 30
0.0
  0
SPLINE
  5
150
100
AcDbEntity
  8
图层_1
 62
7
100
AcDbSpline
 70
8
 71
3
 72
8
 73
4
 74
0
 40
0
 40
0
 40
0
 40
0
 40
1
 40
1
 40
1
 40
1
 10
53.957391
 20
288.419490
 30
0.0
 10
54.250902
 20
288.419490
 30
0.0
 10
54.499257
 20
288.334823
 30
0.0
 10
54.702456
 20
288.165490
 30
0.0
  0
SPLINE
  5
151
100
AcDbEntity
  8
图层_1
 62
7
100
AcDbSpline
 70
8
 71
3
 72
8
 73
4
 74
0
 40
0
 40
0
 40
0
 40
0
 40
1
 40
1
 40
1
 40
1
 10
54.702456
 20
288.165490
 30
0.0
 10
54.916945
 20
288.007446
 30
0.0
 10
55.024189
 20
287.770380
 30
0.0
 10
55.024189
 20
287.454292
 30
0.0
  0
SPLINE
  5
152
100
AcDbEntity
  8
图层_1
 62
7
100
AcDbSpline
 70
8
 71
3
 72
8
 73
4
 74
0
 40
0
 40
0
 40
0
 40
0
 40
1
 40
1
 40
1
 40
1
 10
55.024189
 20
287.454292
 30
0.0
 10
55.024189
 20
287.138203
 30
0.0
 10
54.916945
 20
286.895493
 30
0.0
 10
54.702456
 20
286.726160
 30
0.0
  0
SPLINE
  5
153
100
AcDbEntity
  8
图层_1
 62
7
100
AcDbSpline
 70
8
 71
3
 72
8
 73
4
 74
0
 40
0
 40
0
 40
0
 40
0
 40
1
 40
1
 40
1
 40
1
 10
54.702456
 20
286.726160
 30
0.0
 10
54.499257
 20
286.568116
 30
0.0
 10
54.250902
 20
286.489094
 30
0.0
 10
53.957391
 20
286.489094
 30
0.0
  0
LWPOLYLINE
  5
154
100
AcDbEntity
  8
图层_1
 62
7
100
AcDbPolyline
 90
2
 70
0
 10
51.569796
 20
288.419490
 30
0.0
 10
53.957391
 20
288.419490
 30
0.0
  0
SPLINE
  5
155
100
AcDbEntity
  8
图层_1
 62
7
100
AcDbSpline
 70
8
 71
3
 72
8
 73
4
 74
0
 40
0
 40
0
 40
0
 40
0
 40
1
 40
1
 40
1
 40
1
 10
51.569796
 20
286.489094
 30
0.0
 10
51.276285
 20
286.489094
 30
0.0
 10
51.067441
 20
286.427005
 30
0.0
 10
50.943264
 20
286.302827
 30
0.0
  0
SPLINE
  5
156
100
AcDbEntity
  8
图层_1
 62
7
100
AcDbSpline
 70
8
 71
3
 72
8
 73
4
 74
0
 40
0
 40
0
 40
0
 40
0
 40
1
 40
1
 40
1
 40
1
 10
50.943264
 20
286.302827
 30
0.0
 10
50.819086
 20
286.178650
 30
0.0
 10
50.756997
 20
285.969806
 30
0.0
 10
50.756997
 20
285.676295
 30
0.0
  0
LWPOLYLINE
  5
157
100
AcDbEntity
  8
图层_1
 62
7
100
AcDbPolyline
 90
2
 70
0
 10
53.957391
 20
286.489094
 30
0.0
 10
51.569796
 20
286.489094
 30
0.0
  0
SPLINE
  5
158
100
AcDbEntity
  8
图层_1
 62
7
100
AcDbSpline
 70
8
 71
3
 72
8
 73
4
 74
0
 40
0
 40
0
 40
0
 40
0
 40
1
 40
1
 40
1
 40
1
 10
50.756997
 20
282.865368
 30
0.0
 10
50.756997
 20
282.165458
 30
0.0
 10
50.915041
 20
281.657459
 30
0.0
 10
51.231130
 20
281.341371
 30
0.0
  0
SPLINE
  5
159
100
AcDbEntity
  8
图层_1
 62
7
100
AcDbSpline
 70
8
 71
3
 72
8
 73
4
 74
0
 40
0
 40
0
 40
0
 40
0
 40
1
 40
1
 40
1
 40
1
 10
51.231130
 20
281.341371
 30
0.0
 10
51.547218
 20
281.025282
 30
0.0
 10
52.060861
 20
280.867238
 30
0.0
 10
52.772060
 20
280.867238
 30
0.0
  0
LWPOLYLINE
  5
15a
100
AcDbEntity
  8
图层_1
 62
7
100
AcDbPolyline
 90
2
 70
0
 10
50.756997
 20
285.676295
 30
0.0
 10
50.756997
 20
282.865368
 30
0.0
  0
SPLINE
  5
15b
100
AcDbEntity
  8
图层_1
 62
7
100
AcDbSpline
 70
8
 71
3
 72
8
 73
4
 74
0
 40
0
 40
0
 40
0
 40
0
 40
1
 40
1
 40
1
 40
1
 10
53.940458
 20
280.867238
 30
0.0
 10
54.233968
 20
280.867238
 30
0.0
 10
54.482323
 20
280.782572
 30
0.0
 10
54.685523
 20
280.613239
 30
0.0
  0
SPLINE
  5
15c
100
AcDbEntity
  8
图层_1
 62
7
100
AcDbSpline
 70
8
 71
3
 72
8
 73
4
 74
0
 40
0
 40
0
 40
0
 40
0
 40
1
 40
1
 40
1
 40
1
 10
54.685523
 20
280.613239
 30
0.0
 10
54.900012
 20
280.455194
 30
0.0
 10
55.007256
 20
280.218128
 30
0.0
 10
55.007256
 20
279.902040
 30
0.0
  0
SPLINE
  5
15d
100
AcDbEntity
  8
图层_1
 62
7
100
AcDbSpline
 70
8
 71
3
 72
8
 73
4
 74
0
 40
0
 40
0
 40
0
 40
0
 40
1
 40
1
 40
1
 40
1
 10
55.007256
 20
279.902040
 30
0.0
 10
55.007256
 20
279.585952
 30
0.0
 10
54.900012
 20
279.343241
 30
0.0
 10
54.685523
 20
279.173908
 30
0.0
  0
SPLINE
  5
15e
100
AcDbEntity
  8
图层_1
 62
7
100
AcDbSpline
 70
8
 71
3
 72
8
 73
4
 74
0
 40
0
 40
0
 40
0
 40
0
 40
1
 40
1
 40
1
 40
1
 10
54.685523
 20
279.173908
 30
0.0
 10
54.482323
 20
279.015864
 30
0.0
 10
54.233968
 20
278.936842
 30
0.0
 10
53.940458
 20
278.936842
 30
0.0
  0
LWPOLYLINE
  5
15f
100
AcDbEntity
  8
图层_1
 62
7
100
AcDbPolyline
 90
2
 70
0
 10
52.772060
 20
280.867238
 30
0.0
 10
53.940458
 20
280.867238
 30
0.0
  0
SPLINE
  5
160
100
AcDbEntity
  8
图层_1
 62
7
100
AcDbSpline
 70
8
 71
3
 72
8
 73
4
 74
0
 40
0
 40
0
 40
0
 40
0
 40
1
 40
1
 40
1
 40
1
 10
60.087257
 20
282.204969
 30
0.0
 10
60.087257
 20
281.313148
 30
0.0
 10
60.674278
 20
280.867238
 30
0.0
 10
61.848320
 20
280.867238
 30
0.0
  0
LWPOLYLINE
  5
161
100
AcDbEntity
  8
图层_1
 62
7
100
AcDbPolyline
 90
1
 70
1
 10
53.940458
 20
278.936842
 30
0.0
  0
SPLINE
  5
162
100
AcDbEntity
  8
图层_1
 62
7
100
AcDbSpline
 70
8
 71
3
 72
8
 73
4
 74
0
 40
0
 40
0
 40
0
 40
0
 40
1
 40
1
 40
1
 40
1
 10
67.385509
 20
280.867238
 30
0.0
 10
67.679020
 20
280.867238
 30
0.0
 10
67.927375
 20
280.782572
 30
0.0
 10
68.130574
 20
280.613239
 30
0.0
  0
SPLINE
  5
163
100
AcDbEntity
  8
图层_1
 62
7
100
AcDbSpline
 70
8
 71
3
 72
8
 73
4
 74
0
 40
0
 40
0
 40
0
 40
0
 40
1
 40
1
 40
1
 40
1
 10
68.130574
 20
280.613239
 30
0.0
 10
68.345063
 20
280.455194
 30
0.0
 10
68.452307
 20
280.218128
 30
0.0
 10
68.452307
 20
279.902040
 30
0.0
  0
SPLINE
  5
164
100
AcDbEntity
  8
图层_1
 62
7
100
AcDbSpline
 70
8
 71
3
 72
8
 73
4
 74
0
 40
0
 40
0
 40
0
 40
0
 40
1
 40
1
 40
1
 40
1
 10
68.452307
 20
279.902040
 30
0.0
 10
68.452307
 20
279.585952
 30
0.0
 10
68.345063
 20
279.343241
 30
0.0
 10
68.130574
 20
279.173908
 30
0.0
  0
SPLINE
  5
165
100
AcDbEntity
  8
图层_1
 62
7
100
AcDbSpline
 70
8
 71
3
 72
8
 73
4
 74
0
 40
0
 40
0
 40
0
 40
0
 40
1
 40
1
 40
1
 40
1
 10
68.130574
 20
279.173908
 30
0.0
 10
67.927375
 20
279.015864
 30
0.0
 10
67.679020
 20
278.936842
 30
0.0
 10
67.385509
 20
278.936842
 30
0.0
  0
LWPOLYLINE
  5
166
100
AcDbEntity
  8
图层_1
 62
7
100
AcDbPolyline
 90
2
 70
0
 10
61.848320
 20
280.867238
 30
0.0
 10
67.385509
 20
280.867238
 30
0.0
  0
SPLINE
  5
167
100
AcDbEntity
  8
图层_1
 62
7
100
AcDbSpline
 70
8
 71
3
 72
8
 73
4
 74
0
 40
0
 40
0
 40
0
 40
0
 40
1
 40
1
 40
1
 40
1
 10
61.949920
 20
278.936842
 30
0.0
 10
60.516234
 20
278.936842
 30
0.0
 10
59.483303
 20
279.252930
 30
0.0
 10
58.851126
 20
279.885107
 30
0.0
  0
SPLINE
  5
168
100
AcDbEntity
  8
图层_1
 62
7
100
AcDbSpline
 70
8
 71
3
 72
8
 73
4
 74
0
 40
0
 40
0
 40
0
 40
0
 40
1
 40
1
 40
1
 40
1
 10
58.851126
 20
279.885107
 30
0.0
 10
58.218949
 20
280.517284
 30
0.0
 10
57.902861
 20
281.550215
 30
0.0
 10
57.902861
 20
282.983901
 30
0.0
  0
LWPOLYLINE
  5
169
100
AcDbEntity
  8
图层_1
 62
7
100
AcDbPolyline
 90
2
 70
0
 10
67.385509
 20
278.936842
 30
0.0
 10
61.949920
 20
278.936842
 30
0.0
  0
SPLINE
  5
16a
100
AcDbEntity
  8
图层_1
 62
7
100
AcDbSpline
 70
8
 71
3
 72
8
 73
4
 74
0
 40
0
 40
0
 40
0
 40
0
 40
1
 40
1
 40
1
 40
1
 10
57.902861
 20
284.372431
 30
0.0
 10
57.902861
 20
285.806117
 30
0.0
 10
58.218949
 20
286.839048
 30
0.0
 10
58.851126
 20
287.471225
 30
0.0
  0
SPLINE
  5
16b
100
AcDbEntity
  8
图层_1
 62
7
100
AcDbSpline
 70
8
 71
3
 72
8
 73
4
 74
0
 40
0
 40
0
 40
0
 40
0
 40
1
 40
1
 40
1
 40
1
 10
58.851126
 20
287.471225
 30
0.0
 10
59.483303
 20
288.103402
 30
0.0
 10
60.516234
 20
288.419490
 30
0.0
 10
61.949920
 20
288.419490
 30
0.0
  0
LWPOLYLINE
  5
16c
100
AcDbEntity
  8
图层_1
 62
7
100
AcDbPolyline
 90
2
 70
0
 10
57.902861
 20
282.983901
 30
0.0
 10
57.902861
 20
284.372431
 30
0.0
  0
SPLINE
  5
16d
100
AcDbEntity
  8
图层_1
 62
7
100
AcDbSpline
 70
8
 71
3
 72
8
 73
4
 74
0
 40
0
 40
0
 40
0
 40
0
 40
1
 40
1
 40
1
 40
1
 10
65.624446
 20
288.419490
 30
0.0
 10
66.550133
 20
288.419490
 30
0.0
 10
67.306487
 20
288.171135
 30
0.0
 10
67.893508
 20
287.674425
 30
0.0
  0
SPLINE
  5
16e
100
AcDbEntity
  8
图层_1
 62
7
100
AcDbSpline
 70
8
 71
3
 72
8
 73
4
 74
0
 40
0
 40
0
 40
0
 40
0
 40
1
 40
1
 40
1
 40
1
 10
67.893508
 20
287.674425
 30
0.0
 10
68.491818
 20
287.177715
 30
0.0
 10
68.790973
 20
286.460872
 30
0.0
 10
68.790973
 20
285.523896
 30
0.0
  0
SPLINE
  5
16f
100
AcDbEntity
  8
图层_1
 62
7
100
AcDbSpline
 70
8
 71
3
 72
8
 73
4
 74
0
 40
0
 40
0
 40
0
 40
0
 40
1
 40
1
 40
1
 40
1
 10
68.790973
 20
285.523896
 30
0.0
 10
68.790973
 20
284.586920
 30
0.0
 10
68.491818
 20
283.864432
 30
0.0
 10
67.893508
 20
283.356433
 30
0.0
  0
SPLINE
  5
170
100
AcDbEntity
  8
图层_1
 62
7
100
AcDbSpline
 70
8
 71
3
 72
8
 73
4
 74
0
 40
0
 40
0
 40
0
 40
0
 40
1
 40
1
 40
1
 40
1
 10
67.893508
 20
283.356433
 30
0.0
 10
67.306487
 20
282.859723
 30
0.0
 10
66.550133
 20
282.611368
 30
0.0
 10
65.624446
 20
282.611368
 30
0.0
  0
LWPOLYLINE
  5
171
100
AcDbEntity
  8
图层_1
 62
7
100
AcDbPolyline
 90
2
 70
0
 10
61.949920
 20
288.419490
 30
0.0
 10
65.624446
 20
288.419490
 30
0.0
  0
SPLINE
  5
172
100
AcDbEntity
  8
图层_1
 62
7
100
AcDbSpline
 70
8
 71
3
 72
8
 73
4
 74
0
 40
0
 40
0
 40
0
 40
0
 40
1
 40
1
 40
1
 40
1
 10
60.493656
 20
282.611368
 30
0.0
 10
60.222723
 20
282.611368
 30
0.0
 10
60.087257
 20
282.475902
 30
0.0
 10
60.087257
 20
282.204969
 30
0.0
  0
LWPOLYLINE
  5
173
100
AcDbEntity
  8
图层_1
 62
7
100
AcDbPolyline
 90
2
 70
0
 10
65.624446
 20
282.611368
 30
0.0
 10
60.493656
 20
282.611368
 30
0.0
  0
LWPOLYLINE
  5
174
100
AcDbEntity
  8
图层_1
 62
7
100
AcDbPolyline
 90
1
 70
1
 10
60.087257
 20
282.204969
 30
0.0
  0
SPLINE
  5
175
100
AcDbEntity
  8
图层_1
 62
7
100
AcDbSpline
 70
8
 71
3
 72
8
 73
4
 74
0
 40
0
 40
0
 40
0
 40
0
 40
1
 40
1
 40
1
 40
1
 10
65.505913
 20
284.541764
 30
0.0
 10
65.844579
 20
284.541764
 30
0.0
 10
66.121156
 20
284.620786
 30
0.0
 10
66.335645
 20
284.778830
 30
0.0
  0
SPLINE
  5
176
100
AcDbEntity
  8
图层_1
 62
7
100
AcDbSpline
 70
8
 71
3
 72
8
 73
4
 74
0
 40
0
 40
0
 40
0
 40
0
 40
1
 40
1
 40
1
 40
1
 10
66.335645
 20
284.778830
 30
0.0
 10
66.561422
 20
284.936875
 30
0.0
 10
66.674311
 20
285.185230
 30
0.0
 10
66.674311
 20
285.523896
 30
0.0
  0
SPLINE
  5
177
100
AcDbEntity
  8
图层_1
 62
7
100
AcDbSpline
 70
8
 71
3
 72
8
 73
4
 74
0
 40
0
 40
0
 40
0
 40
0
 40
1
 40
1
 40
1
 40
1
 10
66.674311
 20
285.523896
 30
0.0
 10
66.674311
 20
286.167361
 30
0.0
 10
66.284845
 20
286.489094
 30
0.0
 10
65.505913
 20
286.489094
 30
0.0
  0
LWPOLYLINE
  5
178
100
AcDbEntity
  8
图层_1
 62
7
100
AcDbPolyline
 90
2
 70
0
 10
60.476723
 20
284.541764
 30
0.0
 10
65.505913
 20
284.541764
 30
0.0
  0
SPLINE
  5
179
100
AcDbEntity
  8
图层_1
 62
7
100
AcDbSpline
 70
8
 71
3
 72
8
 73
4
 74
0
 40
0
 40
0
 40
0
 40
0
 40
1
 40
1
 40
1
 40
1
 10
61.814454
 20
286.489094
 30
0.0
 10
60.651701
 20
286.489094
 30
0.0
 10
60.070324
 20
285.975450
 30
0.0
 10
60.070324
 20
284.948163
 30
0.0
  0
SPLINE
  5
17a
100
AcDbEntity
  8
图层_1
 62
7
100
AcDbSpline
 70
8
 71
3
 72
8
 73
4
 74
0
 40
0
 40
0
 40
0
 40
0
 40
1
 40
1
 40
1
 40
1
 10
60.070324
 20
284.948163
 30
0.0
 10
60.070324
 20
284.677230
 30
0.0
 10
60.205790
 20
284.541764
 30
0.0
 10
60.476723
 20
284.541764
 30
0.0
  0
LWPOLYLINE
  5
17b
100
AcDbEntity
  8
图层_1
 62
7
100
AcDbPolyline
 90
2
 70
0
 10
65.505913
 20
286.489094
 30
0.0
 10
61.814454
 20
286.489094
 30
0.0
  0
LWPOLYLINE
  5
17c
100
AcDbEntity
  8
图层_1
 62
7
100
AcDbPolyline
 90
1
 70
1
 10
60.476723
 20
284.541764
 30
0.0
  0
SPLINE
  5
17d
100
AcDbEntity
  8
图层_1
 62
7
100
AcDbSpline
 70
8
 71
3
 72
8
 73
4
 74
0
 40
0
 40
0
 40
0
 40
0
 40
1
 40
1
 40
1
 40
1
 10
76.969765
 20
282.814568
 30
0.0
 10
76.642388
 20
282.814568
 30
0.0
 10
76.382745
 20
282.769412
 30
0.0
 10
76.190834
 20
282.679101
 30
0.0
  0
SPLINE
  5
17e
100
AcDbEntity
  8
图层_1
 62
7
100
AcDbSpline
 70
8
 71
3
 72
8
 73
4
 74
0
 40
0
 40
0
 40
0
 40
0
 40
1
 40
1
 40
1
 40
1
 10
76.190834
 20
282.679101
 30
0.0
 10
76.010212
 20
282.588790
 30
0.0
 10
75.795723
 20
282.363013
 30
0.0
 10
75.547368
 20
282.001769
 30
0.0
  0
LWPOLYLINE
  5
17f
100
AcDbEntity
  8
图层_1
 62
7
100
AcDbPolyline
 90
2
 70
0
 10
77.833364
 20
282.814568
 30
0.0
 10
76.969765
 20
282.814568
 30
0.0
  0
SPLINE
  5
180
100
AcDbEntity
  8
图层_1
 62
7
100
AcDbSpline
 70
8
 71
3
 72
8
 73
4
 74
0
 40
0
 40
0
 40
0
 40
0
 40
1
 40
1
 40
1
 40
1
 10
74.006438
 20
279.766574
 30
0.0
 10
73.724216
 20
279.360175
 30
0.0
 10
73.498439
 20
279.083597
 30
0.0
 10
73.329106
 20
278.936842
 30
0.0
  0
SPLINE
  5
181
100
AcDbEntity
  8
图层_1
 62
7
100
AcDbSpline
 70
8
 71
3
 72
8
 73
4
 74
0
 40
0
 40
0
 40
0
 40
0
 40
1
 40
1
 40
1
 40
1
 10
73.329106
 20
278.936842
 30
0.0
 10
73.159773
 20
278.778798
 30
0.0
 10
72.956573
 20
278.699776
 30
0.0
 10
72.719507
 20
278.699776
 30
0.0
  0
SPLINE
  5
182
100
AcDbEntity
  8
图层_1
 62
7
100
AcDbSpline
 70
8
 71
3
 72
8
 73
4
 74
0
 40
0
 40
0
 40
0
 40
0
 40
1
 40
1
 40
1
 40
1
 10
72.719507
 20
278.699776
 30
0.0
 10
72.471152
 20
278.699776
 30
0.0
 10
72.234085
 20
278.790087
 30
0.0
 10
72.008308
 20
278.970709
 30
0.0
  0
SPLINE
  5
183
100
AcDbEntity
  8
图层_1
 62
7
100
AcDbSpline
 70
8
 71
3
 72
8
 73
4
 74
0
 40
0
 40
0
 40
0
 40
0
 40
1
 40
1
 40
1
 40
1
 10
72.008308
 20
278.970709
 30
0.0
 10
71.782531
 20
279.162620
 30
0.0
 10
71.669642
 20
279.399686
 30
0.0
 10
71.669642
 20
279.681907
 30
0.0
  0
SPLINE
  5
184
100
AcDbEntity
  8
图层_1
 62
7
100
AcDbSpline
 70
8
 71
3
 72
8
 73
4
 74
0
 40
0
 40
0
 40
0
 40
0
 40
1
 40
1
 40
1
 40
1
 10
71.669642
 20
279.681907
 30
0.0
 10
71.669642
 20
279.885107
 30
0.0
 10
71.743020
 20
280.093951
 30
0.0
 10
71.889775
 20
280.308439
 30
0.0
  0
LWPOLYLINE
  5
185
100
AcDbEntity
  8
图层_1
 62
7
100
AcDbPolyline
 90
2
 70
0
 10
75.547368
 20
282.001769
 30
0.0
 10
74.006438
 20
279.766574
 30
0.0
  0
SPLINE
  5
186
100
AcDbEntity
  8
图层_1
 62
7
100
AcDbSpline
 70
8
 71
3
 72
8
 73
4
 74
0
 40
0
 40
0
 40
0
 40
0
 40
1
 40
1
 40
1
 40
1
 10
73.837105
 20
283.119367
 30
0.0
 10
73.995149
 20
283.333856
 30
0.0
 10
74.074171
 20
283.520122
 30
0.0
 10
74.074171
 20
283.678166
 30
0.0
  0
SPLINE
  5
187
100
AcDbEntity
  8
图层_1
 62
7
100
AcDbSpline
 70
8
 71
3
 72
8
 73
4
 74
0
 40
0
 40
0
 40
0
 40
0
 40
1
 40
1
 40
1
 40
1
 10
74.074171
 20
283.678166
 30
0.0
 10
74.074171
 20
283.836210
 30
0.0
 10
73.995149
 20
284.033765
 30
0.0
 10
73.837105
 20
284.270831
 30
0.0
  0
LWPOLYLINE
  5
188
100
AcDbEntity
  8
图层_1
 62
7
100
AcDbPolyline
 90
2
 70
0
 10
71.889775
 20
280.308439
 30
0.0
 10
73.837105
 20
283.119367
 30
0.0
  0
SPLINE
  5
189
100
AcDbEntity
  8
图层_1
 62
7
100
AcDbSpline
 70
8
 71
3
 72
8
 73
4
 74
0
 40
0
 40
0
 40
0
 40
0
 40
1
 40
1
 40
1
 40
1
 10
72.042175
 20
287.047893
 30
0.0
 10
71.895420
 20
287.262381
 30
0.0
 10
71.822042
 20
287.471225
 30
0.0
 10
71.822042
 20
287.674425
 30
0.0
  0
SPLINE
  5
18a
100
AcDbEntity
  8
图层_1
 62
7
100
AcDbSpline
 70
8
 71
3
 72
8
 73
4
 74
0
 40
0
 40
0
 40
0
 40
0
 40
1
 40
1
 40
1
 40
1
 10
71.822042
 20
287.674425
 30
0.0
 10
71.822042
 20
287.956646
 30
0.0
 10
71.934931
 20
288.188068
 30
0.0
 10
72.160708
 20
288.368690
 30
0.0
  0
SPLINE
  5
18b
100
AcDbEntity
  8
图层_1
 62
7
100
AcDbSpline
 70
8
 71
3
 72
8
 73
4
 74
0
 40
0
 40
0
 40
0
 40
0
 40
1
 40
1
 40
1
 40
1
 10
72.160708
 20
288.368690
 30
0.0
 10
72.386485
 20
288.560601
 30
0.0
 10
72.623552
 20
288.656556
 30
0.0
 10
72.871907
 20
288.656556
 30
0.0
  0
SPLINE
  5
18c
100
AcDbEntity
  8
图层_1
 62
7
100
AcDbSpline
 70
8
 71
3
 72
8
 73
4
 74
0
 40
0
 40
0
 40
0
 40
0
 40
1
 40
1
 40
1
 40
1
 10
72.871907
 20
288.656556
 30
0.0
 10
73.120262
 20
288.656556
 30
0.0
 10
73.329106
 20
288.577534
 30
0.0
 10
73.498439
 20
288.419490
 30
0.0
  0
SPLINE
  5
18d
100
AcDbEntity
  8
图层_1
 62
7
100
AcDbSpline
 70
8
 71
3
 72
8
 73
4
 74
0
 40
0
 40
0
 40
0
 40
0
 40
1
 40
1
 40
1
 40
1
 10
73.498439
 20
288.419490
 30
0.0
 10
73.679061
 20
288.261446
 30
0.0
 10
73.899194
 20
287.984869
 30
0.0
 10
74.158838
 20
287.589758
 30
0.0
  0
LWPOLYLINE
  5
18e
100
AcDbEntity
  8
图层_1
 62
7
100
AcDbPolyline
 90
2
 70
0
 10
73.837105
 20
284.270831
 30
0.0
 10
72.042175
 20
287.047893
 30
0.0
  0
SPLINE
  5
18f
100
AcDbEntity
  8
图层_1
 62
7
100
AcDbSpline
 70
8
 71
3
 72
8
 73
4
 74
0
 40
0
 40
0
 40
0
 40
0
 40
1
 40
1
 40
1
 40
1
 10
75.496568
 20
285.557762
 30
0.0
 10
75.744923
 20
285.196519
 30
0.0
 10
75.959412
 20
284.970741
 30
0.0
 10
76.140034
 20
284.880430
 30
0.0
  0
SPLINE
  5
190
100
AcDbEntity
  8
图层_1
 62
7
100
AcDbSpline
 70
8
 71
3
 72
8
 73
4
 74
0
 40
0
 40
0
 40
0
 40
0
 40
1
 40
1
 40
1
 40
1
 10
76.140034
 20
284.880430
 30
0.0
 10
76.331945
 20
284.790119
 30
0.0
 10
76.591588
 20
284.744964
 30
0.0
 10
76.918965
 20
284.744964
 30
0.0
  0
LWPOLYLINE
  5
191
100
AcDbEntity
  8
图层_1
 62
7
100
AcDbPolyline
 90
2
 70
0
 10
74.158838
 20
287.589758
 30
0.0
 10
75.496568
 20
285.557762
 30
0.0
  0
SPLINE
  5
192
100
AcDbEntity
  8
图层_1
 62
7
100
AcDbSpline
 70
8
 71
3
 72
8
 73
4
 74
0
 40
0
 40
0
 40
0
 40
0
 40
1
 40
1
 40
1
 40
1
 10
77.884164
 20
284.744964
 30
0.0
 10
78.211541
 20
284.744964
 30
0.0
 10
78.465540
 20
284.790119
 30
0.0
 10
78.646162
 20
284.880430
 30
0.0
  0
SPLINE
  5
193
100
AcDbEntity
  8
图层_1
 62
7
100
AcDbSpline
 70
8
 71
3
 72
8
 73
4
 74
0
 40
0
 40
0
 40
0
 40
0
 40
1
 40
1
 40
1
 40
1
 10
78.646162
 20
284.880430
 30
0.0
 10
78.838073
 20
284.970741
 30
0.0
 10
79.058206
 20
285.196519
 30
0.0
 10
79.306561
 20
285.557762
 30
0.0
  0
LWPOLYLINE
  5
194
100
AcDbEntity
  8
图层_1
 62
7
100
AcDbPolyline
 90
2
 70
0
 10
76.918965
 20
284.744964
 30
0.0
 10
77.884164
 20
284.744964
 30
0.0
  0
SPLINE
  5
195
100
AcDbEntity
  8
图层_1
 62
7
100
AcDbSpline
 70
8
 71
3
 72
8
 73
4
 74
0
 40
0
 40
0
 40
0
 40
0
 40
1
 40
1
 40
1
 40
1
 10
80.644291
 20
287.589758
 30
0.0
 10
80.903935
 20
287.984869
 30
0.0
 10
81.118424
 20
288.261446
 30
0.0
 10
81.287757
 20
288.419490
 30
0.0
  0
SPLINE
  5
196
100
AcDbEntity
  8
图层_1
 62
7
100
AcDbSpline
 70
8
 71
3
 72
8
 73
4
 74
0
 40
0
 40
0
 40
0
 40
0
 40
1
 40
1
 40
1
 40
1
 10
81.287757
 20
288.419490
 30
0.0
 10
81.468379
 20
288.577534
 30
0.0
 10
81.682867
 20
288.656556
 30
0.0
 10
81.931222
 20
288.656556
 30
0.0
  0
SPLINE
  5
197
100
AcDbEntity
  8
图层_1
 62
7
100
AcDbSpline
 70
8
 71
3
 72
8
 73
4
 74
0
 40
0
 40
0
 40
0
 40
0
 40
1
 40
1
 40
1
 40
1
 10
81.931222
 20
288.656556
 30
0.0
 10
82.179577
 20
288.656556
 30
0.0
 10
82.416644
 20
288.560601
 30
0.0
 10
82.642421
 20
288.368690
 30
0.0
  0
SPLINE
  5
198
100
AcDbEntity
  8
图层_1
 62
7
100
AcDbSpline
 70
8
 71
3
 72
8
 73
4
 74
0
 40
0
 40
0
 40
0
 40
0
 40
1
 40
1
 40
1
 40
1
 10
82.642421
 20
288.368690
 30
0.0
 10
82.868198
 20
288.188068
 30
0.0
 10
82.981087
 20
287.956646
 30
0.0
 10
82.981087
 20
287.674425
 30
0.0
  0
SPLINE
  5
199
100
AcDbEntity
  8
图层_1
 62
7
100
AcDbSpline
 70
8
 71
3
 72
8
 73
4
 74
0
 40
0
 40
0
 40
0
 40
0
 40
1
 40
1
 40
1
 40
1
 10
82.981087
 20
287.674425
 30
0.0
 10
82.981087
 20
287.471225
 30
0.0
 10
82.907709
 20
287.262381
 30
0.0
 10
82.760954
 20
287.047893
 30
0.0
  0
LWPOLYLINE
  5
19a
100
AcDbEntity
  8
图层_1
 62
7
100
AcDbPolyline
 90
2
 70
0
 10
79.306561
 20
285.557762
 30
0.0
 10
80.644291
 20
287.589758
 30
0.0
  0
SPLINE
  5
19b
100
AcDbEntity
  8
图层_1
 62
7
100
AcDbSpline
 70
8
 71
3
 72
8
 73
4
 74
0
 40
0
 40
0
 40
0
 40
0
 40
1
 40
1
 40
1
 40
1
 10
80.966024
 20
284.270831
 30
0.0
 10
80.819269
 20
284.033765
 30
0.0
 10
80.745891
 20
283.836210
 30
0.0
 10
80.745891
 20
283.678166
 30
0.0
  0
SPLINE
  5
19c
100
AcDbEntity
  8
图层_1
 62
7
100
AcDbSpline
 70
8
 71
3
 72
8
 73
4
 74
0
 40
0
 40
0
 40
0
 40
0
 40
1
 40
1
 40
1
 40
1
 10
80.745891
 20
283.678166
 30
0.0
 10
80.745891
 20
283.520122
 30
0.0
 10
80.819269
 20
283.333856
 30
0.0
 10
80.966024
 20
283.119367
 30
0.0
  0
LWPOLYLINE
  5
19d
100
AcDbEntity
  8
图层_1
 62
7
100
AcDbPolyline
 90
2
 70
0
 10
82.760954
 20
287.047893
 30
0.0
 10
80.966024
 20
284.270831
 30
0.0
  0
SPLINE
  5
19e
100
AcDbEntity
  8
图层_1
 62
7
100
AcDbSpline
 70
8
 71
3
 72
8
 73
4
 74
0
 40
0
 40
0
 40
0
 40
0
 40
1
 40
1
 40
1
 40
1
 10
82.913354
 20
280.308439
 30
0.0
 10
83.060109
 20
280.093951
 30
0.0
 10
83.133487
 20
279.885107
 30
0.0
 10
83.133487
 20
279.681907
 30
0.0
  0
SPLINE
  5
19f
100
AcDbEntity
  8
图层_1
 62
7
100
AcDbSpline
 70
8
 71
3
 72
8
 73
4
 74
0
 40
0
 40
0
 40
0
 40
0
 40
1
 40
1
 40
1
 40
1
 10
83.133487
 20
279.681907
 30
0.0
 10
83.133487
 20
279.399686
 30
0.0
 10
83.020598
 20
279.162620
 30
0.0
 10
82.794821
 20
278.970709
 30
0.0
  0
SPLINE
  5
1a0
100
AcDbEntity
  8
图层_1
 62
7
100
AcDbSpline
 70
8
 71
3
 72
8
 73
4
 74
0
 40
0
 40
0
 40
0
 40
0
 40
1
 40
1
 40
1
 40
1
 10
82.794821
 20
278.970709
 30
0.0
 10
82.569044
 20
278.790087
 30
0.0
 10
82.331977
 20
278.699776
 30
0.0
 10
82.083622
 20
278.699776
 30
0.0
  0
SPLINE
  5
1a1
100
AcDbEntity
  8
图层_1
 62
7
100
AcDbSpline
 70
8
 71
3
 72
8
 73
4
 74
0
 40
0
 40
0
 40
0
 40
0
 40
1
 40
1
 40
1
 40
1
 10
82.083622
 20
278.699776
 30
0.0
 10
81.846556
 20
278.699776
 30
0.0
 10
81.643356
 20
278.778798
 30
0.0
 10
81.474023
 20
278.936842
 30
0.0
  0
SPLINE
  5
1a2
100
AcDbEntity
  8
图层_1
 62
7
100
AcDbSpline
 70
8
 71
3
 72
8
 73
4
 74
0
 40
0
 40
0
 40
0
 40
0
 40
1
 40
1
 40
1
 40
1
 10
81.474023
 20
278.936842
 30
0.0
 10
81.304690
 20
279.083597
 30
0.0
 10
81.078913
 20
279.360175
 30
0.0
 10
80.796691
 20
279.766574
 30
0.0
  0
LWPOLYLINE
  5
1a3
100
AcDbEntity
  8
图层_1
 62
7
100
AcDbPolyline
 90
2
 70
0
 10
80.966024
 20
283.119367
 30
0.0
 10
82.913354
 20
280.308439
 30
0.0
  0
SPLINE
  5
1a4
100
AcDbEntity
  8
图层_1
 62
7
100
AcDbSpline
 70
8
 71
3
 72
8
 73
4
 74
0
 40
0
 40
0
 40
0
 40
0
 40
1
 40
1
 40
1
 40
1
 10
79.255761
 20
282.001769
 30
0.0
 10
79.007406
 20
282.363013
 30
0.0
 10
78.787273
 20
282.588790
 30
0.0
 10
78.595362
 20
282.679101
 30
0.0
  0
SPLINE
  5
1a5
100
AcDbEntity
  8
图层_1
 62
7
100
AcDbSpline
 70
8
 71
3
 72
8
 73
4
 74
0
 40
0
 40
0
 40
0
 40
0
 40
1
 40
1
 40
1
 40
1
 10
78.595362
 20
282.679101
 30
0.0
 10
78.414740
 20
282.769412
 30
0.0
 10
78.160741
 20
282.814568
 30
0.0
 10
77.833364
 20
282.814568
 30
0.0
  0
LWPOLYLINE
  5
1a6
100
AcDbEntity
  8
图层_1
 62
7
100
AcDbPolyline
 90
2
 70
0
 10
80.796691
 20
279.766574
 30
0.0
 10
79.255761
 20
282.001769
 30
0.0
  0
LWPOLYLINE
  5
1a7
100
AcDbEntity
  8
图层_1
 62
7
100
AcDbPolyline
 90
1
 70
1
 10
77.833364
 20
282.814568
 30
0.0
  0
SPLINE
  5
1a8
100
AcDbEntity
  8
图层_1
 62
7
100
AcDbSpline
 70
8
 71
3
 72
8
 73
4
 74
0
 40
0
 40
0
 40
0
 40
0
 40
1
 40
1
 40
1
 40
1
 10
96.256794
 20
279.258575
 30
0.0
 10
96.256794
 20
277.824889
 30
0.0
 10
95.940706
 20
276.791958
 30
0.0
 10
95.308529
 20
276.159781
 30
0.0
  0
SPLINE
  5
1a9
100
AcDbEntity
  8
图层_1
 62
7
100
AcDbSpline
 70
8
 71
3
 72
8
 73
4
 74
0
 40
0
 40
0
 40
0
 40
0
 40
1
 40
1
 40
1
 40
1
 10
95.308529
 20
276.159781
 30
0.0
 10
94.676352
 20
275.527604
 30
0.0
 10
93.643421
 20
275.211516
 30
0.0
 10
92.209735
 20
275.211516
 30
0.0
  0
LWPOLYLINE
  5
1aa
100
AcDbEntity
  8
图层_1
 62
7
100
AcDbPolyline
 90
2
 70
0
 10
96.256794
 20
287.488158
 30
0.0
 10
96.256794
 20
279.258575
 30
0.0
  0
SPLINE
  5
1ab
100
AcDbEntity
  8
图层_1
 62
7
100
AcDbSpline
 70
8
 71
3
 72
8
 73
4
 74
0
 40
0
 40
0
 40
0
 40
0
 40
1
 40
1
 40
1
 40
1
 10
90.601071
 20
275.211516
 30
0.0
 10
90.307561
 20
275.211516
 30
0.0
 10
90.059206
 20
275.296182
 30
0.0
 10
89.856006
 20
275.465515
 30
0.0
  0
SPLINE
  5
1ac
100
AcDbEntity
  8
图层_1
 62
7
100
AcDbSpline
 70
8
 71
3
 72
8
 73
4
 74
0
 40
0
 40
0
 40
0
 40
0
 40
1
 40
1
 40
1
 40
1
 10
89.856006
 20
275.465515
 30
0.0
 10
89.641518
 20
275.623560
 30
0.0
 10
89.534274
 20
275.860626
 30
0.0
 10
89.534274
 20
276.176714
 30
0.0
  0
SPLINE
  5
1ad
100
AcDbEntity
  8
图层_1
 62
7
100
AcDbSpline
 70
8
 71
3
 72
8
 73
4
 74
0
 40
0
 40
0
 40
0
 40
0
 40
1
 40
1
 40
1
 40
1
 10
89.534274
 20
276.176714
 30
0.0
 10
89.534274
 20
276.492802
 30
0.0
 10
89.641518
 20
276.735513
 30
0.0
 10
89.856006
 20
276.904846
 30
0.0
  0
SPLINE
  5
1ae
100
AcDbEntity
  8
图层_1
 62
7
100
AcDbSpline
 70
8
 71
3
 72
8
 73
4
 74
0
 40
0
 40
0
 40
0
 40
0
 40
1
 40
1
 40
1
 40
1
 10
89.856006
 20
276.904846
 30
0.0
 10
90.059206
 20
277.062890
 30
0.0
 10
90.307561
 20
277.141912
 30
0.0
 10
90.601071
 20
277.141912
 30
0.0
  0
LWPOLYLINE
  5
1af
100
AcDbEntity
  8
图层_1
 62
7
100
AcDbPolyline
 90
2
 70
0
 10
92.209735
 20
275.211516
 30
0.0
 10
90.601071
 20
275.211516
 30
0.0
  0
SPLINE
  5
1b0
100
AcDbEntity
  8
图层_1
 62
7
100
AcDbSpline
 70
8
 71
3
 72
8
 73
4
 74
0
 40
0
 40
0
 40
0
 40
0
 40
1
 40
1
 40
1
 40
1
 10
92.125068
 20
277.141912
 30
0.0
 10
92.836267
 20
277.141912
 30
0.0
 10
93.349910
 20
277.299956
 30
0.0
 10
93.665999
 20
277.616045
 30
0.0
  0
SPLINE
  5
1b1
100
AcDbEntity
  8
图层_1
 62
7
100
AcDbSpline
 70
8
 71
3
 72
8
 73
4
 74
0
 40
0
 40
0
 40
0
 40
0
 40
1
 40
1
 40
1
 40
1
 10
93.665999
 20
277.616045
 30
0.0
 10
93.982087
 20
277.932133
 30
0.0
 10
94.140131
 20
278.440132
 30
0.0
 10
94.140131
 20
279.140042
 30
0.0
  0
LWPOLYLINE
  5
1b2
100
AcDbEntity
  8
图层_1
 62
7
100
AcDbPolyline
 90
2
 70
0
 10
90.601071
 20
277.141912
 30
0.0
 10
92.125068
 20
277.141912
 30
0.0
  0
SPLINE
  5
1b3
100
AcDbEntity
  8
图层_1
 62
7
100
AcDbSpline
 70
8
 71
3
 72
8
 73
4
 74
0
 40
0
 40
0
 40
0
 40
0
 40
1
 40
1
 40
1
 40
1
 10
94.140131
 20
287.488158
 30
0.0
 10
94.140131
 20
287.815536
 30
0.0
 10
94.230442
 20
288.092113
 30
0.0
 10
94.411064
 20
288.317890
 30
0.0
  0
SPLINE
  5
1b4
100
AcDbEntity
  8
图层_1
 62
7
100
AcDbSpline
 70
8
 71
3
 72
8
 73
4
 74
0
 40
0
 40
0
 40
0
 40
0
 40
1
 40
1
 40
1
 40
1
 10
94.411064
 20
288.317890
 30
0.0
 10
94.591686
 20
288.543668
 30
0.0
 10
94.856974
 20
288.656556
 30
0.0
 10
95.206929
 20
288.656556
 30
0.0
  0
SPLINE
  5
1b5
100
AcDbEntity
  8
图层_1
 62
7
100
AcDbSpline
 70
8
 71
3
 72
8
 73
4
 74
0
 40
0
 40
0
 40
0
 40
0
 40
1
 40
1
 40
1
 40
1
 10
95.206929
 20
288.656556
 30
0.0
 10
95.545595
 20
288.656556
 30
0.0
 10
95.805239
 20
288.543668
 30
0.0
 10
95.985861
 20
288.317890
 30
0.0
  0
SPLINE
  5
1b6
100
AcDbEntity
  8
图层_1
 62
7
100
AcDbSpline
 70
8
 71
3
 72
8
 73
4
 74
0
 40
0
 40
0
 40
0
 40
0
 40
1
 40
1
 40
1
 40
1
 10
95.985861
 20
288.317890
 30
0.0
 10
96.166483
 20
288.092113
 30
0.0
 10
96.256794
 20
287.815536
 30
0.0
 10
96.256794
 20
287.488158
 30
0.0
  0
LWPOLYLINE
  5
1b7
100
AcDbEntity
  8
图层_1
 62
7
100
AcDbPolyline
 90
2
 70
0
 10
94.140131
 20
279.140042
 30
0.0
 10
94.140131
 20
287.488158
 30
0.0
  0
LWPOLYLINE
  5
1b8
100
AcDbEntity
  8
图层_1
 62
7
100
AcDbPolyline
 90
1
 70
1
 10
96.256794
 20
287.488158
 30
0.0
  0
SPLINE
  5
1b9
100
AcDbEntity
  8
图层_1
 62
7
100
AcDbSpline
 70
8
 71
3
 72
8
 73
4
 74
0
 40
0
 40
0
 40
0
 40
0
 40
1
 40
1
 40
1
 40
1
 10
96.256794
 20
290.959485
 30
0.0
 10
96.256794
 20
290.632108
 30
0.0
 10
96.166483
 20
290.355531
 30
0.0
 10
95.985861
 20
290.129753
 30
0.0
  0
SPLINE
  5
1ba
100
AcDbEntity
  8
图层_1
 62
7
100
AcDbSpline
 70
8
 71
3
 72
8
 73
4
 74
0
 40
0
 40
0
 40
0
 40
0
 40
1
 40
1
 40
1
 40
1
 10
95.985861
 20
290.129753
 30
0.0
 10
95.805239
 20
289.903976
 30
0.0
 10
95.539951
 20
289.791087
 30
0.0
 10
95.189996
 20
289.791087
 30
0.0
  0
SPLINE
  5
1bb
100
AcDbEntity
  8
图层_1
 62
7
100
AcDbSpline
 70
8
 71
3
 72
8
 73
4
 74
0
 40
0
 40
0
 40
0
 40
0
 40
1
 40
1
 40
1
 40
1
 10
95.189996
 20
289.791087
 30
0.0
 10
94.851330
 20
289.791087
 30
0.0
 10
94.591686
 20
289.903976
 30
0.0
 10
94.411064
 20
290.129753
 30
0.0
  0
SPLINE
  5
1bc
100
AcDbEntity
  8
图层_1
 62
7
100
AcDbSpline
 70
8
 71
3
 72
8
 73
4
 74
0
 40
0
 40
0
 40
0
 40
0
 40
1
 40
1
 40
1
 40
1
 10
94.411064
 20
290.129753
 30
0.0
 10
94.230442
 20
290.355531
 30
0.0
 10
94.140131
 20
290.632108
 30
0.0
 10
94.140131
 20
290.959485
 30
0.0
  0
LWPOLYLINE
  5
1bd
100
AcDbEntity
  8
图层_1
 62
7
100
AcDbPolyline
 90
2
 70
0
 10
96.256794
 20
291.230418
 30
0.0
 10
96.256794
 20
290.959485
 30
0.0
  0
SPLINE
  5
1be
100
AcDbEntity
  8
图层_1
 62
7
100
AcDbSpline
 70
8
 71
3
 72
8
 73
4
 74
0
 40
0
 40
0
 40
0
 40
0
 40
1
 40
1
 40
1
 40
1
 10
94.140131
 20
291.230418
 30
0.0
 10
94.140131
 20
291.557795
 30
0.0
 10
94.230442
 20
291.834372
 30
0.0
 10
94.411064
 20
292.060150
 30
0.0
  0
SPLINE
  5
1bf
100
AcDbEntity
  8
图层_1
 62
7
100
AcDbSpline
 70
8
 71
3
 72
8
 73
4
 74
0
 40
0
 40
0
 40
0
 40
0
 40
1
 40
1
 40
1
 40
1
 10
94.411064
 20
292.060150
 30
0.0
 10
94.591686
 20
292.285927
 30
0.0
 10
94.851330
 20
292.398816
 30
0.0
 10
95.189996
 20
292.398816
 30
0.0
  0
SPLINE
  5
1c0
100
AcDbEntity
  8
图层_1
 62
7
100
AcDbSpline
 70
8
 71
3
 72
8
 73
4
 74
0
 40
0
 40
0
 40
0
 40
0
 40
1
 40
1
 40
1
 40
1
 10
95.189996
 20
292.398816
 30
0.0
 10
95.539951
 20
292.398816
 30
0.0
 10
95.805239
 20
292.285927
 30
0.0
 10
95.985861
 20
292.060150
 30
0.0
  0
SPLINE
  5
1c1
100
AcDbEntity
  8
图层_1
 62
7
100
AcDbSpline
 70
8
 71
3
 72
8
 73
4
 74
0
 40
0
 40
0
 40
0
 40
0
 40
1
 40
1
 40
1
 40
1
 10
95.985861
 20
292.060150
 30
0.0
 10
96.166483
 20
291.834372
 30
0.0
 10
96.256794
 20
291.557795
 30
0.0
 10
96.256794
 20
291.230418
 30
0.0
  0
LWPOLYLINE
  5
1c2
100
AcDbEntity
  8
图层_1
 62
7
100
AcDbPolyline
 90
2
 70
0
 10
94.140131
 20
290.959485
 30
0.0
 10
94.140131
 20
291.230418
 30
0.0
  0
LWPOLYLINE
  5
1c3
100
AcDbEntity
  8
图层_1
 62
7
100
AcDbPolyline
 90
1
 70
1
 10
96.256794
 20
291.230418
 30
0.0
  0
SPLINE
  5
1c4
100
AcDbEntity
  8
图层_1
 62
7
100
AcDbSpline
 70
8
 71
3
 72
8
 73
4
 74
0
 40
0
 40
0
 40
0
 40
0
 40
1
 40
1
 40
1
 40
1
 10
104.283180
 20
278.936842
 30
0.0
 10
102.849493
 20
278.936842
 30
0.0
 10
101.816563
 20
279.252930
 30
0.0
 10
101.184390
 20
279.885107
 30
0.0
  0
SPLINE
  5
1c5
100
AcDbEntity
  8
图层_1
 62
7
100
AcDbSpline
 70
8
 71
3
 72
8
 73
4
 74
0
 40
0
 40
0
 40
0
 40
0
 40
1
 40
1
 40
1
 40
1
 10
101.184390
 20
279.885107
 30
0.0
 10
100.552210
 20
280.517284
 30
0.0
 10
100.236120
 20
281.550215
 30
0.0
 10
100.236120
 20
282.983901
 30
0.0
  0
LWPOLYLINE
  5
1c6
100
AcDbEntity
  8
图层_1
 62
7
100
AcDbPolyline
 90
2
 70
0
 10
107.077180
 20
278.936842
 30
0.0
 10
104.283180
 20
278.936842
 30
0.0
  0
SPLINE
  5
1c7
100
AcDbEntity
  8
图层_1
 62
7
100
AcDbSpline
 70
8
 71
3
 72
8
 73
4
 74
0
 40
0
 40
0
 40
0
 40
0
 40
1
 40
1
 40
1
 40
1
 10
100.236120
 20
287.488158
 30
0.0
 10
100.236120
 20
287.815536
 30
0.0
 10
100.326433
 20
288.092113
 30
0.0
 10
100.507060
 20
288.317890
 30
0.0
  0
SPLINE
  5
1c8
100
AcDbEntity
  8
图层_1
 62
7
100
AcDbSpline
 70
8
 71
3
 72
8
 73
4
 74
0
 40
0
 40
0
 40
0
 40
0
 40
1
 40
1
 40
1
 40
1
 10
100.507060
 20
288.317890
 30
0.0
 10
100.687680
 20
288.543668
 30
0.0
 10
100.947323
 20
288.656556
 30
0.0
 10
101.285990
 20
288.656556
 30
0.0
  0
SPLINE
  5
1c9
100
AcDbEntity
  8
图层_1
 62
7
100
AcDbSpline
 70
8
 71
3
 72
8
 73
4
 74
0
 40
0
 40
0
 40
0
 40
0
 40
1
 40
1
 40
1
 40
1
 10
101.285990
 20
288.656556
 30
0.0
 10
101.635943
 20
288.656556
 30
0.0
 10
101.901230
 20
288.543668
 30
0.0
 10
102.081850
 20
288.317890
 30
0.0
  0
SPLINE
  5
1ca
100
AcDbEntity
  8
图层_1
 62
7
100
AcDbSpline
 70
8
 71
3
 72
8
 73
4
 74
0
 40
0
 40
0
 40
0
 40
0
 40
1
 40
1
 40
1
 40
1
 10
102.081850
 20
288.317890
 30
0.0
 10
102.262470
 20
288.092113
 30
0.0
 10
102.352780
 20
287.815536
 30
0.0
 10
102.352780
 20
287.488158
 30
0.0
  0
LWPOLYLINE
  5
1cb
100
AcDbEntity
  8
图层_1
 62
7
100
AcDbPolyline
 90
2
 70
0
 10
100.236120
 20
282.983901
 30
0.0
 10
100.236120
 20
287.488158
 30
0.0
  0
SPLINE
  5
1cc
100
AcDbEntity
  8
图层_1
 62
7
100
AcDbSpline
 70
8
 71
3
 72
8
 73
4
 74
0
 40
0
 40
0
 40
0
 40
0
 40
1
 40
1
 40
1
 40
1
 10
102.352780
 20
282.865368
 30
0.0
 10
102.352780
 20
282.165458
 30
0.0
 10
102.510827
 20
281.657459
 30
0.0
 10
102.826920
 20
281.341371
 30
0.0
  0
SPLINE
  5
1cd
100
AcDbEntity
  8
图层_1
 62
7
100
AcDbSpline
 70
8
 71
3
 72
8
 73
4
 74
0
 40
0
 40
0
 40
0
 40
0
 40
1
 40
1
 40
1
 40
1
 10
102.826920
 20
281.341371
 30
0.0
 10
103.143007
 20
281.025282
 30
0.0
 10
103.656650
 20
280.867238
 30
0.0
 10
104.367850
 20
280.867238
 30
0.0
  0
LWPOLYLINE
  5
1ce
100
AcDbEntity
  8
图层_1
 62
7
100
AcDbPolyline
 90
2
 70
0
 10
102.352780
 20
287.488158
 30
0.0
 10
102.352780
 20
282.865368
 30
0.0
  0
SPLINE
  5
1cf
100
AcDbEntity
  8
图层_1
 62
7
100
AcDbSpline
 70
8
 71
3
 72
8
 73
4
 74
0
 40
0
 40
0
 40
0
 40
0
 40
1
 40
1
 40
1
 40
1
 10
106.992510
 20
280.867238
 30
0.0
 10
107.703710
 20
280.867238
 30
0.0
 10
108.217353
 20
281.025282
 30
0.0
 10
108.533440
 20
281.341371
 30
0.0
  0
SPLINE
  5
1d0
100
AcDbEntity
  8
图层_1
 62
7
100
AcDbSpline
 70
8
 71
3
 72
8
 73
4
 74
0
 40
0
 40
0
 40
0
 40
0
 40
1
 40
1
 40
1
 40
1
 10
108.533440
 20
281.341371
 30
0.0
 10
108.849527
 20
281.657459
 30
0.0
 10
109.007570
 20
282.165458
 30
0.0
 10
109.007570
 20
282.865368
 30
0.0
  0
LWPOLYLINE
  5
1d1
100
AcDbEntity
  8
图层_1
 62
7
100
AcDbPolyline
 90
2
 70
0
 10
104.367850
 20
280.867238
 30
0.0
 10
106.992510
 20
280.867238
 30
0.0
  0
SPLINE
  5
1d2
100
AcDbEntity
  8
图层_1
 62
7
100
AcDbSpline
 70
8
 71
3
 72
8
 73
4
 74
0
 40
0
 40
0
 40
0
 40
0
 40
1
 40
1
 40
1
 40
1
 10
109.007570
 20
287.488158
 30
0.0
 10
109.007570
 20
287.815536
 30
0.0
 10
109.097880
 20
288.092113
 30
0.0
 10
109.278500
 20
288.317890
 30
0.0
  0
SPLINE
  5
1d3
100
AcDbEntity
  8
图层_1
 62
7
100
AcDbSpline
 70
8
 71
3
 72
8
 73
4
 74
0
 40
0
 40
0
 40
0
 40
0
 40
1
 40
1
 40
1
 40
1
 10
109.278500
 20
288.317890
 30
0.0
 10
109.459127
 20
288.543668
 30
0.0
 10
109.724417
 20
288.656556
 30
0.0
 10
110.074370
 20
288.656556
 30
0.0
  0
SPLINE
  5
1d4
100
AcDbEntity
  8
图层_1
 62
7
100
AcDbSpline
 70
8
 71
3
 72
8
 73
4
 74
0
 40
0
 40
0
 40
0
 40
0
 40
1
 40
1
 40
1
 40
1
 10
110.074370
 20
288.656556
 30
0.0
 10
110.413037
 20
288.656556
 30
0.0
 10
110.672680
 20
288.543668
 30
0.0
 10
110.853300
 20
288.317890
 30
0.0
  0
SPLINE
  5
1d5
100
AcDbEntity
  8
图层_1
 62
7
100
AcDbSpline
 70
8
 71
3
 72
8
 73
4
 74
0
 40
0
 40
0
 40
0
 40
0
 40
1
 40
1
 40
1
 40
1
 10
110.853300
 20
288.317890
 30
0.0
 10
111.033920
 20
288.092113
 30
0.0
 10
111.124230
 20
287.815536
 30
0.0
 10
111.124230
 20
287.488158
 30
0.0
  0
LWPOLYLINE
  5
1d6
100
AcDbEntity
  8
图层_1
 62
7
100
AcDbPolyline
 90
2
 70
0
 10
109.007570
 20
282.865368
 30
0.0
 10
109.007570
 20
287.488158
 30
0.0
  0
SPLINE
  5
1d7
100
AcDbEntity
  8
图层_1
 62
7
100
AcDbSpline
 70
8
 71
3
 72
8
 73
4
 74
0
 40
0
 40
0
 40
0
 40
0
 40
1
 40
1
 40
1
 40
1
 10
111.124230
 20
282.983901
 30
0.0
 10
111.124230
 20
281.550215
 30
0.0
 10
110.808143
 20
280.517284
 30
0.0
 10
110.175970
 20
279.885107
 30
0.0
  0
SPLINE
  5
1d8
100
AcDbEntity
  8
图层_1
 62
7
100
AcDbSpline
 70
8
 71
3
 72
8
 73
4
 74
0
 40
0
 40
0
 40
0
 40
0
 40
1
 40
1
 40
1
 40
1
 10
110.175970
 20
279.885107
 30
0.0
 10
109.543790
 20
279.252930
 30
0.0
 10
108.510860
 20
278.936842
 30
0.0
 10
107.077180
 20
278.936842
 30
0.0
  0
LWPOLYLINE
  5
1d9
100
AcDbEntity
  8
图层_1
 62
7
100
AcDbPolyline
 90
2
 70
0
 10
111.124230
 20
287.488158
 30
0.0
 10
111.124230
 20
282.983901
 30
0.0
  0
LWPOLYLINE
  5
1da
100
AcDbEntity
  8
图层_1
 62
7
100
AcDbPolyline
 90
1
 70
1
 10
107.077180
 20
278.936842
 30
0.0
  0
SPLINE
  5
1db
100
AcDbEntity
  8
图层_1
 62
7
100
AcDbSpline
 70
8
 71
3
 72
8
 73
4
 74
0
 40
0
 40
0
 40
0
 40
0
 40
1
 40
1
 40
1
 40
1
 10
124.653930
 20
279.868173
 30
0.0
 10
124.653930
 20
279.540796
 30
0.0
 10
124.563620
 20
279.264219
 30
0.0
 10
124.383000
 20
279.038442
 30
0.0
  0
SPLINE
  5
1dc
100
AcDbEntity
  8
图层_1
 62
7
100
AcDbSpline
 70
8
 71
3
 72
8
 73
4
 74
0
 40
0
 40
0
 40
0
 40
0
 40
1
 40
1
 40
1
 40
1
 10
124.383000
 20
279.038442
 30
0.0
 10
124.202380
 20
278.812665
 30
0.0
 10
123.942737
 20
278.699776
 30
0.0
 10
123.604070
 20
278.699776
 30
0.0
  0
SPLINE
  5
1dd
100
AcDbEntity
  8
图层_1
 62
7
100
AcDbSpline
 70
8
 71
3
 72
8
 73
4
 74
0
 40
0
 40
0
 40
0
 40
0
 40
1
 40
1
 40
1
 40
1
 10
123.604070
 20
278.699776
 30
0.0
 10
123.254110
 20
278.699776
 30
0.0
 10
122.988820
 20
278.812665
 30
0.0
 10
122.808200
 20
279.038442
 30
0.0
  0
SPLINE
  5
1de
100
AcDbEntity
  8
图层_1
 62
7
100
AcDbSpline
 70
8
 71
3
 72
8
 73
4
 74
0
 40
0
 40
0
 40
0
 40
0
 40
1
 40
1
 40
1
 40
1
 10
122.808200
 20
279.038442
 30
0.0
 10
122.627580
 20
279.264219
 30
0.0
 10
122.537270
 20
279.540796
 30
0.0
 10
122.537270
 20
279.868173
 30
0.0
  0
LWPOLYLINE
  5
1df
100
AcDbEntity
  8
图层_1
 62
7
100
AcDbPolyline
 90
2
 70
0
 10
124.653930
 20
284.490964
 30
0.0
 10
124.653930
 20
279.868173
 30
0.0
  0
SPLINE
  5
1e0
100
AcDbEntity
  8
图层_1
 62
7
100
AcDbSpline
 70
8
 71
3
 72
8
 73
4
 74
0
 40
0
 40
0
 40
0
 40
0
 40
1
 40
1
 40
1
 40
1
 10
122.537270
 20
284.490964
 30
0.0
 10
122.537270
 20
285.190874
 30
0.0
 10
122.379227
 20
285.698873
 30
0.0
 10
122.063140
 20
286.014961
 30
0.0
  0
SPLINE
  5
1e1
100
AcDbEntity
  8
图层_1
 62
7
100
AcDbSpline
 70
8
 71
3
 72
8
 73
4
 74
0
 40
0
 40
0
 40
0
 40
0
 40
1
 40
1
 40
1
 40
1
 10
122.063140
 20
286.014961
 30
0.0
 10
121.747047
 20
286.331050
 30
0.0
 10
121.233403
 20
286.489094
 30
0.0
 10
120.522210
 20
286.489094
 30
0.0
  0
LWPOLYLINE
  5
1e2
100
AcDbEntity
  8
图层_1
 62
7
100
AcDbPolyline
 90
2
 70
0
 10
122.537270
 20
279.868173
 30
0.0
 10
122.537270
 20
284.490964
 30
0.0
  0
SPLINE
  5
1e3
100
AcDbEntity
  8
图层_1
 62
7
100
AcDbSpline
 70
8
 71
3
 72
8
 73
4
 74
0
 40
0
 40
0
 40
0
 40
0
 40
1
 40
1
 40
1
 40
1
 10
118.033010
 20
286.489094
 30
0.0
 10
117.750790
 20
286.489094
 30
0.0
 10
117.541947
 20
286.427005
 30
0.0
 10
117.406480
 20
286.302827
 30
0.0
  0
SPLINE
  5
1e4
100
AcDbEntity
  8
图层_1
 62
7
100
AcDbSpline
 70
8
 71
3
 72
8
 73
4
 74
0
 40
0
 40
0
 40
0
 40
0
 40
1
 40
1
 40
1
 40
1
 10
117.406480
 20
286.302827
 30
0.0
 10
117.282300
 20
286.178650
 30
0.0
 10
117.220210
 20
285.969806
 30
0.0
 10
117.220210
 20
285.676295
 30
0.0
  0
LWPOLYLINE
  5
1e5
100
AcDbEntity
  8
图层_1
 62
7
100
AcDbPolyline
 90
2
 70
0
 10
120.522210
 20
286.489094
 30
0.0
 10
118.033010
 20
286.489094
 30
0.0
  0
SPLINE
  5
1e6
100
AcDbEntity
  8
图层_1
 62
7
100
AcDbSpline
 70
8
 71
3
 72
8
 73
4
 74
0
 40
0
 40
0
 40
0
 40
0
 40
1
 40
1
 40
1
 40
1
 10
117.220210
 20
279.868173
 30
0.0
 10
117.220210
 20
279.540796
 30
0.0
 10
117.129900
 20
279.264219
 30
0.0
 10
116.949280
 20
279.038442
 30
0.0
  0
SPLINE
  5
1e7
100
AcDbEntity
  8
图层_1
 62
7
100
AcDbSpline
 70
8
 71
3
 72
8
 73
4
 74
0
 40
0
 40
0
 40
0
 40
0
 40
1
 40
1
 40
1
 40
1
 10
116.949280
 20
279.038442
 30
0.0
 10
116.768660
 20
278.812665
 30
0.0
 10
116.503370
 20
278.699776
 30
0.0
 10
116.153410
 20
278.699776
 30
0.0
  0
SPLINE
  5
1e8
100
AcDbEntity
  8
图层_1
 62
7
100
AcDbSpline
 70
8
 71
3
 72
8
 73
4
 74
0
 40
0
 40
0
 40
0
 40
0
 40
1
 40
1
 40
1
 40
1
 10
116.153410
 20
278.699776
 30
0.0
 10
115.814750
 20
278.699776
 30
0.0
 10
115.555107
 20
278.812665
 30
0.0
 10
115.374480
 20
279.038442
 30
0.0
  0
SPLINE
  5
1e9
100
AcDbEntity
  8
图层_1
 62
7
100
AcDbSpline
 70
8
 71
3
 72
8
 73
4
 74
0
 40
0
 40
0
 40
0
 40
0
 40
1
 40
1
 40
1
 40
1
 10
115.374480
 20
279.038442
 30
0.0
 10
115.193860
 20
279.264219
 30
0.0
 10
115.103550
 20
279.540796
 30
0.0
 10
115.103550
 20
279.868173
 30
0.0
  0
LWPOLYLINE
  5
1ea
100
AcDbEntity
  8
图层_1
 62
7
100
AcDbPolyline
 90
2
 70
0
 10
117.220210
 20
285.676295
 30
0.0
 10
117.220210
 20
279.868173
 30
0.0
  0
SPLINE
  5
1eb
100
AcDbEntity
  8
图层_1
 62
7
100
AcDbSpline
 70
8
 71
3
 72
8
 73
4
 74
0
 40
0
 40
0
 40
0
 40
0
 40
1
 40
1
 40
1
 40
1
 10
115.103550
 20
285.981095
 30
0.0
 10
115.103550
 20
286.839049
 30
0.0
 10
115.295460
 20
287.459936
 30
0.0
 10
115.679280
 20
287.843758
 30
0.0
  0
SPLINE
  5
1ec
100
AcDbEntity
  8
图层_1
 62
7
100
AcDbSpline
 70
8
 71
3
 72
8
 73
4
 74
0
 40
0
 40
0
 40
0
 40
0
 40
1
 40
1
 40
1
 40
1
 10
115.679280
 20
287.843758
 30
0.0
 10
116.063100
 20
288.227579
 30
0.0
 10
116.683987
 20
288.419490
 30
0.0
 10
117.541940
 20
288.419490
 30
0.0
  0
LWPOLYLINE
  5
1ed
100
AcDbEntity
  8
图层_1
 62
7
100
AcDbPolyline
 90
2
 70
0
 10
115.103550
 20
279.868173
 30
0.0
 10
115.103550
 20
285.981095
 30
0.0
  0
SPLINE
  5
1ee
100
AcDbEntity
  8
图层_1
 62
7
100
AcDbSpline
 70
8
 71
3
 72
8
 73
4
 74
0
 40
0
 40
0
 40
0
 40
0
 40
1
 40
1
 40
1
 40
1
 10
120.606870
 20
288.419490
 30
0.0
 10
121.792203
 20
288.419490
 30
0.0
 10
122.746113
 20
288.171135
 30
0.0
 10
123.468600
 20
287.674425
 30
0.0
  0
SPLINE
  5
1ef
100
AcDbEntity
  8
图层_1
 62
7
100
AcDbSpline
 70
8
 71
3
 72
8
 73
4
 74
0
 40
0
 40
0
 40
0
 40
0
 40
1
 40
1
 40
1
 40
1
 10
123.468600
 20
287.674425
 30
0.0
 10
123.547620
 20
287.629269
 30
0.0
 10
123.626643
 20
287.629269
 30
0.0
 10
123.705670
 20
287.674425
 30
0.0
  0
SPLINE
  5
1f0
100
AcDbEntity
  8
图层_1
 62
7
100
AcDbSpline
 70
8
 71
3
 72
8
 73
4
 74
0
 40
0
 40
0
 40
0
 40
0
 40
1
 40
1
 40
1
 40
1
 10
123.705670
 20
287.674425
 30
0.0
 10
124.371710
 20
288.171135
 30
0.0
 10
125.325617
 20
288.419490
 30
0.0
 10
126.567390
 20
288.419490
 30
0.0
  0
LWPOLYLINE
  5
1f1
100
AcDbEntity
  8
图层_1
 62
7
100
AcDbPolyline
 90
2
 70
0
 10
117.541940
 20
288.419490
 30
0.0
 10
120.606870
 20
288.419490
 30
0.0
  0
SPLINE
  5
1f2
100
AcDbEntity
  8
图层_1
 62
7
100
AcDbSpline
 70
8
 71
3
 72
8
 73
4
 74
0
 40
0
 40
0
 40
0
 40
0
 40
1
 40
1
 40
1
 40
1
 10
128.040590
 20
288.419490
 30
0.0
 10
129.474277
 20
288.419490
 30
0.0
 10
130.507207
 20
288.103402
 30
0.0
 10
131.139380
 20
287.471225
 30
0.0
  0
SPLINE
  5
1f3
100
AcDbEntity
  8
图层_1
 62
7
100
AcDbSpline
 70
8
 71
3
 72
8
 73
4
 74
0
 40
0
 40
0
 40
0
 40
0
 40
1
 40
1
 40
1
 40
1
 10
131.139380
 20
287.471225
 30
0.0
 10
131.771560
 20
286.839048
 30
0.0
 10
132.087650
 20
285.806117
 30
0.0
 10
132.087650
 20
284.372431
 30
0.0
  0
LWPOLYLINE
  5
1f4
100
AcDbEntity
  8
图层_1
 62
7
100
AcDbPolyline
 90
2
 70
0
 10
126.567390
 20
288.419490
 30
0.0
 10
128.040590
 20
288.419490
 30
0.0
  0
SPLINE
  5
1f5
100
AcDbEntity
  8
图层_1
 62
7
100
AcDbSpline
 70
8
 71
3
 72
8
 73
4
 74
0
 40
0
 40
0
 40
0
 40
0
 40
1
 40
1
 40
1
 40
1
 10
132.087650
 20
279.868173
 30
0.0
 10
132.087650
 20
279.540796
 30
0.0
 10
131.997340
 20
279.264219
 30
0.0
 10
131.816720
 20
279.038442
 30
0.0
  0
SPLINE
  5
1f6
100
AcDbEntity
  8
图层_1
 62
7
100
AcDbSpline
 70
8
 71
3
 72
8
 73
4
 74
0
 40
0
 40
0
 40
0
 40
0
 40
1
 40
1
 40
1
 40
1
 10
131.816720
 20
279.038442
 30
0.0
 10
131.636093
 20
278.812665
 30
0.0
 10
131.376447
 20
278.699776
 30
0.0
 10
131.037780
 20
278.699776
 30
0.0
  0
SPLINE
  5
1f7
100
AcDbEntity
  8
图层_1
 62
7
100
AcDbSpline
 70
8
 71
3
 72
8
 73
4
 74
0
 40
0
 40
0
 40
0
 40
0
 40
1
 40
1
 40
1
 40
1
 10
131.037780
 20
278.699776
 30
0.0
 10
130.687827
 20
278.699776
 30
0.0
 10
130.422540
 20
278.812665
 30
0.0
 10
130.241920
 20
279.038442
 30
0.0
  0
SPLINE
  5
1f8
100
AcDbEntity
  8
图层_1
 62
7
100
AcDbSpline
 70
8
 71
3
 72
8
 73
4
 74
0
 40
0
 40
0
 40
0
 40
0
 40
1
 40
1
 40
1
 40
1
 10
130.241920
 20
279.038442
 30
0.0
 10
130.061300
 20
279.264219
 30
0.0
 10
129.970990
 20
279.540796
 30
0.0
 10
129.970990
 20
279.868173
 30
0.0
  0
LWPOLYLINE
  5
1f9
100
AcDbEntity
  8
图层_1
 62
7
100
AcDbPolyline
 90
2
 70
0
 10
132.087650
 20
284.372431
 30
0.0
 10
132.087650
 20
279.868173
 30
0.0
  0
SPLINE
  5
1fa
100
AcDbEntity
  8
图层_1
 62
7
100
AcDbSpline
 70
8
 71
3
 72
8
 73
4
 74
0
 40
0
 40
0
 40
0
 40
0
 40
1
 40
1
 40
1
 40
1
 10
129.970990
 20
284.490964
 30
0.0
 10
129.970990
 20
285.190874
 30
0.0
 10
129.812943
 20
285.698873
 30
0.0
 10
129.496850
 20
286.014961
 30
0.0
  0
SPLINE
  5
1fb
100
AcDbEntity
  8
图层_1
 62
7
100
AcDbSpline
 70
8
 71
3
 72
8
 73
4
 74
0
 40
0
 40
0
 40
0
 40
0
 40
1
 40
1
 40
1
 40
1
 10
129.496850
 20
286.014961
 30
0.0
 10
129.180763
 20
286.331050
 30
0.0
 10
128.667120
 20
286.489094
 30
0.0
 10
127.955920
 20
286.489094
 30
0.0
  0
LWPOLYLINE
  5
1fc
100
AcDbEntity
  8
图层_1
 62
7
100
AcDbPolyline
 90
2
 70
0
 10
129.970990
 20
279.868173
 30
0.0
 10
129.970990
 20
284.490964
 30
0.0
  0
SPLINE
  5
1fd
100
AcDbEntity
  8
图层_1
 62
7
100
AcDbSpline
 70
8
 71
3
 72
8
 73
4
 74
0
 40
0
 40
0
 40
0
 40
0
 40
1
 40
1
 40
1
 40
1
 10
126.668990
 20
286.489094
 30
0.0
 10
125.957797
 20
286.489094
 30
0.0
 10
125.444153
 20
286.331050
 30
0.0
 10
125.128060
 20
286.014961
 30
0.0
  0
SPLINE
  5
1fe
100
AcDbEntity
  8
图层_1
 62
7
100
AcDbSpline
 70
8
 71
3
 72
8
 73
4
 74
0
 40
0
 40
0
 40
0
 40
0
 40
1
 40
1
 40
1
 40
1
 10
125.128060
 20
286.014961
 30
0.0
 10
124.811973
 20
285.698873
 30
0.0
 10
124.653930
 20
285.190874
 30
0.0
 10
124.653930
 20
284.490964
 30
0.0
  0
LWPOLYLINE
  5
1ff
100
AcDbEntity
  8
图层_1
 62
7
100
AcDbPolyline
 90
2
 70
0
 10
127.955920
 20
286.489094
 30
0.0
 10
126.668990
 20
286.489094
 30
0.0
  0
LWPOLYLINE
  5
200
100
AcDbEntity
  8
图层_1
 62
7
100
AcDbPolyline
 90
1
 70
1
 10
124.653930
 20
284.490964
 30
0.0
  0
SPLINE
  5
201
100
AcDbEntity
  8
图层_1
 62
7
100
AcDbSpline
 70
8
 71
3
 72
8
 73
4
 74
0
 40
0
 40
0
 40
0
 40
0
 40
1
 40
1
 40
1
 40
1
 10
138.098970
 20
289.232288
 30
0.0
 10
138.098970
 20
288.938778
 30
0.0
 10
138.161057
 20
288.729934
 30
0.0
 10
138.285230
 20
288.605756
 30
0.0
  0
SPLINE
  5
202
100
AcDbEntity
  8
图层_1
 62
7
100
AcDbSpline
 70
8
 71
3
 72
8
 73
4
 74
0
 40
0
 40
0
 40
0
 40
0
 40
1
 40
1
 40
1
 40
1
 10
138.285230
 20
288.605756
 30
0.0
 10
138.420697
 20
288.481579
 30
0.0
 10
138.629540
 20
288.419490
 30
0.0
 10
138.911760
 20
288.419490
 30
0.0
  0
LWPOLYLINE
  5
203
100
AcDbEntity
  8
图层_1
 62
7
100
AcDbPolyline
 90
2
 70
0
 10
138.098970
 20
290.874819
 30
0.0
 10
138.098970
 20
289.232288
 30
0.0
  0
SPLINE
  5
204
100
AcDbEntity
  8
图层_1
 62
7
100
AcDbSpline
 70
8
 71
3
 72
8
 73
4
 74
0
 40
0
 40
0
 40
0
 40
0
 40
1
 40
1
 40
1
 40
1
 10
142.823360
 20
288.419490
 30
0.0
 10
144.257047
 20
288.419490
 30
0.0
 10
145.289977
 20
288.103402
 30
0.0
 10
145.922150
 20
287.471225
 30
0.0
  0
SPLINE
  5
205
100
AcDbEntity
  8
图层_1
 62
7
100
AcDbSpline
 70
8
 71
3
 72
8
 73
4
 74
0
 40
0
 40
0
 40
0
 40
0
 40
1
 40
1
 40
1
 40
1
 10
145.922150
 20
287.471225
 30
0.0
 10
146.554330
 20
286.839048
 30
0.0
 10
146.870420
 20
285.806117
 30
0.0
 10
146.870420
 20
284.372431
 30
0.0
  0
LWPOLYLINE
  5
206
100
AcDbEntity
  8
图层_1
 62
7
100
AcDbPolyline
 90
2
 70
0
 10
138.911760
 20
288.419490
 30
0.0
 10
142.823360
 20
288.419490
 30
0.0
  0
SPLINE
  5
207
100
AcDbEntity
  8
图层_1
 62
7
100
AcDbSpline
 70
8
 71
3
 72
8
 73
4
 74
0
 40
0
 40
0
 40
0
 40
0
 40
1
 40
1
 40
1
 40
1
 10
146.870420
 20
282.983901
 30
0.0
 10
146.870420
 20
281.550215
 30
0.0
 10
146.554330
 20
280.517284
 30
0.0
 10
145.922150
 20
279.885107
 30
0.0
  0
SPLINE
  5
208
100
AcDbEntity
  8
图层_1
 62
7
100
AcDbSpline
 70
8
 71
3
 72
8
 73
4
 74
0
 40
0
 40
0
 40
0
 40
0
 40
1
 40
1
 40
1
 40
1
 10
145.922150
 20
279.885107
 30
0.0
 10
145.289977
 20
279.252930
 30
0.0
 10
144.257047
 20
278.936842
 30
0.0
 10
142.823360
 20
278.936842
 30
0.0
  0
LWPOLYLINE
  5
209
100
AcDbEntity
  8
图层_1
 62
7
100
AcDbPolyline
 90
2
 70
0
 10
146.870420
 20
284.372431
 30
0.0
 10
146.870420
 20
282.983901
 30
0.0
  0
SPLINE
  5
20a
100
AcDbEntity
  8
图层_1
 62
7
100
AcDbSpline
 70
8
 71
3
 72
8
 73
4
 74
0
 40
0
 40
0
 40
0
 40
0
 40
1
 40
1
 40
1
 40
1
 10
138.420700
 20
278.936842
 30
0.0
 10
137.562747
 20
278.936842
 30
0.0
 10
136.941860
 20
279.128753
 30
0.0
 10
136.558040
 20
279.512574
 30
0.0
  0
SPLINE
  5
20b
100
AcDbEntity
  8
图层_1
 62
7
100
AcDbSpline
 70
8
 71
3
 72
8
 73
4
 74
0
 40
0
 40
0
 40
0
 40
0
 40
1
 40
1
 40
1
 40
1
 10
136.558040
 20
279.512574
 30
0.0
 10
136.174213
 20
279.896395
 30
0.0
 10
135.982300
 20
280.517283
 30
0.0
 10
135.982300
 20
281.375237
 30
0.0
  0
LWPOLYLINE
  5
20c
100
AcDbEntity
  8
图层_1
 62
7
100
AcDbPolyline
 90
2
 70
0
 10
142.823360
 20
278.936842
 30
0.0
 10
138.420700
 20
278.936842
 30
0.0
  0
SPLINE
  5
20d
100
AcDbEntity
  8
图层_1
 62
7
100
AcDbSpline
 70
8
 71
3
 72
8
 73
4
 74
0
 40
0
 40
0
 40
0
 40
0
 40
1
 40
1
 40
1
 40
1
 10
135.982300
 20
290.874819
 30
0.0
 10
135.982300
 20
291.202196
 30
0.0
 10
136.072613
 20
291.478773
 30
0.0
 10
136.253240
 20
291.704550
 30
0.0
  0
SPLINE
  5
20e
100
AcDbEntity
  8
图层_1
 62
7
100
AcDbSpline
 70
8
 71
3
 72
8
 73
4
 74
0
 40
0
 40
0
 40
0
 40
0
 40
1
 40
1
 40
1
 40
1
 10
136.253240
 20
291.704550
 30
0.0
 10
136.433860
 20
291.930328
 30
0.0
 10
136.693503
 20
292.043216
 30
0.0
 10
137.032170
 20
292.043216
 30
0.0
  0
SPLINE
  5
20f
100
AcDbEntity
  8
图层_1
 62
7
100
AcDbSpline
 70
8
 71
3
 72
8
 73
4
 74
0
 40
0
 40
0
 40
0
 40
0
 40
1
 40
1
 40
1
 40
1
 10
137.032170
 20
292.043216
 30
0.0
 10
137.382123
 20
292.043216
 30
0.0
 10
137.647410
 20
291.930328
 30
0.0
 10
137.828030
 20
291.704550
 30
0.0
  0
SPLINE
  5
210
100
AcDbEntity
  8
图层_1
 62
7
100
AcDbSpline
 70
8
 71
3
 72
8
 73
4
 74
0
 40
0
 40
0
 40
0
 40
0
 40
1
 40
1
 40
1
 40
1
 10
137.828030
 20
291.704550
 30
0.0
 10
138.008657
 20
291.478773
 30
0.0
 10
138.098970
 20
291.202196
 30
0.0
 10
138.098970
 20
290.874819
 30
0.0
  0
LWPOLYLINE
  5
211
100
AcDbEntity
  8
图层_1
 62
7
100
AcDbPolyline
 90
2
 70
0
 10
135.982300
 20
281.375237
 30
0.0
 10
135.982300
 20
290.874819
 30
0.0
  0
LWPOLYLINE
  5
212
100
AcDbEntity
  8
图层_1
 62
7
100
AcDbPolyline
 90
1
 70
1
 10
138.098970
 20
290.874819
 30
0.0
  0
SPLINE
  5
213
100
AcDbEntity
  8
图层_1
 62
7
100
AcDbSpline
 70
8
 71
3
 72
8
 73
4
 74
0
 40
0
 40
0
 40
0
 40
0
 40
1
 40
1
 40
1
 40
1
 10
138.911760
 20
286.489094
 30
0.0
 10
138.629540
 20
286.489094
 30
0.0
 10
138.420697
 20
286.427005
 30
0.0
 10
138.285230
 20
286.302827
 30
0.0
  0
SPLINE
  5
214
100
AcDbEntity
  8
图层_1
 62
7
100
AcDbSpline
 70
8
 71
3
 72
8
 73
4
 74
0
 40
0
 40
0
 40
0
 40
0
 40
1
 40
1
 40
1
 40
1
 10
138.285230
 20
286.302827
 30
0.0
 10
138.161057
 20
286.178650
 30
0.0
 10
138.098970
 20
285.969806
 30
0.0
 10
138.098970
 20
285.676295
 30
0.0
  0
LWPOLYLINE
  5
215
100
AcDbEntity
  8
图层_1
 62
7
100
AcDbPolyline
 90
2
 70
0
 10
142.738690
 20
286.489094
 30
0.0
 10
138.911760
 20
286.489094
 30
0.0
  0
SPLINE
  5
216
100
AcDbEntity
  8
图层_1
 62
7
100
AcDbSpline
 70
8
 71
3
 72
8
 73
4
 74
0
 40
0
 40
0
 40
0
 40
0
 40
1
 40
1
 40
1
 40
1
 10
138.098970
 20
281.680037
 30
0.0
 10
138.098970
 20
281.386526
 30
0.0
 10
138.161057
 20
281.177682
 30
0.0
 10
138.285230
 20
281.053504
 30
0.0
  0
SPLINE
  5
217
100
AcDbEntity
  8
图层_1
 62
7
100
AcDbSpline
 70
8
 71
3
 72
8
 73
4
 74
0
 40
0
 40
0
 40
0
 40
0
 40
1
 40
1
 40
1
 40
1
 10
138.285230
 20
281.053504
 30
0.0
 10
138.420697
 20
280.929327
 30
0.0
 10
138.629540
 20
280.867238
 30
0.0
 10
138.911760
 20
280.867238
 30
0.0
  0
LWPOLYLINE
  5
218
100
AcDbEntity
  8
图层_1
 62
7
100
AcDbPolyline
 90
2
 70
0
 10
138.098970
 20
285.676295
 30
0.0
 10
138.098970
 20
281.680037
 30
0.0
  0
SPLINE
  5
219
100
AcDbEntity
  8
图层_1
 62
7
100
AcDbSpline
 70
8
 71
3
 72
8
 73
4
 74
0
 40
0
 40
0
 40
0
 40
0
 40
1
 40
1
 40
1
 40
1
 10
142.738690
 20
280.867238
 30
0.0
 10
143.449890
 20
280.867238
 30
0.0
 10
143.963533
 20
281.025282
 30
0.0
 10
144.279620
 20
281.341371
 30
0.0
  0
SPLINE
  5
21a
100
AcDbEntity
  8
图层_1
 62
7
100
AcDbSpline
 70
8
 71
3
 72
8
 73
4
 74
0
 40
0
 40
0
 40
0
 40
0
 40
1
 40
1
 40
1
 40
1
 10
144.279620
 20
281.341371
 30
0.0
 10
144.595707
 20
281.657459
 30
0.0
 10
144.753750
 20
282.165458
 30
0.0
 10
144.753750
 20
282.865368
 30
0.0
  0
LWPOLYLINE
  5
21b
100
AcDbEntity
  8
图层_1
 62
7
100
AcDbPolyline
 90
2
 70
0
 10
138.911760
 20
280.867238
 30
0.0
 10
142.738690
 20
280.867238
 30
0.0
  0
SPLINE
  5
21c
100
AcDbEntity
  8
图层_1
 62
7
100
AcDbSpline
 70
8
 71
3
 72
8
 73
4
 74
0
 40
0
 40
0
 40
0
 40
0
 40
1
 40
1
 40
1
 40
1
 10
144.753750
 20
284.490964
 30
0.0
 10
144.753750
 20
285.190874
 30
0.0
 10
144.595707
 20
285.698873
 30
0.0
 10
144.279620
 20
286.014961
 30
0.0
  0
SPLINE
  5
21d
100
AcDbEntity
  8
图层_1
 62
7
100
AcDbSpline
 70
8
 71
3
 72
8
 73
4
 74
0
 40
0
 40
0
 40
0
 40
0
 40
1
 40
1
 40
1
 40
1
 10
144.279620
 20
286.014961
 30
0.0
 10
143.963533
 20
286.331050
 30
0.0
 10
143.449890
 20
286.489094
 30
0.0
 10
142.738690
 20
286.489094
 30
0.0
  0
LWPOLYLINE
  5
21e
100
AcDbEntity
  8
图层_1
 62
7
100
AcDbPolyline
 90
2
 70
0
 10
144.753750
 20
282.865368
 30
0.0
 10
144.753750
 20
284.490964
 30
0.0
  0
LWPOLYLINE
  5
21f
100
AcDbEntity
  8
图层_1
 62
7
100
AcDbPolyline
 90
1
 70
1
 10
142.738690
 20
286.489094
 30
0.0
  0
SPLINE
  5
220
100
AcDbEntity
  8
图层_1
 62
7
100
AcDbSpline
 70
8
 71
3
 72
8
 73
4
 74
0
 40
0
 40
0
 40
0
 40
0
 40
1
 40
1
 40
1
 40
1
 10
154.304150
 20
278.936842
 30
0.0
 10
152.870463
 20
278.936842
 30
0.0
 10
151.837530
 20
279.252930
 30
0.0
 10
151.205350
 20
279.885107
 30
0.0
  0
SPLINE
  5
221
100
AcDbEntity
  8
图层_1
 62
7
100
AcDbSpline
 70
8
 71
3
 72
8
 73
4
 74
0
 40
0
 40
0
 40
0
 40
0
 40
1
 40
1
 40
1
 40
1
 10
151.205350
 20
279.885107
 30
0.0
 10
150.573177
 20
280.517284
 30
0.0
 10
150.257090
 20
281.550215
 30
0.0
 10
150.257090
 20
282.983901
 30
0.0
  0
LWPOLYLINE
  5
222
100
AcDbEntity
  8
图层_1
 62
7
100
AcDbPolyline
 90
2
 70
0
 10
157.436810
 20
278.936842
 30
0.0
 10
154.304150
 20
278.936842
 30
0.0
  0
SPLINE
  5
223
100
AcDbEntity
  8
图层_1
 62
7
100
AcDbSpline
 70
8
 71
3
 72
8
 73
4
 74
0
 40
0
 40
0
 40
0
 40
0
 40
1
 40
1
 40
1
 40
1
 10
150.257090
 20
284.372431
 30
0.0
 10
150.257090
 20
285.806117
 30
0.0
 10
150.573177
 20
286.839048
 30
0.0
 10
151.205350
 20
287.471225
 30
0.0
  0
SPLINE
  5
224
100
AcDbEntity
  8
图层_1
 62
7
100
AcDbSpline
 70
8
 71
3
 72
8
 73
4
 74
0
 40
0
 40
0
 40
0
 40
0
 40
1
 40
1
 40
1
 40
1
 10
151.205350
 20
287.471225
 30
0.0
 10
151.837530
 20
288.103402
 30
0.0
 10
152.870463
 20
288.419490
 30
0.0
 10
154.304150
 20
288.419490
 30
0.0
  0
LWPOLYLINE
  5
225
100
AcDbEntity
  8
图层_1
 62
7
100
AcDbPolyline
 90
2
 70
0
 10
150.257090
 20
282.983901
 30
0.0
 10
150.257090
 20
284.372431
 30
0.0
  0
SPLINE
  5
226
100
AcDbEntity
  8
图层_1
 62
7
100
AcDbSpline
 70
8
 71
3
 72
8
 73
4
 74
0
 40
0
 40
0
 40
0
 40
0
 40
1
 40
1
 40
1
 40
1
 10
157.436810
 20
288.419490
 30
0.0
 10
158.870490
 20
288.419490
 30
0.0
 10
159.903420
 20
288.103402
 30
0.0
 10
160.535600
 20
287.471225
 30
0.0
  0
SPLINE
  5
227
100
AcDbEntity
  8
图层_1
 62
7
100
AcDbSpline
 70
8
 71
3
 72
8
 73
4
 74
0
 40
0
 40
0
 40
0
 40
0
 40
1
 40
1
 40
1
 40
1
 10
160.535600
 20
287.471225
 30
0.0
 10
161.167773
 20
286.839048
 30
0.0
 10
161.483860
 20
285.806117
 30
0.0
 10
161.483860
 20
284.372431
 30
0.0
  0
LWPOLYLINE
  5
228
100
AcDbEntity
  8
图层_1
 62
7
100
AcDbPolyline
 90
2
 70
0
 10
154.304150
 20
288.419490
 30
0.0
 10
157.436810
 20
288.419490
 30
0.0
  0
SPLINE
  5
229
100
AcDbEntity
  8
图层_1
 62
7
100
AcDbSpline
 70
8
 71
3
 72
8
 73
4
 74
0
 40
0
 40
0
 40
0
 40
0
 40
1
 40
1
 40
1
 40
1
 10
161.483860
 20
282.983901
 30
0.0
 10
161.483860
 20
281.550215
 30
0.0
 10
161.167773
 20
280.517284
 30
0.0
 10
160.535600
 20
279.885107
 30
0.0
  0
SPLINE
  5
22a
100
AcDbEntity
  8
图层_1
 62
7
100
AcDbSpline
 70
8
 71
3
 72
8
 73
4
 74
0
 40
0
 40
0
 40
0
 40
0
 40
1
 40
1
 40
1
 40
1
 10
160.535600
 20
279.885107
 30
0.0
 10
159.903420
 20
279.252930
 30
0.0
 10
158.870490
 20
278.936842
 30
0.0
 10
157.436810
 20
278.936842
 30
0.0
  0
LWPOLYLINE
  5
22b
100
AcDbEntity
  8
图层_1
 62
7
100
AcDbPolyline
 90
2
 70
0
 10
161.483860
 20
284.372431
 30
0.0
 10
161.483860
 20
282.983901
 30
0.0
  0
LWPOLYLINE
  5
22c
100
AcDbEntity
  8
图层_1
 62
7
100
AcDbPolyline
 90
1
 70
1
 10
157.436810
 20
278.936842
 30
0.0
  0
SPLINE
  5
22d
100
AcDbEntity
  8
图层_1
 62
7
100
AcDbSpline
 70
8
 71
3
 72
8
 73
4
 74
0
 40
0
 40
0
 40
0
 40
0
 40
1
 40
1
 40
1
 40
1
 10
157.352140
 20
280.867238
 30
0.0
 10
158.063340
 20
280.867238
 30
0.0
 10
158.576983
 20
281.025282
 30
0.0
 10
158.893070
 20
281.341371
 30
0.0
  0
SPLINE
  5
22e
100
AcDbEntity
  8
图层_1
 62
7
100
AcDbSpline
 70
8
 71
3
 72
8
 73
4
 74
0
 40
0
 40
0
 40
0
 40
0
 40
1
 40
1
 40
1
 40
1
 10
158.893070
 20
281.341371
 30
0.0
 10
159.209157
 20
281.657459
 30
0.0
 10
159.367200
 20
282.165458
 30
0.0
 10
159.367200
 20
282.865368
 30
0.0
  0
LWPOLYLINE
  5
22f
100
AcDbEntity
  8
图层_1
 62
7
100
AcDbPolyline
 90
2
 70
0
 10
154.388810
 20
280.867238
 30
0.0
 10
157.352140
 20
280.867238
 30
0.0
  0
SPLINE
  5
230
100
AcDbEntity
  8
图层_1
 62
7
100
AcDbSpline
 70
8
 71
3
 72
8
 73
4
 74
0
 40
0
 40
0
 40
0
 40
0
 40
1
 40
1
 40
1
 40
1
 10
159.367200
 20
284.490964
 30
0.0
 10
159.367200
 20
285.190874
 30
0.0
 10
159.209157
 20
285.698873
 30
0.0
 10
158.893070
 20
286.014961
 30
0.0
  0
SPLINE
  5
231
100
AcDbEntity
  8
图层_1
 62
7
100
AcDbSpline
 70
8
 71
3
 72
8
 73
4
 74
0
 40
0
 40
0
 40
0
 40
0
 40
1
 40
1
 40
1
 40
1
 10
158.893070
 20
286.014961
 30
0.0
 10
158.576983
 20
286.331050
 30
0.0
 10
158.063340
 20
286.489094
 30
0.0
 10
157.352140
 20
286.489094
 30
0.0
  0
LWPOLYLINE
  5
232
100
AcDbEntity
  8
图层_1
 62
7
100
AcDbPolyline
 90
2
 70
0
 10
159.367200
 20
282.865368
 30
0.0
 10
159.367200
 20
284.490964
 30
0.0
  0
SPLINE
  5
233
100
AcDbEntity
  8
图层_1
 62
7
100
AcDbSpline
 70
8
 71
3
 72
8
 73
4
 74
0
 40
0
 40
0
 40
0
 40
0
 40
1
 40
1
 40
1
 40
1
 10
154.388810
 20
286.489094
 30
0.0
 10
153.677610
 20
286.489094
 30
0.0
 10
153.163967
 20
286.331050
 30
0.0
 10
152.847880
 20
286.014961
 30
0.0
  0
SPLINE
  5
234
100
AcDbEntity
  8
图层_1
 62
7
100
AcDbSpline
 70
8
 71
3
 72
8
 73
4
 74
0
 40
0
 40
0
 40
0
 40
0
 40
1
 40
1
 40
1
 40
1
 10
152.847880
 20
286.014961
 30
0.0
 10
152.531793
 20
285.698873
 30
0.0
 10
152.373750
 20
285.190874
 30
0.0
 10
152.373750
 20
284.490964
 30
0.0
  0
LWPOLYLINE
  5
235
100
AcDbEntity
  8
图层_1
 62
7
100
AcDbPolyline
 90
2
 70
0
 10
157.352140
 20
286.489094
 30
0.0
 10
154.388810
 20
286.489094
 30
0.0
  0
SPLINE
  5
236
100
AcDbEntity
  8
图层_1
 62
7
100
AcDbSpline
 70
8
 71
3
 72
8
 73
4
 74
0
 40
0
 40
0
 40
0
 40
0
 40
1
 40
1
 40
1
 40
1
 10
152.373750
 20
282.865368
 30
0.0
 10
152.373750
 20
282.165458
 30
0.0
 10
152.531793
 20
281.657459
 30
0.0
 10
152.847880
 20
281.341371
 30
0.0
  0
SPLINE
  5
237
100
AcDbEntity
  8
图层_1
 62
7
100
AcDbSpline
 70
8
 71
3
 72
8
 73
4
 74
0
 40
0
 40
0
 40
0
 40
0
 40
1
 40
1
 40
1
 40
1
 10
152.847880
 20
281.341371
 30
0.0
 10
153.163967
 20
281.025282
 30
0.0
 10
153.677610
 20
280.867238
 30
0.0
 10
154.388810
 20
280.867238
 30
0.0
  0
LWPOLYLINE
  5
238
100
AcDbEntity
  8
图层_1
 62
7
100
AcDbPolyline
 90
2
 70
0
 10
152.373750
 20
284.490964
 30
0.0
 10
152.373750
 20
282.865368
 30
0.0
  0
LWPOLYLINE
  5
239
100
AcDbEntity
  8
图层_1
 62
7
100
AcDbPolyline
 90
1
 70
1
 10
154.388810
 20
280.867238
 30
0.0
  0
ENDSEC
  0
SECTION
  2
OBJECTS
  0
DICTIONARY
  5
C
330
0
100
AcDbDictionary
  3
ACAD_GROUP
350
D
  3
ACAD_MLINESTYLE
350
17
  0
DICTIONARY
  5
D
330
C
100
AcDbDictionary
  0
DICTIONARY
  5
1A
330
C
100
AcDbDictionary
  0
DICTIONARY
  5
17
330
C
100
AcDbDictionary
  3
STANDARD
350
18
  0
DICTIONARY
  5
19
330
C
100
AcDbDictionary
  0
ENDSEC
  0
EOF
